  0
SECTION
  2
HEADER
  9
$ACADVER
  1
AC1009
  9
$INSBASE
 10
0.0
 20
0.0
 30
0.0
  9
$EXTMIN
 10
0.0
 20
0.0
 30
0.0
  9
$EXTMAX
 10
0.0
 20
0.0
 30
0.0
  0
ENDSEC
  0
SECTION
  2
TABLES
  0
TABLE
  2
VPORT
 70
0
  0
ENDTAB
  0
TABLE
  2
LTYPE
 70
1
  0
LTYPE
  2
CONTINUOUS
 70
0
  3
Solid line
 72
65
 73
0
 40
0.0
  0
ENDTAB
  0
TABLE
  2
LAYER
 70
1
  0
LAYER
  2
0
 70
64
 62
7
  6
continuous
  0
ENDTAB
  0
TABLE
  2
STYLE
 70
1
  0
STYLE
  2
STANDARD
 70
0
 40
0
 41
1.0
 50
0.0
 71
0
 42
1
 3
ARIAL.TTF
 4

  0
ENDTAB
  0
TABLE
  2
VIEW
 70
0
  0
ENDTAB
  0
ENDSEC
  0
SECTION
  2
BLOCKS
  0
BLOCK
  8
0
  2
SHAPE2DVIEW
 70
0
 10
0.0
 20
0.0
 30
0.0
  3
SHAPE2DVIEW
  0
LINE
  8
0
 62
0
 10
-69.4948
 20
29.8875
 30
0.0
 11
-69.4948
 21
48.8613
 31
0.0
  0
LINE
  8
0
 62
0
 10
-69.4948
 20
29.8875
 30
0.0
 11
-69.4948
 21
-25.3625
 31
0.0
  0
ARC
  8
0
 62
0
 10
-68.9948
 20
48.8613
 30
0.0
 40
0.5
 50
90.0
 51
-180.0
  0
ARC
  8
0
 62
0
 10
-68.9948
 20
-25.3625
 30
0.0
 40
0.5
 50
-180.0
 51
-90.0
  0
LINE
  8
0
 62
0
 10
-68.9948
 20
49.3613
 30
0.0
 11
-31.9948
 21
49.3613
 31
0.0
  0
LINE
  8
0
 62
0
 10
-39.434799
 20
-25.8625
 30
0.0
 11
-68.9948
 21
-25.8625
 31
0.0
  0
ARC
  8
0
 62
0
 10
-31.9948
 20
49.8613
 30
0.0
 40
0.5
 50
-90.0
 51
-0.0
  0
LINE
  8
0
 62
0
 10
-39.434799
 20
-25.8625
 30
0.0
 11
-14.2348
 21
-25.8625
 31
0.0
  0
LINE
  8
0
 62
0
 10
-31.4948
 20
53.6113
 30
0.0
 11
-31.4948
 21
49.8613
 31
0.0
  0
LINE
  8
0
 62
0
 10
-13.9948
 20
-25.8625
 30
0.0
 11
-14.2348
 21
-25.8625
 31
0.0
  0
ARC
  8
0
 62
0
 10
-30.9948
 20
53.6113
 30
0.0
 40
0.5
 50
90.0
 51
-180.0
  0
ARC
  8
0
 62
0
 10
-13.9992573435
 20
-26.3732609792
 30
0.0
 40
0.510780428181
 50
45.5000000013
 51
89.5000000013
  0
LINE
  8
0
 62
0
 10
-12.9948
 20
54.1113
 30
0.0
 11
-30.9948
 21
54.1113
 31
0.0
  0
LINE
  8
0
 62
0
 10
-3.0983533906
 20
-40.4660533906
 30
0.0
 11
-13.6412466094
 21
-26.0089466094
 31
0.0
  0
ARC
  8
0
 62
0
 10
-12.9948
 20
54.6113
 30
0.0
 40
0.5
 50
-90.0
 51
-0.0
  0
ARC
  8
0
 62
0
 10
-2.74034265647
 20
-40.1017390208
 30
0.0
 40
0.510780428181
 50
-134.499999999
 51
-90.4999999987
  0
LINE
  8
0
 62
0
 10
-12.4948
 20
55.8613
 30
0.0
 11
-12.4948
 21
54.6113
 31
0.0
  0
LINE
  8
0
 62
0
 10
-2.7448
 20
-40.6125
 30
0.0
 11
9.0652
 21
-42.3725
 31
0.0
  0
ARC
  8
0
 62
0
 10
-11.9948
 20
55.8613
 30
0.0
 40
0.5
 50
90.0
 51
-180.0
  0
LINE
  8
0
 62
0
 10
9.0652
 20
-42.3725
 30
0.0
 11
34.2552
 21
-46.1125
 31
0.0
  0
LINE
  8
0
 62
0
 10
5.0052
 20
56.3613
 30
0.0
 11
-11.9948
 21
56.3613
 31
0.0
  0
LINE
  8
0
 62
0
 10
34.2552
 20
-46.1125
 30
0.0
 11
49.0752
 21
-54.6425
 31
0.0
  0
ARC
  8
0
 62
0
 10
5.0052
 20
55.8613
 30
0.0
 40
0.5
 50
-0.0
 51
90.0
  0
ARC
  8
0
 62
0
 10
49.5752
 20
-53.9125
 30
0.0
 40
0.884816365129
 50
-124.408472252
 51
-34.408472252
  0
LINE
  8
0
 62
0
 10
5.5052
 20
54.6113
 30
0.0
 11
5.5052
 21
55.8613
 31
0.0
  0
LINE
  8
0
 62
0
 10
50.3052
 20
-54.4125
 30
0.0
 11
64.2552
 21
-30.1125
 31
0.0
  0
ARC
  8
0
 62
0
 10
6.0052
 20
54.6113
 30
0.0
 40
0.5
 50
-180.0
 51
-90.0
  0
LINE
  8
0
 62
0
 10
64.2552
 20
29.8875
 30
0.0
 11
64.2552
 21
-30.1125
 31
0.0
  0
LINE
  8
0
 62
0
 10
24.0052
 20
54.1113
 30
0.0
 11
6.0052
 21
54.1113
 31
0.0
  0
ARC
  8
0
 62
0
 10
63.7552
 20
29.8875
 30
0.0
 40
0.5
 50
-0.0
 51
90.0
  0
ARC
  8
0
 62
0
 10
24.0052
 20
53.6113
 30
0.0
 40
0.5
 50
-0.0
 51
90.0
  0
LINE
  8
0
 62
0
 10
63.7552
 20
30.3875
 30
0.0
 11
44.0152
 21
30.3875
 31
0.0
  0
LINE
  8
0
 62
0
 10
24.5052
 20
52.1113
 30
0.0
 11
24.5052
 21
53.6113
 31
0.0
  0
ARC
  8
0
 62
0
 10
44.0152
 20
30.8875
 30
0.0
 40
0.5
 50
-180.0
 51
-90.0
  0
ARC
  8
0
 62
0
 10
25.0052
 20
52.1113
 30
0.0
 40
0.5
 50
-180.0
 51
-90.0
  0
LINE
  8
0
 62
0
 10
43.5152
 20
49.8613
 30
0.0
 11
43.5152
 21
30.8875
 31
0.0
  0
LINE
  8
0
 62
0
 10
43.0152
 20
51.6113
 30
0.0
 11
25.0052
 21
51.6113
 31
0.0
  0
LINE
  8
0
 62
0
 10
43.5152
 20
49.8613
 30
0.0
 11
43.5152
 21
51.1113
 31
0.0
  0
ARC
  8
0
 62
0
 10
43.0152
 20
51.1113
 30
0.0
 40
0.5
 50
-0.0
 51
90.0
  0
CIRCLE
  8
0
 62
0
 10
-7.7448
 20
-24.3625
 30
0.0
 40
1.1
  0
CIRCLE
  8
0
 62
0
 10
38.7552
 20
-32.1125
 30
0.0
 40
1.1
  0
CIRCLE
  8
0
 62
0
 10
-50.9948
 20
-7.1125
 30
0.0
 40
1.1
  0
CIRCLE
  8
0
 62
0
 10
25.0052
 20
-3.7205
 30
0.0
 40
1.1
  0
CIRCLE
  8
0
 62
0
 10
-50.9948
 20
30.7455
 30
0.0
 40
1.1
  0
CIRCLE
  8
0
 62
0
 10
25.0052
 20
34.4955
 30
0.0
 40
1.1
  0
ENDBLK
  0
ENDSEC
  0
SECTION
  2
ENTITIES
  0
INSERT
  2
SHAPE2DVIEW
  8
0
 62
0
 10
0.0
 20
0.0
 30
0.0
  0
ENDSEC
  0
EOF
