  0
SECTION
  2
HEADER
  9
$ACADVER
  1
AC1009
  9
$INSBASE
 10
0.0
 20
0.0
 30
0.0
  9
$EXTMIN
 10
0.0
 20
0.0
 30
0.0
  9
$EXTMAX
 10
0.0
 20
0.0
 30
0.0
  0
ENDSEC
  0
SECTION
  2
TABLES
  0
TABLE
  2
VPORT
 70
0
  0
ENDTAB
  0
TABLE
  2
LTYPE
 70
1
  0
LTYPE
  2
CONTINUOUS
 70
0
  3
Solid line
 72
65
 73
0
 40
0.0
  0
ENDTAB
  0
TABLE
  2
LAYER
 70
1
  0
LAYER
  2
0
 70
64
 62
7
  6
continuous
  0
ENDTAB
  0
TABLE
  2
STYLE
 70
1
  0
STYLE
  2
STANDARD
 70
0
 40
0
 41
1.0
 50
0.0
 71
0
 42
1
 3
ARIAL.TTF
 4

  0
ENDTAB
  0
TABLE
  2
VIEW
 70
0
  0
ENDTAB
  0
ENDSEC
  0
SECTION
  2
BLOCKS
  0
BLOCK
  8
0
  2
SHAPE2DVIEW
 70
0
 10
0.0
 20
0.0
 30
0.0
  3
SHAPE2DVIEW
  0
ARC
  8
0
 62
0
 10
-0.174942656473
 20
-42.7560390208
 30
0.0
 40
0.510780428181
 50
-134.499999999
 51
-90.4999999987
  0
LINE
  8
0
 62
0
 10
-0.5329533906
 20
-43.1203533906
 30
0.0
 11
-11.0758466094
 21
-28.6632466094
 31
0.0
  0
LINE
  8
0
 62
0
 10
-0.1794
 20
-43.2668
 30
0.0
 11
11.6306
 21
-45.0268
 31
0.0
  0
ARC
  8
0
 62
0
 10
-11.4338573435
 20
-29.0275609792
 30
0.0
 40
0.510780428181
 50
45.5000000013
 51
89.5000000013
  0
LINE
  8
0
 62
0
 10
11.6306
 20
-45.0268
 30
0.0
 11
36.8206
 21
-48.7668
 31
0.0
  0
LINE
  8
0
 62
0
 10
-11.4294
 20
-28.5168
 30
0.0
 11
-11.6694
 21
-28.5168
 31
0.0
  0
LINE
  8
0
 62
0
 10
36.8206
 20
-48.7668
 30
0.0
 11
51.6406
 21
-57.2968
 31
0.0
  0
LINE
  8
0
 62
0
 10
-36.869399
 20
-28.5168
 30
0.0
 11
-11.6694
 21
-28.5168
 31
0.0
  0
ARC
  8
0
 62
0
 10
52.1406
 20
-56.5668
 30
0.0
 40
0.884816365129
 50
-124.408472252
 51
-34.408472252
  0
LINE
  8
0
 62
0
 10
-36.869399
 20
-28.5168
 30
0.0
 11
-66.4294
 21
-28.5168
 31
0.0
  0
LINE
  8
0
 62
0
 10
52.8706
 20
-57.0668
 30
0.0
 11
66.8206
 21
-32.7668
 31
0.0
  0
ARC
  8
0
 62
0
 10
-66.4294
 20
-28.0168
 30
0.0
 40
0.5
 50
-180.0
 51
-90.0
  0
LINE
  8
0
 62
0
 10
46.1306
 20
-20.8148
 30
0.0
 11
66.8206
 21
-32.7668
 31
0.0
  0
LINE
  8
0
 62
0
 10
-66.9294
 20
27.2332
 30
0.0
 11
-66.9294
 21
-28.0168
 31
0.0
  0
LINE
  8
0
 62
0
 10
46.1306
 20
-20.8148
 30
0.0
 11
46.0767
 21
47.4841
 31
0.0
  0
LINE
  8
0
 62
0
 10
-66.9294
 20
27.2332
 30
0.0
 11
-66.9294
 21
46.207
 31
0.0
  0
LINE
  8
0
 62
0
 10
46.0806
 20
48.457
 30
0.0
 11
46.0767
 21
47.4841
 31
0.0
  0
ARC
  8
0
 62
0
 10
-66.4294
 20
46.207
 30
0.0
 40
0.5
 50
90.0
 51
-180.0
  0
ARC
  8
0
 62
0
 10
45.5806
 20
48.457
 30
0.0
 40
0.5
 50
-0.0
 51
90.0
  0
LINE
  8
0
 62
0
 10
-66.4294
 20
46.707
 30
0.0
 11
-29.4294
 21
46.707
 31
0.0
  0
LINE
  8
0
 62
0
 10
45.5806
 20
48.957
 30
0.0
 11
27.5706
 21
48.957
 31
0.0
  0
ARC
  8
0
 62
0
 10
-29.4294
 20
47.207
 30
0.0
 40
0.5
 50
-90.0
 51
-0.0
  0
ARC
  8
0
 62
0
 10
27.5706
 20
49.457
 30
0.0
 40
0.5
 50
-180.0
 51
-90.0
  0
LINE
  8
0
 62
0
 10
-28.9294
 20
50.957
 30
0.0
 11
-28.9294
 21
47.207
 31
0.0
  0
LINE
  8
0
 62
0
 10
27.0706
 20
49.457
 30
0.0
 11
27.0706
 21
50.957
 31
0.0
  0
ARC
  8
0
 62
0
 10
-28.4294
 20
50.957
 30
0.0
 40
0.5
 50
90.0
 51
-180.0
  0
ARC
  8
0
 62
0
 10
26.5706
 20
50.957
 30
0.0
 40
0.5
 50
-0.0
 51
90.0
  0
LINE
  8
0
 62
0
 10
-10.4294
 20
51.457
 30
0.0
 11
-28.4294
 21
51.457
 31
0.0
  0
LINE
  8
0
 62
0
 10
26.5706
 20
51.457
 30
0.0
 11
8.5706
 21
51.457
 31
0.0
  0
ARC
  8
0
 62
0
 10
-10.4294
 20
51.957
 30
0.0
 40
0.5
 50
-90.0
 51
-0.0
  0
ARC
  8
0
 62
0
 10
8.5706
 20
51.957
 30
0.0
 40
0.5
 50
-180.0
 51
-90.0
  0
LINE
  8
0
 62
0
 10
-9.9294
 20
53.207
 30
0.0
 11
-9.9294
 21
51.957
 31
0.0
  0
LINE
  8
0
 62
0
 10
8.0706
 20
51.957
 30
0.0
 11
8.0706
 21
53.207
 31
0.0
  0
ARC
  8
0
 62
0
 10
-9.4294
 20
53.207
 30
0.0
 40
0.5
 50
90.0
 51
-180.0
  0
ARC
  8
0
 62
0
 10
7.5706
 20
53.207
 30
0.0
 40
0.5
 50
-0.0
 51
90.0
  0
LINE
  8
0
 62
0
 10
7.5706
 20
53.707
 30
0.0
 11
-9.4294
 21
53.707
 31
0.0
  0
LINE
  8
0
 62
0
 10
-26.8544
 20
-21.5668
 30
0.0
 11
-26.8544
 21
-7.7168
 31
0.0
  0
LINE
  8
0
 62
0
 10
-13.0044
 20
-21.5668
 30
0.0
 11
-26.8544
 21
-21.5668
 31
0.0
  0
LINE
  8
0
 62
0
 10
-13.0044
 20
-21.5668
 30
0.0
 11
-13.0044
 21
-7.7168
 31
0.0
  0
LINE
  8
0
 62
0
 10
-26.8544
 20
-7.7168
 30
0.0
 11
-13.0044
 21
-7.7168
 31
0.0
  0
LINE
  8
0
 62
0
 10
-26.8544
 20
-2.5668
 30
0.0
 11
-26.8544
 21
11.2832
 31
0.0
  0
LINE
  8
0
 62
0
 10
-13.0044
 20
-2.5668
 30
0.0
 11
-26.8544
 21
-2.5668
 31
0.0
  0
LINE
  8
0
 62
0
 10
-13.0044
 20
-2.5668
 30
0.0
 11
-13.0044
 21
11.2832
 31
0.0
  0
LINE
  8
0
 62
0
 10
-26.8544
 20
11.2832
 30
0.0
 11
-13.0044
 21
11.2832
 31
0.0
  0
LINE
  8
0
 62
0
 10
-7.8544
 20
-0.1918
 30
0.0
 11
-7.8544
 21
13.6582
 31
0.0
  0
LINE
  8
0
 62
0
 10
5.9956
 20
-0.1918
 30
0.0
 11
-7.8544
 21
-0.1918
 31
0.0
  0
LINE
  8
0
 62
0
 10
5.9956
 20
-0.1918
 30
0.0
 11
5.9956
 21
13.6582
 31
0.0
  0
LINE
  8
0
 62
0
 10
-7.8544
 20
13.6582
 30
0.0
 11
5.9956
 21
13.6582
 31
0.0
  0
LINE
  8
0
 62
0
 10
-7.8544
 20
-19.1918
 30
0.0
 11
-7.8544
 21
-5.3418
 31
0.0
  0
LINE
  8
0
 62
0
 10
5.9956
 20
-19.1918
 30
0.0
 11
-7.8544
 21
-19.1918
 31
0.0
  0
LINE
  8
0
 62
0
 10
5.9956
 20
-19.1918
 30
0.0
 11
5.9956
 21
-5.3418
 31
0.0
  0
LINE
  8
0
 62
0
 10
-7.8544
 20
-5.3418
 30
0.0
 11
5.9956
 21
-5.3418
 31
0.0
  0
LINE
  8
0
 62
0
 10
30.1456
 20
-23.9418
 30
0.0
 11
30.1456
 21
-10.0918
 31
0.0
  0
LINE
  8
0
 62
0
 10
43.9956
 20
-23.9418
 30
0.0
 11
30.1456
 21
-23.9418
 31
0.0
  0
LINE
  8
0
 62
0
 10
43.9956
 20
-23.9418
 30
0.0
 11
43.9956
 21
-10.0918
 31
0.0
  0
LINE
  8
0
 62
0
 10
30.1456
 20
-10.0918
 30
0.0
 11
43.9956
 21
-10.0918
 31
0.0
  0
LINE
  8
0
 62
0
 10
30.1456
 20
-4.9418
 30
0.0
 11
30.1456
 21
8.9082
 31
0.0
  0
LINE
  8
0
 62
0
 10
43.9956
 20
-4.9418
 30
0.0
 11
30.1456
 21
-4.9418
 31
0.0
  0
LINE
  8
0
 62
0
 10
43.9956
 20
-4.9418
 30
0.0
 11
43.9956
 21
8.9082
 31
0.0
  0
LINE
  8
0
 62
0
 10
30.1456
 20
8.9082
 30
0.0
 11
43.9956
 21
8.9082
 31
0.0
  0
CIRCLE
  8
0
 62
0
 10
27.5706
 20
-6.3748
 30
0.0
 40
1.1
  0
LINE
  8
0
 62
0
 10
11.1456
 20
-21.5668
 30
0.0
 11
11.1456
 21
-7.7168
 31
0.0
  0
LINE
  8
0
 62
0
 10
24.9956
 20
-21.5668
 30
0.0
 11
11.1456
 21
-21.5668
 31
0.0
  0
LINE
  8
0
 62
0
 10
24.9956
 20
-21.5668
 30
0.0
 11
24.9956
 21
-7.7168
 31
0.0
  0
LINE
  8
0
 62
0
 10
11.1456
 20
-7.7168
 30
0.0
 11
24.9956
 21
-7.7168
 31
0.0
  0
LINE
  8
0
 62
0
 10
11.1456
 20
-2.6668
 30
0.0
 11
11.1456
 21
11.1832
 31
0.0
  0
LINE
  8
0
 62
0
 10
24.9956
 20
-2.6668
 30
0.0
 11
11.1456
 21
-2.6668
 31
0.0
  0
LINE
  8
0
 62
0
 10
24.9956
 20
-2.6668
 30
0.0
 11
24.9956
 21
11.1832
 31
0.0
  0
LINE
  8
0
 62
0
 10
11.1456
 20
11.1832
 30
0.0
 11
24.9956
 21
11.1832
 31
0.0
  0
CIRCLE
  8
0
 62
0
 10
-48.4294
 20
-9.7668
 30
0.0
 40
1.1
  0
LINE
  8
0
 62
0
 10
-45.8544
 20
-26.3168
 30
0.0
 11
-45.8544
 21
-12.4668
 31
0.0
  0
LINE
  8
0
 62
0
 10
-32.0044
 20
-26.3168
 30
0.0
 11
-45.8544
 21
-26.3168
 31
0.0
  0
LINE
  8
0
 62
0
 10
-32.0044
 20
-26.3168
 30
0.0
 11
-32.0044
 21
-12.4668
 31
0.0
  0
LINE
  8
0
 62
0
 10
-45.8544
 20
-12.4668
 30
0.0
 11
-32.0044
 21
-12.4668
 31
0.0
  0
LINE
  8
0
 62
0
 10
-45.8544
 20
11.6832
 30
0.0
 11
-45.8544
 21
25.5332
 31
0.0
  0
LINE
  8
0
 62
0
 10
-32.0044
 20
11.6832
 30
0.0
 11
-45.8544
 21
11.6832
 31
0.0
  0
LINE
  8
0
 62
0
 10
-32.0044
 20
11.6832
 30
0.0
 11
-32.0044
 21
25.5332
 31
0.0
  0
LINE
  8
0
 62
0
 10
-45.8544
 20
25.5332
 30
0.0
 11
-32.0044
 21
25.5332
 31
0.0
  0
LINE
  8
0
 62
0
 10
-45.8544
 20
-7.3168
 30
0.0
 11
-45.8544
 21
6.5332
 31
0.0
  0
LINE
  8
0
 62
0
 10
-32.0044
 20
-7.3168
 30
0.0
 11
-45.8544
 21
-7.3168
 31
0.0
  0
LINE
  8
0
 62
0
 10
-32.0044
 20
-7.3168
 30
0.0
 11
-32.0044
 21
6.5332
 31
0.0
  0
LINE
  8
0
 62
0
 10
-45.8544
 20
6.5332
 30
0.0
 11
-32.0044
 21
6.5332
 31
0.0
  0
LINE
  8
0
 62
0
 10
-26.8544
 20
16.4332
 30
0.0
 11
-26.8544
 21
30.2832
 31
0.0
  0
LINE
  8
0
 62
0
 10
-13.0044
 20
16.4332
 30
0.0
 11
-26.8544
 21
16.4332
 31
0.0
  0
LINE
  8
0
 62
0
 10
-13.0044
 20
16.4332
 30
0.0
 11
-13.0044
 21
30.2832
 31
0.0
  0
LINE
  8
0
 62
0
 10
-26.8544
 20
30.2832
 30
0.0
 11
-13.0044
 21
30.2832
 31
0.0
  0
LINE
  8
0
 62
0
 10
30.1456
 20
14.0582
 30
0.0
 11
30.1456
 21
27.9082
 31
0.0
  0
LINE
  8
0
 62
0
 10
43.9956
 20
14.0582
 30
0.0
 11
30.1456
 21
14.0582
 31
0.0
  0
LINE
  8
0
 62
0
 10
43.9956
 20
14.0582
 30
0.0
 11
43.9956
 21
27.9082
 31
0.0
  0
LINE
  8
0
 62
0
 10
30.1456
 20
27.9082
 30
0.0
 11
43.9956
 21
27.9082
 31
0.0
  0
LINE
  8
0
 62
0
 10
11.1456
 20
16.4332
 30
0.0
 11
11.1456
 21
30.2832
 31
0.0
  0
LINE
  8
0
 62
0
 10
24.9956
 20
16.4332
 30
0.0
 11
11.1456
 21
16.4332
 31
0.0
  0
LINE
  8
0
 62
0
 10
24.9956
 20
16.4332
 30
0.0
 11
24.9956
 21
30.2832
 31
0.0
  0
LINE
  8
0
 62
0
 10
11.1456
 20
30.2832
 30
0.0
 11
24.9956
 21
30.2832
 31
0.0
  0
CIRCLE
  8
0
 62
0
 10
-48.4294
 20
28.0912
 30
0.0
 40
1.1
  0
LINE
  8
0
 62
0
 10
1.6456
 20
-41.1918
 30
0.0
 11
1.6456
 21
-27.3418
 31
0.0
  0
LINE
  8
0
 62
0
 10
15.4956
 20
-41.1918
 30
0.0
 11
1.6456
 21
-41.1918
 31
0.0
  0
LINE
  8
0
 62
0
 10
15.4956
 20
-41.1918
 30
0.0
 11
15.4956
 21
-27.3418
 31
0.0
  0
LINE
  8
0
 62
0
 10
1.6456
 20
-27.3418
 30
0.0
 11
15.4956
 21
-27.3418
 31
0.0
  0
CIRCLE
  8
0
 62
0
 10
-5.1794
 20
-27.0168
 30
0.0
 40
1.1
  0
CIRCLE
  8
0
 62
0
 10
41.3206
 20
-34.7668
 30
0.0
 40
1.1
  0
LINE
  8
0
 62
0
 10
49.2858740787
 20
-31.3070740787
 30
0.0
 11
61.2803259213
 21
-38.2320740787
 31
0.0
  0
LINE
  8
0
 62
0
 10
42.3608740787
 20
-43.3015259213
 30
0.0
 11
49.2858740787
 21
-31.3070740787
 31
0.0
  0
LINE
  8
0
 62
0
 10
42.3608740787
 20
-43.3015259213
 30
0.0
 11
54.3553259213
 21
-50.2265259213
 31
0.0
  0
LINE
  8
0
 62
0
 10
61.2803259213
 20
-38.2320740787
 30
0.0
 11
54.3553259213
 21
-50.2265259213
 31
0.0
  0
LINE
  8
0
 62
0
 10
38.0519582344
 20
-32.1200855402
 30
0.0
 11
34.4673144598
 21
-45.4981582344
 31
0.0
  0
LINE
  8
0
 62
0
 10
24.6738855402
 20
-28.5354417656
 30
0.0
 11
38.0519582344
 21
-32.1200855402
 31
0.0
  0
LINE
  8
0
 62
0
 10
24.6738855402
 20
-28.5354417656
 30
0.0
 11
21.0892417656
 21
-41.9135144598
 31
0.0
  0
LINE
  8
0
 62
0
 10
34.4673144598
 20
-45.4981582344
 30
0.0
 11
21.0892417656
 21
-41.9135144598
 31
0.0
  0
LINE
  8
0
 62
0
 10
11.1456
 20
35.4332
 30
0.0
 11
11.1456
 21
49.2832
 31
0.0
  0
LINE
  8
0
 62
0
 10
24.9956
 20
35.4332
 30
0.0
 11
11.1456
 21
35.4332
 31
0.0
  0
LINE
  8
0
 62
0
 10
24.9956
 20
35.4332
 30
0.0
 11
24.9956
 21
49.2832
 31
0.0
  0
LINE
  8
0
 62
0
 10
11.1456
 20
49.2832
 30
0.0
 11
24.9956
 21
49.2832
 31
0.0
  0
LINE
  8
0
 62
0
 10
-7.8544
 20
37.8082
 30
0.0
 11
-7.8544
 21
51.6582
 31
0.0
  0
LINE
  8
0
 62
0
 10
5.9956
 20
37.8082
 30
0.0
 11
-7.8544
 21
37.8082
 31
0.0
  0
LINE
  8
0
 62
0
 10
5.9956
 20
37.8082
 30
0.0
 11
5.9956
 21
51.6582
 31
0.0
  0
LINE
  8
0
 62
0
 10
-7.8544
 20
51.6582
 30
0.0
 11
5.9956
 21
51.6582
 31
0.0
  0
LINE
  8
0
 62
0
 10
30.1456
 20
33.0582
 30
0.0
 11
30.1456
 21
46.9082
 31
0.0
  0
LINE
  8
0
 62
0
 10
43.9956
 20
33.0582
 30
0.0
 11
30.1456
 21
33.0582
 31
0.0
  0
LINE
  8
0
 62
0
 10
43.9956
 20
33.0582
 30
0.0
 11
43.9956
 21
46.9082
 31
0.0
  0
LINE
  8
0
 62
0
 10
30.1456
 20
46.9082
 30
0.0
 11
43.9956
 21
46.9082
 31
0.0
  0
CIRCLE
  8
0
 62
0
 10
27.5706
 20
31.8412
 30
0.0
 40
1.1
  0
LINE
  8
0
 62
0
 10
-7.8544
 20
18.8082
 30
0.0
 11
-7.8544
 21
32.6582
 31
0.0
  0
LINE
  8
0
 62
0
 10
5.9956
 20
18.8082
 30
0.0
 11
-7.8544
 21
18.8082
 31
0.0
  0
LINE
  8
0
 62
0
 10
5.9956
 20
18.8082
 30
0.0
 11
5.9956
 21
32.6582
 31
0.0
  0
LINE
  8
0
 62
0
 10
-7.8544
 20
32.6582
 30
0.0
 11
5.9956
 21
32.6582
 31
0.0
  0
LINE
  8
0
 62
0
 10
-45.8544
 20
30.6832
 30
0.0
 11
-45.8544
 21
44.5332
 31
0.0
  0
LINE
  8
0
 62
0
 10
-32.0044
 20
30.6832
 30
0.0
 11
-45.8544
 21
30.6832
 31
0.0
  0
LINE
  8
0
 62
0
 10
-32.0044
 20
30.6832
 30
0.0
 11
-32.0044
 21
44.5332
 31
0.0
  0
LINE
  8
0
 62
0
 10
-45.8544
 20
44.5332
 30
0.0
 11
-32.0044
 21
44.5332
 31
0.0
  0
LINE
  8
0
 62
0
 10
-26.8544
 20
35.4332
 30
0.0
 11
-26.8544
 21
49.2832
 31
0.0
  0
LINE
  8
0
 62
0
 10
-13.0044
 20
35.4332
 30
0.0
 11
-26.8544
 21
35.4332
 31
0.0
  0
LINE
  8
0
 62
0
 10
-13.0044
 20
35.4332
 30
0.0
 11
-13.0044
 21
49.2832
 31
0.0
  0
LINE
  8
0
 62
0
 10
-26.8544
 20
49.2832
 30
0.0
 11
-13.0044
 21
49.2832
 31
0.0
  0
LINE
  8
0
 62
0
 10
-64.8544
 20
30.6832
 30
0.0
 11
-64.8544
 21
44.5332
 31
0.0
  0
LINE
  8
0
 62
0
 10
-51.0044
 20
30.6832
 30
0.0
 11
-64.8544
 21
30.6832
 31
0.0
  0
LINE
  8
0
 62
0
 10
-51.0044
 20
30.6832
 30
0.0
 11
-51.0044
 21
44.5332
 31
0.0
  0
LINE
  8
0
 62
0
 10
-64.8544
 20
44.5332
 30
0.0
 11
-51.0044
 21
44.5332
 31
0.0
  0
LINE
  8
0
 62
0
 10
-64.8544
 20
11.6832
 30
0.0
 11
-64.8544
 21
25.5332
 31
0.0
  0
LINE
  8
0
 62
0
 10
-51.0044
 20
11.6832
 30
0.0
 11
-64.8544
 21
11.6832
 31
0.0
  0
LINE
  8
0
 62
0
 10
-51.0044
 20
11.6832
 30
0.0
 11
-51.0044
 21
25.5332
 31
0.0
  0
LINE
  8
0
 62
0
 10
-64.8544
 20
25.5332
 30
0.0
 11
-51.0044
 21
25.5332
 31
0.0
  0
LINE
  8
0
 62
0
 10
-64.8544
 20
-7.3168
 30
0.0
 11
-64.8544
 21
6.5332
 31
0.0
  0
LINE
  8
0
 62
0
 10
-51.0044
 20
-7.3168
 30
0.0
 11
-64.8544
 21
-7.3168
 31
0.0
  0
LINE
  8
0
 62
0
 10
-51.0044
 20
-7.3168
 30
0.0
 11
-51.0044
 21
6.5332
 31
0.0
  0
LINE
  8
0
 62
0
 10
-64.8544
 20
6.5332
 30
0.0
 11
-51.0044
 21
6.5332
 31
0.0
  0
LINE
  8
0
 62
0
 10
-64.8544
 20
-26.3168
 30
0.0
 11
-64.8544
 21
-12.4668
 31
0.0
  0
LINE
  8
0
 62
0
 10
-51.0044
 20
-26.3168
 30
0.0
 11
-64.8544
 21
-26.3168
 31
0.0
  0
LINE
  8
0
 62
0
 10
-51.0044
 20
-26.3168
 30
0.0
 11
-51.0044
 21
-12.4668
 31
0.0
  0
LINE
  8
0
 62
0
 10
-64.8544
 20
-12.4668
 30
0.0
 11
-51.0044
 21
-12.4668
 31
0.0
  0
ENDBLK
  0
ENDSEC
  0
SECTION
  2
ENTITIES
  0
INSERT
  2
SHAPE2DVIEW
  8
0
 62
0
 10
0.0
 20
0.0
 30
0.0
  0
ENDSEC
  0
EOF
