  0
SECTION
  2
HEADER
  9
$ACADVER
  1
AC1009
  9
$INSBASE
 10
0.0
 20
0.0
 30
0.0
  9
$EXTMIN
 10
0.0
 20
0.0
 30
0.0
  9
$EXTMAX
 10
0.0
 20
0.0
 30
0.0
  0
ENDSEC
  0
SECTION
  2
TABLES
  0
TABLE
  2
VPORT
 70
0
  0
ENDTAB
  0
TABLE
  2
LTYPE
 70
1
  0
LTYPE
  2
CONTINUOUS
 70
0
  3
Solid line
 72
65
 73
0
 40
0.0
  0
ENDTAB
  0
TABLE
  2
LAYER
 70
1
  0
LAYER
  2
0
 70
64
 62
7
  6
continuous
  0
ENDTAB
  0
TABLE
  2
STYLE
 70
1
  0
STYLE
  2
STANDARD
 70
0
 40
0
 41
1.0
 50
0.0
 71
0
 42
1
 3
ARIAL.TTF
 4

  0
ENDTAB
  0
TABLE
  2
VIEW
 70
0
  0
ENDTAB
  0
ENDSEC
  0
SECTION
  2
BLOCKS
  0
BLOCK
  8
0
  2
SHAPE2DVIEW
 70
0
 10
0.0
 20
0.0
 30
0.0
  3
SHAPE2DVIEW
  0
ARC
  8
0
 62
0
 10
-0.174942656473
 20
-42.7560390208
 30
0.0
 40
0.510780428181
 50
-134.499999999
 51
-90.4999999987
  0
LINE
  8
0
 62
0
 10
-0.5329533906
 20
-43.1203533906
 30
0.0
 11
-11.0758466094
 21
-28.6632466094
 31
0.0
  0
LINE
  8
0
 62
0
 10
-0.1794
 20
-43.2668
 30
0.0
 11
11.6306
 21
-45.0268
 31
0.0
  0
ARC
  8
0
 62
0
 10
-11.4338573435
 20
-29.0275609792
 30
0.0
 40
0.510780428181
 50
45.5000000013
 51
89.5000000013
  0
LINE
  8
0
 62
0
 10
11.6306
 20
-45.0268
 30
0.0
 11
36.8206
 21
-48.7668
 31
0.0
  0
LINE
  8
0
 62
0
 10
-11.4294
 20
-28.5168
 30
0.0
 11
-11.6694
 21
-28.5168
 31
0.0
  0
LINE
  8
0
 62
0
 10
36.8206
 20
-48.7668
 30
0.0
 11
51.6406
 21
-57.2968
 31
0.0
  0
LINE
  8
0
 62
0
 10
-36.869399
 20
-28.5168
 30
0.0
 11
-11.6694
 21
-28.5168
 31
0.0
  0
ARC
  8
0
 62
0
 10
52.1406
 20
-56.5668
 30
0.0
 40
0.884816365129
 50
-124.408472252
 51
-34.408472252
  0
LINE
  8
0
 62
0
 10
-36.869399
 20
-28.5168
 30
0.0
 11
-66.4294
 21
-28.5168
 31
0.0
  0
LINE
  8
0
 62
0
 10
52.8706
 20
-57.0668
 30
0.0
 11
66.8206
 21
-32.7668
 31
0.0
  0
ARC
  8
0
 62
0
 10
-66.4294
 20
-28.0168
 30
0.0
 40
0.5
 50
-180.0
 51
-90.0
  0
LINE
  8
0
 62
0
 10
46.1306
 20
-20.8148
 30
0.0
 11
66.8206
 21
-32.7668
 31
0.0
  0
LINE
  8
0
 62
0
 10
-66.9294
 20
27.2332
 30
0.0
 11
-66.9294
 21
-28.0168
 31
0.0
  0
LINE
  8
0
 62
0
 10
46.1306
 20
-20.8148
 30
0.0
 11
46.0767
 21
47.4841
 31
0.0
  0
LINE
  8
0
 62
0
 10
-66.9294
 20
27.2332
 30
0.0
 11
-66.9294
 21
46.207
 31
0.0
  0
LINE
  8
0
 62
0
 10
46.0806
 20
48.457
 30
0.0
 11
46.0767
 21
47.4841
 31
0.0
  0
ARC
  8
0
 62
0
 10
-66.4294
 20
46.207
 30
0.0
 40
0.5
 50
90.0
 51
-180.0
  0
ARC
  8
0
 62
0
 10
45.5806
 20
48.457
 30
0.0
 40
0.5
 50
-0.0
 51
90.0
  0
LINE
  8
0
 62
0
 10
-66.4294
 20
46.707
 30
0.0
 11
-29.4294
 21
46.707
 31
0.0
  0
LINE
  8
0
 62
0
 10
45.5806
 20
48.957
 30
0.0
 11
27.5706
 21
48.957
 31
0.0
  0
ARC
  8
0
 62
0
 10
-29.4294
 20
47.207
 30
0.0
 40
0.5
 50
-90.0
 51
-0.0
  0
ARC
  8
0
 62
0
 10
27.5706
 20
49.457
 30
0.0
 40
0.5
 50
-180.0
 51
-90.0
  0
LINE
  8
0
 62
0
 10
-28.9294
 20
50.957
 30
0.0
 11
-28.9294
 21
47.207
 31
0.0
  0
LINE
  8
0
 62
0
 10
27.0706
 20
49.457
 30
0.0
 11
27.0706
 21
50.957
 31
0.0
  0
ARC
  8
0
 62
0
 10
-28.4294
 20
50.957
 30
0.0
 40
0.5
 50
90.0
 51
-180.0
  0
ARC
  8
0
 62
0
 10
26.5706
 20
50.957
 30
0.0
 40
0.5
 50
-0.0
 51
90.0
  0
LINE
  8
0
 62
0
 10
-10.4294
 20
51.457
 30
0.0
 11
-28.4294
 21
51.457
 31
0.0
  0
LINE
  8
0
 62
0
 10
26.5706
 20
51.457
 30
0.0
 11
8.5706
 21
51.457
 31
0.0
  0
ARC
  8
0
 62
0
 10
-10.4294
 20
51.957
 30
0.0
 40
0.5
 50
-90.0
 51
-0.0
  0
ARC
  8
0
 62
0
 10
8.5706
 20
51.957
 30
0.0
 40
0.5
 50
-180.0
 51
-90.0
  0
LINE
  8
0
 62
0
 10
-9.9294
 20
53.207
 30
0.0
 11
-9.9294
 21
51.957
 31
0.0
  0
LINE
  8
0
 62
0
 10
8.0706
 20
51.957
 30
0.0
 11
8.0706
 21
53.207
 31
0.0
  0
ARC
  8
0
 62
0
 10
-9.4294
 20
53.207
 30
0.0
 40
0.5
 50
90.0
 51
-180.0
  0
ARC
  8
0
 62
0
 10
7.5706
 20
53.207
 30
0.0
 40
0.5
 50
-0.0
 51
90.0
  0
LINE
  8
0
 62
0
 10
7.5706
 20
53.707
 30
0.0
 11
-9.4294
 21
53.707
 31
0.0
  0
LINE
  8
0
 62
0
 10
-45.9294
 20
11.6082
 30
0.0
 11
-45.9294
 21
25.6082
 31
0.0
  0
LINE
  8
0
 62
0
 10
-31.9294
 20
11.6082
 30
0.0
 11
-45.9294
 21
11.6082
 31
0.0
  0
LINE
  8
0
 62
0
 10
-31.9294
 20
11.6082
 30
0.0
 11
-31.9294
 21
25.6082
 31
0.0
  0
LINE
  8
0
 62
0
 10
-45.9294
 20
25.6082
 30
0.0
 11
-31.9294
 21
25.6082
 31
0.0
  0
LINE
  8
0
 62
0
 10
-45.9294
 20
-7.3918
 30
0.0
 11
-45.9294
 21
6.6082
 31
0.0
  0
LINE
  8
0
 62
0
 10
-31.9294
 20
-7.3918
 30
0.0
 11
-45.9294
 21
-7.3918
 31
0.0
  0
LINE
  8
0
 62
0
 10
-31.9294
 20
-7.3918
 30
0.0
 11
-31.9294
 21
6.6082
 31
0.0
  0
LINE
  8
0
 62
0
 10
-45.9294
 20
6.6082
 30
0.0
 11
-31.9294
 21
6.6082
 31
0.0
  0
LINE
  8
0
 62
0
 10
-26.9294
 20
16.3582
 30
0.0
 11
-26.9294
 21
30.3582
 31
0.0
  0
LINE
  8
0
 62
0
 10
-12.9294
 20
16.3582
 30
0.0
 11
-26.9294
 21
16.3582
 31
0.0
  0
LINE
  8
0
 62
0
 10
-12.9294
 20
16.3582
 30
0.0
 11
-12.9294
 21
30.3582
 31
0.0
  0
LINE
  8
0
 62
0
 10
-26.9294
 20
30.3582
 30
0.0
 11
-12.9294
 21
30.3582
 31
0.0
  0
LINE
  8
0
 62
0
 10
-7.9294
 20
-0.2668
 30
0.0
 11
-7.9294
 21
13.7332
 31
0.0
  0
LINE
  8
0
 62
0
 10
6.0706
 20
-0.2668
 30
0.0
 11
-7.9294
 21
-0.2668
 31
0.0
  0
LINE
  8
0
 62
0
 10
6.0706
 20
-0.2668
 30
0.0
 11
6.0706
 21
13.7332
 31
0.0
  0
LINE
  8
0
 62
0
 10
-7.9294
 20
13.7332
 30
0.0
 11
6.0706
 21
13.7332
 31
0.0
  0
LINE
  8
0
 62
0
 10
-7.9294
 20
-19.2668
 30
0.0
 11
-7.9294
 21
-5.2668
 31
0.0
  0
LINE
  8
0
 62
0
 10
6.0706
 20
-19.2668
 30
0.0
 11
-7.9294
 21
-19.2668
 31
0.0
  0
LINE
  8
0
 62
0
 10
6.0706
 20
-19.2668
 30
0.0
 11
6.0706
 21
-5.2668
 31
0.0
  0
LINE
  8
0
 62
0
 10
-7.9294
 20
-5.2668
 30
0.0
 11
6.0706
 21
-5.2668
 31
0.0
  0
LINE
  8
0
 62
0
 10
-26.9294
 20
-2.6418
 30
0.0
 11
-26.9294
 21
11.3582
 31
0.0
  0
LINE
  8
0
 62
0
 10
-12.9294
 20
-2.6418
 30
0.0
 11
-26.9294
 21
-2.6418
 31
0.0
  0
LINE
  8
0
 62
0
 10
-12.9294
 20
-2.6418
 30
0.0
 11
-12.9294
 21
11.3582
 31
0.0
  0
LINE
  8
0
 62
0
 10
-26.9294
 20
11.3582
 30
0.0
 11
-12.9294
 21
11.3582
 31
0.0
  0
LINE
  8
0
 62
0
 10
-26.9294
 20
-21.6418
 30
0.0
 11
-26.9294
 21
-7.6418
 31
0.0
  0
LINE
  8
0
 62
0
 10
-12.9294
 20
-21.6418
 30
0.0
 11
-26.9294
 21
-21.6418
 31
0.0
  0
LINE
  8
0
 62
0
 10
-12.9294
 20
-21.6418
 30
0.0
 11
-12.9294
 21
-7.6418
 31
0.0
  0
LINE
  8
0
 62
0
 10
-26.9294
 20
-7.6418
 30
0.0
 11
-12.9294
 21
-7.6418
 31
0.0
  0
LINE
  8
0
 62
0
 10
30.0706
 20
-24.0168
 30
0.0
 11
30.0706
 21
-10.0168
 31
0.0
  0
LINE
  8
0
 62
0
 10
44.0706
 20
-24.0168
 30
0.0
 11
30.0706
 21
-24.0168
 31
0.0
  0
LINE
  8
0
 62
0
 10
44.0706
 20
-24.0168
 30
0.0
 11
44.0706
 21
-10.0168
 31
0.0
  0
LINE
  8
0
 62
0
 10
30.0706
 20
-10.0168
 30
0.0
 11
44.0706
 21
-10.0168
 31
0.0
  0
LINE
  8
0
 62
0
 10
30.0706
 20
-5.0168
 30
0.0
 11
30.0706
 21
8.9832
 31
0.0
  0
LINE
  8
0
 62
0
 10
44.0706
 20
-5.0168
 30
0.0
 11
30.0706
 21
-5.0168
 31
0.0
  0
LINE
  8
0
 62
0
 10
44.0706
 20
-5.0168
 30
0.0
 11
44.0706
 21
8.9832
 31
0.0
  0
LINE
  8
0
 62
0
 10
30.0706
 20
8.9832
 30
0.0
 11
44.0706
 21
8.9832
 31
0.0
  0
LINE
  8
0
 62
0
 10
30.0706
 20
13.9832
 30
0.0
 11
30.0706
 21
27.9832
 31
0.0
  0
LINE
  8
0
 62
0
 10
44.0706
 20
13.9832
 30
0.0
 11
30.0706
 21
13.9832
 31
0.0
  0
LINE
  8
0
 62
0
 10
44.0706
 20
13.9832
 30
0.0
 11
44.0706
 21
27.9832
 31
0.0
  0
LINE
  8
0
 62
0
 10
30.0706
 20
27.9832
 30
0.0
 11
44.0706
 21
27.9832
 31
0.0
  0
CIRCLE
  8
0
 62
0
 10
27.5706
 20
-6.3748
 30
0.0
 40
1.1
  0
LINE
  8
0
 62
0
 10
11.0706
 20
-21.6418
 30
0.0
 11
11.0706
 21
-7.6418
 31
0.0
  0
LINE
  8
0
 62
0
 10
25.0706
 20
-21.6418
 30
0.0
 11
11.0706
 21
-21.6418
 31
0.0
  0
LINE
  8
0
 62
0
 10
25.0706
 20
-21.6418
 30
0.0
 11
25.0706
 21
-7.6418
 31
0.0
  0
LINE
  8
0
 62
0
 10
11.0706
 20
-7.6418
 30
0.0
 11
25.0706
 21
-7.6418
 31
0.0
  0
CIRCLE
  8
0
 62
0
 10
-48.4294
 20
-9.7668
 30
0.0
 40
1.1
  0
LINE
  8
0
 62
0
 10
1.5706
 20
-41.2668
 30
0.0
 11
1.5706
 21
-27.2668
 31
0.0
  0
LINE
  8
0
 62
0
 10
15.5706
 20
-41.2668
 30
0.0
 11
1.5706
 21
-41.2668
 31
0.0
  0
LINE
  8
0
 62
0
 10
15.5706
 20
-41.2668
 30
0.0
 11
15.5706
 21
-27.2668
 31
0.0
  0
LINE
  8
0
 62
0
 10
1.5706
 20
-27.2668
 30
0.0
 11
15.5706
 21
-27.2668
 31
0.0
  0
CIRCLE
  8
0
 62
0
 10
-5.1794
 20
-27.0168
 30
0.0
 40
1.1
  0
CIRCLE
  8
0
 62
0
 10
41.3206
 20
-34.7668
 30
0.0
 40
1.1
  0
LINE
  8
0
 62
0
 10
49.2584221734
 20
-31.2046221734
 30
0.0
 11
61.3827778266
 21
-38.2046221734
 31
0.0
  0
LINE
  8
0
 62
0
 10
42.2584221734
 20
-43.3289778266
 30
0.0
 11
49.2584221734
 21
-31.2046221734
 31
0.0
  0
LINE
  8
0
 62
0
 10
42.2584221734
 20
-43.3289778266
 30
0.0
 11
54.3827778266
 21
-50.3289778266
 31
0.0
  0
LINE
  8
0
 62
0
 10
61.3827778266
 20
-38.2046221734
 30
0.0
 11
54.3827778266
 21
-50.3289778266
 31
0.0
  0
LINE
  8
0
 62
0
 10
38.1438140998
 20
-32.0670525316
 30
0.0
 11
34.5203474684
 21
-45.5900140998
 31
0.0
  0
LINE
  8
0
 62
0
 10
24.6208525316
 20
-28.4435859002
 30
0.0
 11
38.1438140998
 21
-32.0670525316
 31
0.0
  0
LINE
  8
0
 62
0
 10
24.6208525316
 20
-28.4435859002
 30
0.0
 11
20.9973859002
 21
-41.9665474684
 31
0.0
  0
LINE
  8
0
 62
0
 10
34.5203474684
 20
-45.5900140998
 30
0.0
 11
20.9973859002
 21
-41.9665474684
 31
0.0
  0
LINE
  8
0
 62
0
 10
-64.9294
 20
30.6082
 30
0.0
 11
-64.9294
 21
44.6082
 31
0.0
  0
LINE
  8
0
 62
0
 10
-50.9294
 20
30.6082
 30
0.0
 11
-64.9294
 21
30.6082
 31
0.0
  0
LINE
  8
0
 62
0
 10
-50.9294
 20
30.6082
 30
0.0
 11
-50.9294
 21
44.6082
 31
0.0
  0
LINE
  8
0
 62
0
 10
-64.9294
 20
44.6082
 30
0.0
 11
-50.9294
 21
44.6082
 31
0.0
  0
LINE
  8
0
 62
0
 10
-64.9294
 20
11.6082
 30
0.0
 11
-64.9294
 21
25.6082
 31
0.0
  0
LINE
  8
0
 62
0
 10
-50.9294
 20
11.6082
 30
0.0
 11
-64.9294
 21
11.6082
 31
0.0
  0
LINE
  8
0
 62
0
 10
-50.9294
 20
11.6082
 30
0.0
 11
-50.9294
 21
25.6082
 31
0.0
  0
LINE
  8
0
 62
0
 10
-64.9294
 20
25.6082
 30
0.0
 11
-50.9294
 21
25.6082
 31
0.0
  0
LINE
  8
0
 62
0
 10
-45.9294
 20
30.6082
 30
0.0
 11
-45.9294
 21
44.6082
 31
0.0
  0
LINE
  8
0
 62
0
 10
-31.9294
 20
30.6082
 30
0.0
 11
-45.9294
 21
30.6082
 31
0.0
  0
LINE
  8
0
 62
0
 10
-31.9294
 20
30.6082
 30
0.0
 11
-31.9294
 21
44.6082
 31
0.0
  0
LINE
  8
0
 62
0
 10
-45.9294
 20
44.6082
 30
0.0
 11
-31.9294
 21
44.6082
 31
0.0
  0
CIRCLE
  8
0
 62
0
 10
-48.4294
 20
28.0912
 30
0.0
 40
1.1
  0
LINE
  8
0
 62
0
 10
-26.9294
 20
35.3582
 30
0.0
 11
-26.9294
 21
49.3582
 31
0.0
  0
LINE
  8
0
 62
0
 10
-12.9294
 20
35.3582
 30
0.0
 11
-26.9294
 21
35.3582
 31
0.0
  0
LINE
  8
0
 62
0
 10
-12.9294
 20
35.3582
 30
0.0
 11
-12.9294
 21
49.3582
 31
0.0
  0
LINE
  8
0
 62
0
 10
-26.9294
 20
49.3582
 30
0.0
 11
-12.9294
 21
49.3582
 31
0.0
  0
CIRCLE
  8
0
 62
0
 10
27.5706
 20
31.8412
 30
0.0
 40
1.1
  0
LINE
  8
0
 62
0
 10
11.0706
 20
35.3582
 30
0.0
 11
11.0706
 21
49.3582
 31
0.0
  0
LINE
  8
0
 62
0
 10
25.0706
 20
35.3582
 30
0.0
 11
11.0706
 21
35.3582
 31
0.0
  0
LINE
  8
0
 62
0
 10
25.0706
 20
35.3582
 30
0.0
 11
25.0706
 21
49.3582
 31
0.0
  0
LINE
  8
0
 62
0
 10
11.0706
 20
49.3582
 30
0.0
 11
25.0706
 21
49.3582
 31
0.0
  0
LINE
  8
0
 62
0
 10
-7.9294
 20
37.7332
 30
0.0
 11
-7.9294
 21
51.7332
 31
0.0
  0
LINE
  8
0
 62
0
 10
6.0706
 20
37.7332
 30
0.0
 11
-7.9294
 21
37.7332
 31
0.0
  0
LINE
  8
0
 62
0
 10
6.0706
 20
37.7332
 30
0.0
 11
6.0706
 21
51.7332
 31
0.0
  0
LINE
  8
0
 62
0
 10
-7.9294
 20
51.7332
 30
0.0
 11
6.0706
 21
51.7332
 31
0.0
  0
LINE
  8
0
 62
0
 10
-7.9294
 20
18.7332
 30
0.0
 11
-7.9294
 21
32.7332
 31
0.0
  0
LINE
  8
0
 62
0
 10
6.0706
 20
18.7332
 30
0.0
 11
-7.9294
 21
18.7332
 31
0.0
  0
LINE
  8
0
 62
0
 10
6.0706
 20
18.7332
 30
0.0
 11
6.0706
 21
32.7332
 31
0.0
  0
LINE
  8
0
 62
0
 10
-7.9294
 20
32.7332
 30
0.0
 11
6.0706
 21
32.7332
 31
0.0
  0
LINE
  8
0
 62
0
 10
11.0706
 20
16.3582
 30
0.0
 11
11.0706
 21
30.3582
 31
0.0
  0
LINE
  8
0
 62
0
 10
25.0706
 20
16.3582
 30
0.0
 11
11.0706
 21
16.3582
 31
0.0
  0
LINE
  8
0
 62
0
 10
25.0706
 20
16.3582
 30
0.0
 11
25.0706
 21
30.3582
 31
0.0
  0
LINE
  8
0
 62
0
 10
11.0706
 20
30.3582
 30
0.0
 11
25.0706
 21
30.3582
 31
0.0
  0
LINE
  8
0
 62
0
 10
-64.9294
 20
-26.3918
 30
0.0
 11
-64.9294
 21
-12.3918
 31
0.0
  0
LINE
  8
0
 62
0
 10
-50.9294
 20
-26.3918
 30
0.0
 11
-64.9294
 21
-26.3918
 31
0.0
  0
LINE
  8
0
 62
0
 10
-50.9294
 20
-26.3918
 30
0.0
 11
-50.9294
 21
-12.3918
 31
0.0
  0
LINE
  8
0
 62
0
 10
-64.9294
 20
-12.3918
 30
0.0
 11
-50.9294
 21
-12.3918
 31
0.0
  0
LINE
  8
0
 62
0
 10
-64.9294
 20
-7.3918
 30
0.0
 11
-64.9294
 21
6.6082
 31
0.0
  0
LINE
  8
0
 62
0
 10
-50.9294
 20
-7.3918
 30
0.0
 11
-64.9294
 21
-7.3918
 31
0.0
  0
LINE
  8
0
 62
0
 10
-50.9294
 20
-7.3918
 30
0.0
 11
-50.9294
 21
6.6082
 31
0.0
  0
LINE
  8
0
 62
0
 10
-64.9294
 20
6.6082
 30
0.0
 11
-50.9294
 21
6.6082
 31
0.0
  0
LINE
  8
0
 62
0
 10
-45.9294
 20
-26.3918
 30
0.0
 11
-45.9294
 21
-12.3918
 31
0.0
  0
LINE
  8
0
 62
0
 10
-31.9294
 20
-26.3918
 30
0.0
 11
-45.9294
 21
-26.3918
 31
0.0
  0
LINE
  8
0
 62
0
 10
-31.9294
 20
-26.3918
 30
0.0
 11
-31.9294
 21
-12.3918
 31
0.0
  0
LINE
  8
0
 62
0
 10
-45.9294
 20
-12.3918
 30
0.0
 11
-31.9294
 21
-12.3918
 31
0.0
  0
LINE
  8
0
 62
0
 10
11.0706
 20
-2.7418
 30
0.0
 11
11.0706
 21
11.2582
 31
0.0
  0
LINE
  8
0
 62
0
 10
25.0706
 20
-2.7418
 30
0.0
 11
11.0706
 21
-2.7418
 31
0.0
  0
LINE
  8
0
 62
0
 10
25.0706
 20
-2.7418
 30
0.0
 11
25.0706
 21
11.2582
 31
0.0
  0
LINE
  8
0
 62
0
 10
11.0706
 20
11.2582
 30
0.0
 11
25.0706
 21
11.2582
 31
0.0
  0
LINE
  8
0
 62
0
 10
30.0706
 20
32.9832
 30
0.0
 11
30.0706
 21
46.9832
 31
0.0
  0
LINE
  8
0
 62
0
 10
44.0706
 20
32.9832
 30
0.0
 11
30.0706
 21
32.9832
 31
0.0
  0
LINE
  8
0
 62
0
 10
44.0706
 20
32.9832
 30
0.0
 11
44.0706
 21
46.9832
 31
0.0
  0
LINE
  8
0
 62
0
 10
30.0706
 20
46.9832
 30
0.0
 11
44.0706
 21
46.9832
 31
0.0
  0
ENDBLK
  0
ENDSEC
  0
SECTION
  2
ENTITIES
  0
INSERT
  2
SHAPE2DVIEW
  8
0
 62
0
 10
0.0
 20
0.0
 30
0.0
  0
ENDSEC
  0
EOF
