G04 #@! TF.GenerationSoftware,KiCad,Pcbnew,(5.1.0)-1*
G04 #@! TF.CreationDate,2019-05-05T14:00:57-05:00*
G04 #@! TF.ProjectId,corne-chocolate,636f726e-652d-4636-986f-636f6c617465,2.1*
G04 #@! TF.SameCoordinates,Original*
G04 #@! TF.FileFunction,Legend,Bot*
G04 #@! TF.FilePolarity,Positive*
%FSLAX46Y46*%
G04 Gerber Fmt 4.6, Leading zero omitted, Abs format (unit mm)*
G04 Created by KiCad (PCBNEW (5.1.0)-1) date 2019-05-05 14:00:57*
%MOMM*%
%LPD*%
G04 APERTURE LIST*
%ADD10C,0.150000*%
%ADD11C,0.125000*%
G04 APERTURE END LIST*
D10*
X186280495Y-102854895D02*
X186125676Y-102854895D01*
X186048266Y-102893600D01*
X185970857Y-102971009D01*
X185932152Y-103125828D01*
X185932152Y-103396761D01*
X185970857Y-103551580D01*
X186048266Y-103628990D01*
X186125676Y-103667695D01*
X186280495Y-103667695D01*
X186357904Y-103628990D01*
X186435314Y-103551580D01*
X186474019Y-103396761D01*
X186474019Y-103125828D01*
X186435314Y-102971009D01*
X186357904Y-102893600D01*
X186280495Y-102854895D01*
X185196761Y-103667695D02*
X185583809Y-103667695D01*
X185583809Y-102854895D01*
X184925828Y-103241942D02*
X184654895Y-103241942D01*
X184538780Y-103667695D02*
X184925828Y-103667695D01*
X184925828Y-102854895D01*
X184538780Y-102854895D01*
X184190438Y-103667695D02*
X184190438Y-102854895D01*
X183996914Y-102854895D01*
X183880800Y-102893600D01*
X183803390Y-102971009D01*
X183764685Y-103048419D01*
X183725980Y-103203238D01*
X183725980Y-103319352D01*
X183764685Y-103474171D01*
X183803390Y-103551580D01*
X183880800Y-103628990D01*
X183996914Y-103667695D01*
X184190438Y-103667695D01*
D11*
X172450000Y-106316666D02*
X172783333Y-106316666D01*
X172783333Y-105616666D01*
X172216666Y-105950000D02*
X171983333Y-105950000D01*
X171883333Y-106316666D02*
X172216666Y-106316666D01*
X172216666Y-105616666D01*
X171883333Y-105616666D01*
X171583333Y-106316666D02*
X171583333Y-105616666D01*
X171416666Y-105616666D01*
X171316666Y-105650000D01*
X171250000Y-105716666D01*
X171216666Y-105783333D01*
X171183333Y-105916666D01*
X171183333Y-106016666D01*
X171216666Y-106150000D01*
X171250000Y-106216666D01*
X171316666Y-106283333D01*
X171416666Y-106316666D01*
X171583333Y-106316666D01*
X172933333Y-108116666D02*
X172700000Y-108816666D01*
X172466666Y-108116666D01*
X171833333Y-108750000D02*
X171866666Y-108783333D01*
X171966666Y-108816666D01*
X172033333Y-108816666D01*
X172133333Y-108783333D01*
X172200000Y-108716666D01*
X172233333Y-108650000D01*
X172266666Y-108516666D01*
X172266666Y-108416666D01*
X172233333Y-108283333D01*
X172200000Y-108216666D01*
X172133333Y-108150000D01*
X172033333Y-108116666D01*
X171966666Y-108116666D01*
X171866666Y-108150000D01*
X171833333Y-108183333D01*
X171133333Y-108750000D02*
X171166666Y-108783333D01*
X171266666Y-108816666D01*
X171333333Y-108816666D01*
X171433333Y-108783333D01*
X171500000Y-108716666D01*
X171533333Y-108650000D01*
X171566666Y-108516666D01*
X171566666Y-108416666D01*
X171533333Y-108283333D01*
X171500000Y-108216666D01*
X171433333Y-108150000D01*
X171333333Y-108116666D01*
X171266666Y-108116666D01*
X171166666Y-108150000D01*
X171133333Y-108183333D01*
X172433333Y-102950000D02*
X172500000Y-102916666D01*
X172600000Y-102916666D01*
X172700000Y-102950000D01*
X172766666Y-103016666D01*
X172800000Y-103083333D01*
X172833333Y-103216666D01*
X172833333Y-103316666D01*
X172800000Y-103450000D01*
X172766666Y-103516666D01*
X172700000Y-103583333D01*
X172600000Y-103616666D01*
X172533333Y-103616666D01*
X172433333Y-103583333D01*
X172400000Y-103550000D01*
X172400000Y-103316666D01*
X172533333Y-103316666D01*
X172100000Y-103616666D02*
X172100000Y-102916666D01*
X171700000Y-103616666D01*
X171700000Y-102916666D01*
X171366666Y-103616666D02*
X171366666Y-102916666D01*
X171200000Y-102916666D01*
X171100000Y-102950000D01*
X171033333Y-103016666D01*
X171000000Y-103083333D01*
X170966666Y-103216666D01*
X170966666Y-103316666D01*
X171000000Y-103450000D01*
X171033333Y-103516666D01*
X171100000Y-103583333D01*
X171200000Y-103616666D01*
X171366666Y-103616666D01*
D10*
X69538900Y-67411600D02*
X70438900Y-66911600D01*
X70438900Y-66911600D02*
X70438900Y-67911600D01*
X70438900Y-67911600D02*
X69538900Y-67411600D01*
X69438900Y-66911600D02*
X69438900Y-67911600D01*
X126346000Y-98247200D02*
X127246000Y-97747200D01*
X127246000Y-97747200D02*
X127246000Y-98747200D01*
X127246000Y-98747200D02*
X126346000Y-98247200D01*
X126246000Y-97747200D02*
X126246000Y-98747200D01*
X148363600Y-127350000D02*
X148863600Y-128250000D01*
X148863600Y-128250000D02*
X147863600Y-128250000D01*
X147863600Y-128250000D02*
X148363600Y-127350000D01*
X148863600Y-127250000D02*
X147863600Y-127250000D01*
X164344400Y-64973200D02*
X165244400Y-64473200D01*
X165244400Y-64473200D02*
X165244400Y-65473200D01*
X165244400Y-65473200D02*
X164344400Y-64973200D01*
X164244400Y-64473200D02*
X164244400Y-65473200D01*
X145345200Y-62636400D02*
X146245200Y-62136400D01*
X146245200Y-62136400D02*
X146245200Y-63136400D01*
X146245200Y-63136400D02*
X145345200Y-62636400D01*
X145245200Y-62136400D02*
X145245200Y-63136400D01*
X126346000Y-60248800D02*
X127246000Y-59748800D01*
X127246000Y-59748800D02*
X127246000Y-60748800D01*
X127246000Y-60748800D02*
X126346000Y-60248800D01*
X126246000Y-59748800D02*
X126246000Y-60748800D01*
X107397600Y-62636400D02*
X108297600Y-62136400D01*
X108297600Y-62136400D02*
X108297600Y-63136400D01*
X108297600Y-63136400D02*
X107397600Y-62636400D01*
X107297600Y-62136400D02*
X107297600Y-63136400D01*
X88373000Y-67360800D02*
X89273000Y-66860800D01*
X89273000Y-66860800D02*
X89273000Y-67860800D01*
X89273000Y-67860800D02*
X88373000Y-67360800D01*
X88273000Y-66860800D02*
X88273000Y-67860800D01*
X145345200Y-64516000D02*
X146245200Y-64016000D01*
X146245200Y-64016000D02*
X146245200Y-65016000D01*
X146245200Y-65016000D02*
X145345200Y-64516000D01*
X145245200Y-64016000D02*
X145245200Y-65016000D01*
X69526200Y-69265800D02*
X70426200Y-68765800D01*
X70426200Y-68765800D02*
X70426200Y-69765800D01*
X70426200Y-69765800D02*
X69526200Y-69265800D01*
X69426200Y-68765800D02*
X69426200Y-69765800D01*
X88373000Y-69227700D02*
X89273000Y-68727700D01*
X89273000Y-68727700D02*
X89273000Y-69727700D01*
X89273000Y-69727700D02*
X88373000Y-69227700D01*
X88273000Y-68727700D02*
X88273000Y-69727700D01*
X107400400Y-64516000D02*
X108300400Y-64016000D01*
X108300400Y-64016000D02*
X108300400Y-65016000D01*
X108300400Y-65016000D02*
X107400400Y-64516000D01*
X107300400Y-64016000D02*
X107300400Y-65016000D01*
X126346000Y-62128400D02*
X127246000Y-61628400D01*
X127246000Y-61628400D02*
X127246000Y-62628400D01*
X127246000Y-62628400D02*
X126346000Y-62128400D01*
X126246000Y-61628400D02*
X126246000Y-62628400D01*
X164344400Y-66852800D02*
X165244400Y-66352800D01*
X165244400Y-66352800D02*
X165244400Y-67352800D01*
X165244400Y-67352800D02*
X164344400Y-66852800D01*
X164244400Y-66352800D02*
X164244400Y-67352800D01*
X69345600Y-105359200D02*
X70245600Y-104859200D01*
X70245600Y-104859200D02*
X70245600Y-105859200D01*
X70245600Y-105859200D02*
X69345600Y-105359200D01*
X69245600Y-104859200D02*
X69245600Y-105859200D01*
X88347600Y-105359200D02*
X89247600Y-104859200D01*
X89247600Y-104859200D02*
X89247600Y-105859200D01*
X89247600Y-105859200D02*
X88347600Y-105359200D01*
X88247600Y-104859200D02*
X88247600Y-105859200D01*
X107296000Y-100634800D02*
X108196000Y-100134800D01*
X108196000Y-100134800D02*
X108196000Y-101134800D01*
X108196000Y-101134800D02*
X107296000Y-100634800D01*
X107196000Y-100134800D02*
X107196000Y-101134800D01*
X145294400Y-100634800D02*
X146194400Y-100134800D01*
X146194400Y-100134800D02*
X146194400Y-101134800D01*
X146194400Y-101134800D02*
X145294400Y-100634800D01*
X145194400Y-100134800D02*
X145194400Y-101134800D01*
X164293600Y-103022400D02*
X165193600Y-102522400D01*
X165193600Y-102522400D02*
X165193600Y-103522400D01*
X165193600Y-103522400D02*
X164293600Y-103022400D01*
X164193600Y-102522400D02*
X164193600Y-103522400D01*
X69348400Y-107238800D02*
X70248400Y-106738800D01*
X70248400Y-106738800D02*
X70248400Y-107738800D01*
X70248400Y-107738800D02*
X69348400Y-107238800D01*
X69248400Y-106738800D02*
X69248400Y-107738800D01*
X88347600Y-107238800D02*
X89247600Y-106738800D01*
X89247600Y-106738800D02*
X89247600Y-107738800D01*
X89247600Y-107738800D02*
X88347600Y-107238800D01*
X88247600Y-106738800D02*
X88247600Y-107738800D01*
X107296000Y-102514400D02*
X108196000Y-102014400D01*
X108196000Y-102014400D02*
X108196000Y-103014400D01*
X108196000Y-103014400D02*
X107296000Y-102514400D01*
X107196000Y-102014400D02*
X107196000Y-103014400D01*
X126346000Y-100126800D02*
X127246000Y-99626800D01*
X127246000Y-99626800D02*
X127246000Y-100626800D01*
X127246000Y-100626800D02*
X126346000Y-100126800D01*
X126246000Y-99626800D02*
X126246000Y-100626800D01*
X164293600Y-104902000D02*
X165193600Y-104402000D01*
X165193600Y-104402000D02*
X165193600Y-105402000D01*
X165193600Y-105402000D02*
X164293600Y-104902000D01*
X164193600Y-104402000D02*
X164193600Y-105402000D01*
X126898400Y-127308400D02*
X127398400Y-128208400D01*
X127398400Y-128208400D02*
X126398400Y-128208400D01*
X126398400Y-128208400D02*
X126898400Y-127308400D01*
X127398400Y-127208400D02*
X126398400Y-127208400D01*
X146151600Y-127350000D02*
X146651600Y-128250000D01*
X146651600Y-128250000D02*
X145651600Y-128250000D01*
X145651600Y-128250000D02*
X146151600Y-127350000D01*
X146651600Y-127250000D02*
X145651600Y-127250000D01*
X145294400Y-102514400D02*
X146194400Y-102014400D01*
X146194400Y-102014400D02*
X146194400Y-103014400D01*
X146194400Y-103014400D02*
X145294400Y-102514400D01*
X145194400Y-102014400D02*
X145194400Y-103014400D01*
X175840941Y-141270855D02*
X177645941Y-138144503D01*
X172416677Y-139293855D02*
X175833147Y-141266355D01*
X176174463Y-128877178D02*
X171861963Y-136346647D01*
X179558890Y-130831178D02*
X176174463Y-128877178D01*
X179598728Y-130854178D02*
X177113565Y-135250606D01*
X172361555Y-139249329D02*
G75*
G02X171861963Y-136346647I1201545J1701137D01*
G01*
X177627656Y-138128173D02*
G75*
G02X177129529Y-135230956I1199545J1697672D01*
G01*
X187927459Y-138578392D02*
X185652459Y-142518808D01*
X183900441Y-136253392D02*
X182625441Y-138461757D01*
X179570185Y-139353615D02*
X177220185Y-143423935D01*
X183134703Y-142479689D02*
X181247203Y-145748935D01*
X183934591Y-136244242D02*
X187918308Y-138544242D01*
X177241836Y-143436435D02*
X181213052Y-145758085D01*
X179594336Y-139361786D02*
G75*
G03X182658611Y-138394305I1048397J2015878D01*
G01*
X184978789Y-142135637D02*
G75*
G03X183139033Y-142482189I-746602J-1093154D01*
G01*
X185022091Y-142160638D02*
X185628308Y-142510638D01*
X139900000Y-71479000D02*
X143510000Y-71479000D01*
X139900000Y-67525000D02*
X139900000Y-71470000D01*
X150800000Y-65571000D02*
X142175000Y-65571000D01*
X150800000Y-69479000D02*
X150800000Y-65571000D01*
X150800000Y-69525000D02*
X145750000Y-69571000D01*
X139911000Y-67455000D02*
G75*
G02X142175000Y-65571000I2074000J-190000D01*
G01*
X143515000Y-71455000D02*
G75*
G02X145775000Y-69575000I2070000J-190000D01*
G01*
X148275000Y-80600000D02*
X143725000Y-80600000D01*
X148275000Y-75950000D02*
X145725000Y-75950000D01*
X143425000Y-73750000D02*
X138725000Y-73750000D01*
X142500000Y-78400000D02*
X138725000Y-78400000D01*
X148300000Y-75975000D02*
X148300000Y-80575000D01*
X138725000Y-73775000D02*
X138700000Y-78375000D01*
X143430000Y-73775000D02*
G75*
G03X145800000Y-75945000I2270000J100000D01*
G01*
X143720000Y-79825000D02*
G75*
G03X142500000Y-78405000I-1320000J100000D01*
G01*
X143720000Y-79875000D02*
X143720000Y-80575000D01*
X120900000Y-69104000D02*
X124510000Y-69104000D01*
X120900000Y-65150000D02*
X120900000Y-69095000D01*
X131800000Y-63196000D02*
X123175000Y-63196000D01*
X131800000Y-67104000D02*
X131800000Y-63196000D01*
X131800000Y-67150000D02*
X126750000Y-67196000D01*
X120911000Y-65080000D02*
G75*
G02X123175000Y-63196000I2074000J-190000D01*
G01*
X124515000Y-69080000D02*
G75*
G02X126775000Y-67200000I2070000J-190000D01*
G01*
X129275000Y-78225000D02*
X124725000Y-78225000D01*
X129275000Y-73575000D02*
X126725000Y-73575000D01*
X124425000Y-71375000D02*
X119725000Y-71375000D01*
X123500000Y-76025000D02*
X119725000Y-76025000D01*
X129300000Y-73600000D02*
X129300000Y-78200000D01*
X119725000Y-71400000D02*
X119700000Y-76000000D01*
X124430000Y-71400000D02*
G75*
G03X126800000Y-73570000I2270000J100000D01*
G01*
X124720000Y-77450000D02*
G75*
G03X123500000Y-76030000I-1320000J100000D01*
G01*
X124720000Y-77500000D02*
X124720000Y-78200000D01*
X158900000Y-54854000D02*
X162510000Y-54854000D01*
X158900000Y-50900000D02*
X158900000Y-54845000D01*
X169800000Y-48946000D02*
X161175000Y-48946000D01*
X169800000Y-52854000D02*
X169800000Y-48946000D01*
X169800000Y-52900000D02*
X164750000Y-52946000D01*
X158911000Y-50830000D02*
G75*
G02X161175000Y-48946000I2074000J-190000D01*
G01*
X162515000Y-54830000D02*
G75*
G02X164775000Y-52950000I2070000J-190000D01*
G01*
X167275000Y-63975000D02*
X162725000Y-63975000D01*
X167275000Y-59325000D02*
X164725000Y-59325000D01*
X162425000Y-57125000D02*
X157725000Y-57125000D01*
X161500000Y-61775000D02*
X157725000Y-61775000D01*
X167300000Y-59350000D02*
X167300000Y-63950000D01*
X157725000Y-57150000D02*
X157700000Y-61750000D01*
X162430000Y-57150000D02*
G75*
G03X164800000Y-59320000I2270000J100000D01*
G01*
X162720000Y-63200000D02*
G75*
G03X161500000Y-61780000I-1320000J100000D01*
G01*
X162720000Y-63250000D02*
X162720000Y-63950000D01*
X139900000Y-52479000D02*
X143510000Y-52479000D01*
X139900000Y-48525000D02*
X139900000Y-52470000D01*
X150800000Y-46571000D02*
X142175000Y-46571000D01*
X150800000Y-50479000D02*
X150800000Y-46571000D01*
X150800000Y-50525000D02*
X145750000Y-50571000D01*
X139911000Y-48455000D02*
G75*
G02X142175000Y-46571000I2074000J-190000D01*
G01*
X143515000Y-52455000D02*
G75*
G02X145775000Y-50575000I2070000J-190000D01*
G01*
X148275000Y-61600000D02*
X143725000Y-61600000D01*
X148275000Y-56950000D02*
X145725000Y-56950000D01*
X143425000Y-54750000D02*
X138725000Y-54750000D01*
X142500000Y-59400000D02*
X138725000Y-59400000D01*
X148300000Y-56975000D02*
X148300000Y-61575000D01*
X138725000Y-54775000D02*
X138700000Y-59375000D01*
X143430000Y-54775000D02*
G75*
G03X145800000Y-56945000I2270000J100000D01*
G01*
X143720000Y-60825000D02*
G75*
G03X142500000Y-59405000I-1320000J100000D01*
G01*
X143720000Y-60875000D02*
X143720000Y-61575000D01*
X120900000Y-50104000D02*
X124510000Y-50104000D01*
X120900000Y-46150000D02*
X120900000Y-50095000D01*
X131800000Y-44196000D02*
X123175000Y-44196000D01*
X131800000Y-48104000D02*
X131800000Y-44196000D01*
X131800000Y-48150000D02*
X126750000Y-48196000D01*
X120911000Y-46080000D02*
G75*
G02X123175000Y-44196000I2074000J-190000D01*
G01*
X124515000Y-50080000D02*
G75*
G02X126775000Y-48200000I2070000J-190000D01*
G01*
X129275000Y-59225000D02*
X124725000Y-59225000D01*
X129275000Y-54575000D02*
X126725000Y-54575000D01*
X124425000Y-52375000D02*
X119725000Y-52375000D01*
X123500000Y-57025000D02*
X119725000Y-57025000D01*
X129300000Y-54600000D02*
X129300000Y-59200000D01*
X119725000Y-52400000D02*
X119700000Y-57000000D01*
X124430000Y-52400000D02*
G75*
G03X126800000Y-54570000I2270000J100000D01*
G01*
X124720000Y-58450000D02*
G75*
G03X123500000Y-57030000I-1320000J100000D01*
G01*
X124720000Y-58500000D02*
X124720000Y-59200000D01*
X101900000Y-52479000D02*
X105510000Y-52479000D01*
X101900000Y-48525000D02*
X101900000Y-52470000D01*
X112800000Y-46571000D02*
X104175000Y-46571000D01*
X112800000Y-50479000D02*
X112800000Y-46571000D01*
X112800000Y-50525000D02*
X107750000Y-50571000D01*
X101911000Y-48455000D02*
G75*
G02X104175000Y-46571000I2074000J-190000D01*
G01*
X105515000Y-52455000D02*
G75*
G02X107775000Y-50575000I2070000J-190000D01*
G01*
X110275000Y-61600000D02*
X105725000Y-61600000D01*
X110275000Y-56950000D02*
X107725000Y-56950000D01*
X105425000Y-54750000D02*
X100725000Y-54750000D01*
X104500000Y-59400000D02*
X100725000Y-59400000D01*
X110300000Y-56975000D02*
X110300000Y-61575000D01*
X100725000Y-54775000D02*
X100700000Y-59375000D01*
X105430000Y-54775000D02*
G75*
G03X107800000Y-56945000I2270000J100000D01*
G01*
X105720000Y-60825000D02*
G75*
G03X104500000Y-59405000I-1320000J100000D01*
G01*
X105720000Y-60875000D02*
X105720000Y-61575000D01*
X82900000Y-57229000D02*
X86510000Y-57229000D01*
X82900000Y-53275000D02*
X82900000Y-57220000D01*
X93800000Y-51321000D02*
X85175000Y-51321000D01*
X93800000Y-55229000D02*
X93800000Y-51321000D01*
X93800000Y-55275000D02*
X88750000Y-55321000D01*
X82911000Y-53205000D02*
G75*
G02X85175000Y-51321000I2074000J-190000D01*
G01*
X86515000Y-57205000D02*
G75*
G02X88775000Y-55325000I2070000J-190000D01*
G01*
X91275000Y-66350000D02*
X86725000Y-66350000D01*
X91275000Y-61700000D02*
X88725000Y-61700000D01*
X86425000Y-59500000D02*
X81725000Y-59500000D01*
X85500000Y-64150000D02*
X81725000Y-64150000D01*
X91300000Y-61725000D02*
X91300000Y-66325000D01*
X81725000Y-59525000D02*
X81700000Y-64125000D01*
X86430000Y-59525000D02*
G75*
G03X88800000Y-61695000I2270000J100000D01*
G01*
X86720000Y-65575000D02*
G75*
G03X85500000Y-64155000I-1320000J100000D01*
G01*
X86720000Y-65625000D02*
X86720000Y-66325000D01*
X63900000Y-57229000D02*
X67510000Y-57229000D01*
X63900000Y-53275000D02*
X63900000Y-57220000D01*
X74800000Y-51321000D02*
X66175000Y-51321000D01*
X74800000Y-55229000D02*
X74800000Y-51321000D01*
X74800000Y-55275000D02*
X69750000Y-55321000D01*
X63911000Y-53205000D02*
G75*
G02X66175000Y-51321000I2074000J-190000D01*
G01*
X67515000Y-57205000D02*
G75*
G02X69775000Y-55325000I2070000J-190000D01*
G01*
X72275000Y-66350000D02*
X67725000Y-66350000D01*
X72275000Y-61700000D02*
X69725000Y-61700000D01*
X67425000Y-59500000D02*
X62725000Y-59500000D01*
X66500000Y-64150000D02*
X62725000Y-64150000D01*
X72300000Y-61725000D02*
X72300000Y-66325000D01*
X62725000Y-59525000D02*
X62700000Y-64125000D01*
X67430000Y-59525000D02*
G75*
G03X69800000Y-61695000I2270000J100000D01*
G01*
X67720000Y-65575000D02*
G75*
G03X66500000Y-64155000I-1320000J100000D01*
G01*
X67720000Y-65625000D02*
X67720000Y-66325000D01*
X63900000Y-76229000D02*
X67510000Y-76229000D01*
X63900000Y-72275000D02*
X63900000Y-76220000D01*
X74800000Y-70321000D02*
X66175000Y-70321000D01*
X74800000Y-74229000D02*
X74800000Y-70321000D01*
X74800000Y-74275000D02*
X69750000Y-74321000D01*
X63911000Y-72205000D02*
G75*
G02X66175000Y-70321000I2074000J-190000D01*
G01*
X67515000Y-76205000D02*
G75*
G02X69775000Y-74325000I2070000J-190000D01*
G01*
X72275000Y-85350000D02*
X67725000Y-85350000D01*
X72275000Y-80700000D02*
X69725000Y-80700000D01*
X67425000Y-78500000D02*
X62725000Y-78500000D01*
X66500000Y-83150000D02*
X62725000Y-83150000D01*
X72300000Y-80725000D02*
X72300000Y-85325000D01*
X62725000Y-78525000D02*
X62700000Y-83125000D01*
X67430000Y-78525000D02*
G75*
G03X69800000Y-80695000I2270000J100000D01*
G01*
X67720000Y-84575000D02*
G75*
G03X66500000Y-83155000I-1320000J100000D01*
G01*
X67720000Y-84625000D02*
X67720000Y-85325000D01*
X151839754Y-130305734D02*
X155326747Y-131240071D01*
X152863125Y-126486464D02*
X151842084Y-130297041D01*
X163897449Y-127420172D02*
X155566338Y-125187858D01*
X162885984Y-131195010D02*
X163897449Y-127420172D01*
X162874078Y-131239443D02*
X157984247Y-129976839D01*
X152891868Y-126421696D02*
G75*
G02X155566338Y-125187858I1954154J-720316D01*
G01*
X155337788Y-131218183D02*
G75*
G02X158007360Y-129987173I1950291J-719281D01*
G01*
X157568695Y-141283553D02*
X153173732Y-140105927D01*
X158772203Y-136791998D02*
X156309092Y-136132010D01*
X154656865Y-133411689D02*
X150117013Y-132195239D01*
X152559875Y-137663836D02*
X148913505Y-136686795D01*
X158789881Y-136822617D02*
X157599313Y-141265876D01*
X150110543Y-132219388D02*
X148895827Y-136656176D01*
X154655224Y-133437132D02*
G75*
G03X156382831Y-136146591I2218533J-490926D01*
G01*
X153369487Y-139356040D02*
G75*
G03X152558581Y-137668666I-1249140J438234D01*
G01*
X153356546Y-139404336D02*
X153175373Y-140080484D01*
X139900000Y-90479000D02*
X143510000Y-90479000D01*
X139900000Y-86525000D02*
X139900000Y-90470000D01*
X150800000Y-84571000D02*
X142175000Y-84571000D01*
X150800000Y-88479000D02*
X150800000Y-84571000D01*
X150800000Y-88525000D02*
X145750000Y-88571000D01*
X139911000Y-86455000D02*
G75*
G02X142175000Y-84571000I2074000J-190000D01*
G01*
X143515000Y-90455000D02*
G75*
G02X145775000Y-88575000I2070000J-190000D01*
G01*
X148275000Y-99600000D02*
X143725000Y-99600000D01*
X148275000Y-94950000D02*
X145725000Y-94950000D01*
X143425000Y-92750000D02*
X138725000Y-92750000D01*
X142500000Y-97400000D02*
X138725000Y-97400000D01*
X148300000Y-94975000D02*
X148300000Y-99575000D01*
X138725000Y-92775000D02*
X138700000Y-97375000D01*
X143430000Y-92775000D02*
G75*
G03X145800000Y-94945000I2270000J100000D01*
G01*
X143720000Y-98825000D02*
G75*
G03X142500000Y-97405000I-1320000J100000D01*
G01*
X143720000Y-98875000D02*
X143720000Y-99575000D01*
X158900000Y-111854000D02*
X162510000Y-111854000D01*
X158900000Y-107900000D02*
X158900000Y-111845000D01*
X169800000Y-105946000D02*
X161175000Y-105946000D01*
X169800000Y-109854000D02*
X169800000Y-105946000D01*
X169800000Y-109900000D02*
X164750000Y-109946000D01*
X158911000Y-107830000D02*
G75*
G02X161175000Y-105946000I2074000J-190000D01*
G01*
X162515000Y-111830000D02*
G75*
G02X164775000Y-109950000I2070000J-190000D01*
G01*
X167275000Y-120975000D02*
X162725000Y-120975000D01*
X167275000Y-116325000D02*
X164725000Y-116325000D01*
X162425000Y-114125000D02*
X157725000Y-114125000D01*
X161500000Y-118775000D02*
X157725000Y-118775000D01*
X167300000Y-116350000D02*
X167300000Y-120950000D01*
X157725000Y-114150000D02*
X157700000Y-118750000D01*
X162430000Y-114150000D02*
G75*
G03X164800000Y-116320000I2270000J100000D01*
G01*
X162720000Y-120200000D02*
G75*
G03X161500000Y-118780000I-1320000J100000D01*
G01*
X162720000Y-120250000D02*
X162720000Y-120950000D01*
X158900000Y-92854000D02*
X162510000Y-92854000D01*
X158900000Y-88900000D02*
X158900000Y-92845000D01*
X169800000Y-86946000D02*
X161175000Y-86946000D01*
X169800000Y-90854000D02*
X169800000Y-86946000D01*
X169800000Y-90900000D02*
X164750000Y-90946000D01*
X158911000Y-88830000D02*
G75*
G02X161175000Y-86946000I2074000J-190000D01*
G01*
X162515000Y-92830000D02*
G75*
G02X164775000Y-90950000I2070000J-190000D01*
G01*
X167275000Y-101975000D02*
X162725000Y-101975000D01*
X167275000Y-97325000D02*
X164725000Y-97325000D01*
X162425000Y-95125000D02*
X157725000Y-95125000D01*
X161500000Y-99775000D02*
X157725000Y-99775000D01*
X167300000Y-97350000D02*
X167300000Y-101950000D01*
X157725000Y-95150000D02*
X157700000Y-99750000D01*
X162430000Y-95150000D02*
G75*
G03X164800000Y-97320000I2270000J100000D01*
G01*
X162720000Y-101200000D02*
G75*
G03X161500000Y-99780000I-1320000J100000D01*
G01*
X162720000Y-101250000D02*
X162720000Y-101950000D01*
X158900000Y-73854000D02*
X162510000Y-73854000D01*
X158900000Y-69900000D02*
X158900000Y-73845000D01*
X169800000Y-67946000D02*
X161175000Y-67946000D01*
X169800000Y-71854000D02*
X169800000Y-67946000D01*
X169800000Y-71900000D02*
X164750000Y-71946000D01*
X158911000Y-69830000D02*
G75*
G02X161175000Y-67946000I2074000J-190000D01*
G01*
X162515000Y-73830000D02*
G75*
G02X164775000Y-71950000I2070000J-190000D01*
G01*
X167275000Y-82975000D02*
X162725000Y-82975000D01*
X167275000Y-78325000D02*
X164725000Y-78325000D01*
X162425000Y-76125000D02*
X157725000Y-76125000D01*
X161500000Y-80775000D02*
X157725000Y-80775000D01*
X167300000Y-78350000D02*
X167300000Y-82950000D01*
X157725000Y-76150000D02*
X157700000Y-80750000D01*
X162430000Y-76150000D02*
G75*
G03X164800000Y-78320000I2270000J100000D01*
G01*
X162720000Y-82200000D02*
G75*
G03X161500000Y-80780000I-1320000J100000D01*
G01*
X162720000Y-82250000D02*
X162720000Y-82950000D01*
X101900000Y-109479000D02*
X105510000Y-109479000D01*
X101900000Y-105525000D02*
X101900000Y-109470000D01*
X112800000Y-103571000D02*
X104175000Y-103571000D01*
X112800000Y-107479000D02*
X112800000Y-103571000D01*
X112800000Y-107525000D02*
X107750000Y-107571000D01*
X101911000Y-105455000D02*
G75*
G02X104175000Y-103571000I2074000J-190000D01*
G01*
X105515000Y-109455000D02*
G75*
G02X107775000Y-107575000I2070000J-190000D01*
G01*
X110275000Y-118600000D02*
X105725000Y-118600000D01*
X110275000Y-113950000D02*
X107725000Y-113950000D01*
X105425000Y-111750000D02*
X100725000Y-111750000D01*
X104500000Y-116400000D02*
X100725000Y-116400000D01*
X110300000Y-113975000D02*
X110300000Y-118575000D01*
X100725000Y-111775000D02*
X100700000Y-116375000D01*
X105430000Y-111775000D02*
G75*
G03X107800000Y-113945000I2270000J100000D01*
G01*
X105720000Y-117825000D02*
G75*
G03X104500000Y-116405000I-1320000J100000D01*
G01*
X105720000Y-117875000D02*
X105720000Y-118575000D01*
X120900000Y-88104000D02*
X124510000Y-88104000D01*
X120900000Y-84150000D02*
X120900000Y-88095000D01*
X131800000Y-82196000D02*
X123175000Y-82196000D01*
X131800000Y-86104000D02*
X131800000Y-82196000D01*
X131800000Y-86150000D02*
X126750000Y-86196000D01*
X120911000Y-84080000D02*
G75*
G02X123175000Y-82196000I2074000J-190000D01*
G01*
X124515000Y-88080000D02*
G75*
G02X126775000Y-86200000I2070000J-190000D01*
G01*
X129275000Y-97225000D02*
X124725000Y-97225000D01*
X129275000Y-92575000D02*
X126725000Y-92575000D01*
X124425000Y-90375000D02*
X119725000Y-90375000D01*
X123500000Y-95025000D02*
X119725000Y-95025000D01*
X129300000Y-92600000D02*
X129300000Y-97200000D01*
X119725000Y-90400000D02*
X119700000Y-95000000D01*
X124430000Y-90400000D02*
G75*
G03X126800000Y-92570000I2270000J100000D01*
G01*
X124720000Y-96450000D02*
G75*
G03X123500000Y-95030000I-1320000J100000D01*
G01*
X124720000Y-96500000D02*
X124720000Y-97200000D01*
X101900000Y-71479000D02*
X105510000Y-71479000D01*
X101900000Y-67525000D02*
X101900000Y-71470000D01*
X112800000Y-65571000D02*
X104175000Y-65571000D01*
X112800000Y-69479000D02*
X112800000Y-65571000D01*
X112800000Y-69525000D02*
X107750000Y-69571000D01*
X101911000Y-67455000D02*
G75*
G02X104175000Y-65571000I2074000J-190000D01*
G01*
X105515000Y-71455000D02*
G75*
G02X107775000Y-69575000I2070000J-190000D01*
G01*
X110275000Y-80600000D02*
X105725000Y-80600000D01*
X110275000Y-75950000D02*
X107725000Y-75950000D01*
X105425000Y-73750000D02*
X100725000Y-73750000D01*
X104500000Y-78400000D02*
X100725000Y-78400000D01*
X110300000Y-75975000D02*
X110300000Y-80575000D01*
X100725000Y-73775000D02*
X100700000Y-78375000D01*
X105430000Y-73775000D02*
G75*
G03X107800000Y-75945000I2270000J100000D01*
G01*
X105720000Y-79825000D02*
G75*
G03X104500000Y-78405000I-1320000J100000D01*
G01*
X105720000Y-79875000D02*
X105720000Y-80575000D01*
X82900000Y-114229000D02*
X86510000Y-114229000D01*
X82900000Y-110275000D02*
X82900000Y-114220000D01*
X93800000Y-108321000D02*
X85175000Y-108321000D01*
X93800000Y-112229000D02*
X93800000Y-108321000D01*
X93800000Y-112275000D02*
X88750000Y-112321000D01*
X82911000Y-110205000D02*
G75*
G02X85175000Y-108321000I2074000J-190000D01*
G01*
X86515000Y-114205000D02*
G75*
G02X88775000Y-112325000I2070000J-190000D01*
G01*
X91275000Y-123350000D02*
X86725000Y-123350000D01*
X91275000Y-118700000D02*
X88725000Y-118700000D01*
X86425000Y-116500000D02*
X81725000Y-116500000D01*
X85500000Y-121150000D02*
X81725000Y-121150000D01*
X91300000Y-118725000D02*
X91300000Y-123325000D01*
X81725000Y-116525000D02*
X81700000Y-121125000D01*
X86430000Y-116525000D02*
G75*
G03X88800000Y-118695000I2270000J100000D01*
G01*
X86720000Y-122575000D02*
G75*
G03X85500000Y-121155000I-1320000J100000D01*
G01*
X86720000Y-122625000D02*
X86720000Y-123325000D01*
X82900000Y-76229000D02*
X86510000Y-76229000D01*
X82900000Y-72275000D02*
X82900000Y-76220000D01*
X93800000Y-70321000D02*
X85175000Y-70321000D01*
X93800000Y-74229000D02*
X93800000Y-70321000D01*
X93800000Y-74275000D02*
X88750000Y-74321000D01*
X82911000Y-72205000D02*
G75*
G02X85175000Y-70321000I2074000J-190000D01*
G01*
X86515000Y-76205000D02*
G75*
G02X88775000Y-74325000I2070000J-190000D01*
G01*
X91275000Y-85350000D02*
X86725000Y-85350000D01*
X91275000Y-80700000D02*
X88725000Y-80700000D01*
X86425000Y-78500000D02*
X81725000Y-78500000D01*
X85500000Y-83150000D02*
X81725000Y-83150000D01*
X91300000Y-80725000D02*
X91300000Y-85325000D01*
X81725000Y-78525000D02*
X81700000Y-83125000D01*
X86430000Y-78525000D02*
G75*
G03X88800000Y-80695000I2270000J100000D01*
G01*
X86720000Y-84575000D02*
G75*
G03X85500000Y-83155000I-1320000J100000D01*
G01*
X86720000Y-84625000D02*
X86720000Y-85325000D01*
X139900000Y-109479000D02*
X143510000Y-109479000D01*
X139900000Y-105525000D02*
X139900000Y-109470000D01*
X150800000Y-103571000D02*
X142175000Y-103571000D01*
X150800000Y-107479000D02*
X150800000Y-103571000D01*
X150800000Y-107525000D02*
X145750000Y-107571000D01*
X139911000Y-105455000D02*
G75*
G02X142175000Y-103571000I2074000J-190000D01*
G01*
X143515000Y-109455000D02*
G75*
G02X145775000Y-107575000I2070000J-190000D01*
G01*
X148275000Y-118600000D02*
X143725000Y-118600000D01*
X148275000Y-113950000D02*
X145725000Y-113950000D01*
X143425000Y-111750000D02*
X138725000Y-111750000D01*
X142500000Y-116400000D02*
X138725000Y-116400000D01*
X148300000Y-113975000D02*
X148300000Y-118575000D01*
X138725000Y-111775000D02*
X138700000Y-116375000D01*
X143430000Y-111775000D02*
G75*
G03X145800000Y-113945000I2270000J100000D01*
G01*
X143720000Y-117825000D02*
G75*
G03X142500000Y-116405000I-1320000J100000D01*
G01*
X143720000Y-117875000D02*
X143720000Y-118575000D01*
X120900000Y-107104000D02*
X124510000Y-107104000D01*
X120900000Y-103150000D02*
X120900000Y-107095000D01*
X131800000Y-101196000D02*
X123175000Y-101196000D01*
X131800000Y-105104000D02*
X131800000Y-101196000D01*
X131800000Y-105150000D02*
X126750000Y-105196000D01*
X120911000Y-103080000D02*
G75*
G02X123175000Y-101196000I2074000J-190000D01*
G01*
X124515000Y-107080000D02*
G75*
G02X126775000Y-105200000I2070000J-190000D01*
G01*
X129275000Y-116225000D02*
X124725000Y-116225000D01*
X129275000Y-111575000D02*
X126725000Y-111575000D01*
X124425000Y-109375000D02*
X119725000Y-109375000D01*
X123500000Y-114025000D02*
X119725000Y-114025000D01*
X129300000Y-111600000D02*
X129300000Y-116200000D01*
X119725000Y-109400000D02*
X119700000Y-114000000D01*
X124430000Y-109400000D02*
G75*
G03X126800000Y-111570000I2270000J100000D01*
G01*
X124720000Y-115450000D02*
G75*
G03X123500000Y-114030000I-1320000J100000D01*
G01*
X124720000Y-115500000D02*
X124720000Y-116200000D01*
X130400000Y-129104000D02*
X134010000Y-129104000D01*
X130400000Y-125150000D02*
X130400000Y-129095000D01*
X141300000Y-123196000D02*
X132675000Y-123196000D01*
X141300000Y-127104000D02*
X141300000Y-123196000D01*
X141300000Y-127150000D02*
X136250000Y-127196000D01*
X130411000Y-125080000D02*
G75*
G02X132675000Y-123196000I2074000J-190000D01*
G01*
X134015000Y-129080000D02*
G75*
G02X136275000Y-127200000I2070000J-190000D01*
G01*
X138775000Y-138225000D02*
X134225000Y-138225000D01*
X138775000Y-133575000D02*
X136225000Y-133575000D01*
X133925000Y-131375000D02*
X129225000Y-131375000D01*
X133000000Y-136025000D02*
X129225000Y-136025000D01*
X138800000Y-133600000D02*
X138800000Y-138200000D01*
X129225000Y-131400000D02*
X129200000Y-136000000D01*
X133930000Y-131400000D02*
G75*
G03X136300000Y-133570000I2270000J100000D01*
G01*
X134220000Y-137450000D02*
G75*
G03X133000000Y-136030000I-1320000J100000D01*
G01*
X134220000Y-137500000D02*
X134220000Y-138200000D01*
X63900000Y-114229000D02*
X67510000Y-114229000D01*
X63900000Y-110275000D02*
X63900000Y-114220000D01*
X74800000Y-108321000D02*
X66175000Y-108321000D01*
X74800000Y-112229000D02*
X74800000Y-108321000D01*
X74800000Y-112275000D02*
X69750000Y-112321000D01*
X63911000Y-110205000D02*
G75*
G02X66175000Y-108321000I2074000J-190000D01*
G01*
X67515000Y-114205000D02*
G75*
G02X69775000Y-112325000I2070000J-190000D01*
G01*
X72275000Y-123350000D02*
X67725000Y-123350000D01*
X72275000Y-118700000D02*
X69725000Y-118700000D01*
X67425000Y-116500000D02*
X62725000Y-116500000D01*
X66500000Y-121150000D02*
X62725000Y-121150000D01*
X72300000Y-118725000D02*
X72300000Y-123325000D01*
X62725000Y-116525000D02*
X62700000Y-121125000D01*
X67430000Y-116525000D02*
G75*
G03X69800000Y-118695000I2270000J100000D01*
G01*
X67720000Y-122575000D02*
G75*
G03X66500000Y-121155000I-1320000J100000D01*
G01*
X67720000Y-122625000D02*
X67720000Y-123325000D01*
X101900000Y-90479000D02*
X105510000Y-90479000D01*
X101900000Y-86525000D02*
X101900000Y-90470000D01*
X112800000Y-84571000D02*
X104175000Y-84571000D01*
X112800000Y-88479000D02*
X112800000Y-84571000D01*
X112800000Y-88525000D02*
X107750000Y-88571000D01*
X101911000Y-86455000D02*
G75*
G02X104175000Y-84571000I2074000J-190000D01*
G01*
X105515000Y-90455000D02*
G75*
G02X107775000Y-88575000I2070000J-190000D01*
G01*
X110275000Y-99600000D02*
X105725000Y-99600000D01*
X110275000Y-94950000D02*
X107725000Y-94950000D01*
X105425000Y-92750000D02*
X100725000Y-92750000D01*
X104500000Y-97400000D02*
X100725000Y-97400000D01*
X110300000Y-94975000D02*
X110300000Y-99575000D01*
X100725000Y-92775000D02*
X100700000Y-97375000D01*
X105430000Y-92775000D02*
G75*
G03X107800000Y-94945000I2270000J100000D01*
G01*
X105720000Y-98825000D02*
G75*
G03X104500000Y-97405000I-1320000J100000D01*
G01*
X105720000Y-98875000D02*
X105720000Y-99575000D01*
X82900000Y-95229000D02*
X86510000Y-95229000D01*
X82900000Y-91275000D02*
X82900000Y-95220000D01*
X93800000Y-89321000D02*
X85175000Y-89321000D01*
X93800000Y-93229000D02*
X93800000Y-89321000D01*
X93800000Y-93275000D02*
X88750000Y-93321000D01*
X82911000Y-91205000D02*
G75*
G02X85175000Y-89321000I2074000J-190000D01*
G01*
X86515000Y-95205000D02*
G75*
G02X88775000Y-93325000I2070000J-190000D01*
G01*
X91275000Y-104350000D02*
X86725000Y-104350000D01*
X91275000Y-99700000D02*
X88725000Y-99700000D01*
X86425000Y-97500000D02*
X81725000Y-97500000D01*
X85500000Y-102150000D02*
X81725000Y-102150000D01*
X91300000Y-99725000D02*
X91300000Y-104325000D01*
X81725000Y-97525000D02*
X81700000Y-102125000D01*
X86430000Y-97525000D02*
G75*
G03X88800000Y-99695000I2270000J100000D01*
G01*
X86720000Y-103575000D02*
G75*
G03X85500000Y-102155000I-1320000J100000D01*
G01*
X86720000Y-103625000D02*
X86720000Y-104325000D01*
X63900000Y-95229000D02*
X67510000Y-95229000D01*
X63900000Y-91275000D02*
X63900000Y-95220000D01*
X74800000Y-89321000D02*
X66175000Y-89321000D01*
X74800000Y-93229000D02*
X74800000Y-89321000D01*
X74800000Y-93275000D02*
X69750000Y-93321000D01*
X63911000Y-91205000D02*
G75*
G02X66175000Y-89321000I2074000J-190000D01*
G01*
X67515000Y-95205000D02*
G75*
G02X69775000Y-93325000I2070000J-190000D01*
G01*
X72275000Y-104350000D02*
X67725000Y-104350000D01*
X72275000Y-99700000D02*
X69725000Y-99700000D01*
X67425000Y-97500000D02*
X62725000Y-97500000D01*
X66500000Y-102150000D02*
X62725000Y-102150000D01*
X72300000Y-99725000D02*
X72300000Y-104325000D01*
X62725000Y-97525000D02*
X62700000Y-102125000D01*
X67430000Y-97525000D02*
G75*
G03X69800000Y-99695000I2270000J100000D01*
G01*
X67720000Y-103575000D02*
G75*
G03X66500000Y-102155000I-1320000J100000D01*
G01*
X67720000Y-103625000D02*
X67720000Y-104325000D01*
X182700000Y-111950000D02*
X194700000Y-111950000D01*
X182700000Y-117950000D02*
X182700000Y-111950000D01*
X194700000Y-117950000D02*
X182700000Y-117950000D01*
X194700000Y-111950000D02*
X194700000Y-117950000D01*
X175590000Y-102252000D02*
X175590000Y-71772000D01*
X178130000Y-102252000D02*
X175590000Y-102252000D01*
X178130000Y-71772000D02*
X178130000Y-102252000D01*
X175590000Y-71772000D02*
X178130000Y-71772000D01*
X190830000Y-102252000D02*
X190830000Y-71772000D01*
X193370000Y-102252000D02*
X190830000Y-102252000D01*
X193370000Y-71772000D02*
X193370000Y-102252000D01*
X190830000Y-71772000D02*
X193370000Y-71772000D01*
X188500000Y-109000000D02*
X185500000Y-109000000D01*
X185500000Y-109000000D02*
X185500000Y-107000000D01*
X185500000Y-107000000D02*
X188500000Y-107000000D01*
X188500000Y-107000000D02*
X188500000Y-109000000D01*
X188500000Y-111300000D02*
X185500000Y-111300000D01*
X185500000Y-111300000D02*
X185500000Y-109300000D01*
X185500000Y-109300000D02*
X188500000Y-109300000D01*
X188500000Y-109300000D02*
X188500000Y-111300000D01*
X187986000Y-100107000D02*
X187986000Y-102393000D01*
X187986000Y-102393000D02*
X189764000Y-102393000D01*
X189764000Y-102393000D02*
X189764000Y-100107000D01*
X189764000Y-100107000D02*
X187986000Y-100107000D01*
X185486000Y-100107000D02*
X185486000Y-102393000D01*
X185486000Y-102393000D02*
X187264000Y-102393000D01*
X187264000Y-102393000D02*
X187264000Y-100107000D01*
X187264000Y-100107000D02*
X185486000Y-100107000D01*
X182986000Y-100107000D02*
X182986000Y-102393000D01*
X182986000Y-102393000D02*
X184764000Y-102393000D01*
X184764000Y-102393000D02*
X184764000Y-100107000D01*
X184764000Y-100107000D02*
X182986000Y-100107000D01*
X180486000Y-100107000D02*
X180486000Y-102393000D01*
X180486000Y-102393000D02*
X182264000Y-102393000D01*
X182264000Y-102393000D02*
X182264000Y-100107000D01*
X182264000Y-100107000D02*
X180486000Y-100107000D01*
X180030000Y-104030000D02*
X190190000Y-104030000D01*
X190190000Y-104030000D02*
X190190000Y-106570000D01*
X190190000Y-106570000D02*
X180030000Y-106570000D01*
X180030000Y-106570000D02*
X180030000Y-104030000D01*
X180000000Y-107000000D02*
X182000000Y-107000000D01*
X182000000Y-107000000D02*
X182000000Y-109000000D01*
X182000000Y-109000000D02*
X180000000Y-109000000D01*
X180000000Y-109000000D02*
X180000000Y-107000000D01*
X180000000Y-109300000D02*
X182000000Y-109300000D01*
X182000000Y-109300000D02*
X182000000Y-111300000D01*
X182000000Y-111300000D02*
X180000000Y-111300000D01*
X180000000Y-111300000D02*
X180000000Y-109300000D01*
X194400000Y-104000000D02*
X194650000Y-104000000D01*
X194650000Y-104000000D02*
X194650000Y-110000000D01*
X194650000Y-110000000D02*
X194400000Y-110000000D01*
X191400000Y-110000000D02*
X191150000Y-110000000D01*
X191150000Y-110000000D02*
X191150000Y-104000000D01*
X191150000Y-104000000D02*
X191400000Y-104000000D01*
X187738880Y-114112595D02*
X187738880Y-114684023D01*
X188738880Y-114398309D02*
X187738880Y-114398309D01*
X188738880Y-115588785D02*
X188262690Y-115255452D01*
X188738880Y-115017357D02*
X187738880Y-115017357D01*
X187738880Y-115398309D01*
X187786500Y-115493547D01*
X187834119Y-115541166D01*
X187929357Y-115588785D01*
X188072214Y-115588785D01*
X188167452Y-115541166D01*
X188215071Y-115493547D01*
X188262690Y-115398309D01*
X188262690Y-115017357D01*
X188738880Y-116588785D02*
X188262690Y-116255452D01*
X188738880Y-116017357D02*
X187738880Y-116017357D01*
X187738880Y-116398309D01*
X187786500Y-116493547D01*
X187834119Y-116541166D01*
X187929357Y-116588785D01*
X188072214Y-116588785D01*
X188167452Y-116541166D01*
X188215071Y-116493547D01*
X188262690Y-116398309D01*
X188262690Y-116017357D01*
X188691261Y-116969738D02*
X188738880Y-117112595D01*
X188738880Y-117350690D01*
X188691261Y-117445928D01*
X188643642Y-117493547D01*
X188548404Y-117541166D01*
X188453166Y-117541166D01*
X188357928Y-117493547D01*
X188310309Y-117445928D01*
X188262690Y-117350690D01*
X188215071Y-117160214D01*
X188167452Y-117064976D01*
X188119833Y-117017357D01*
X188024595Y-116969738D01*
X187929357Y-116969738D01*
X187834119Y-117017357D01*
X187786500Y-117064976D01*
X187738880Y-117160214D01*
X187738880Y-117398309D01*
X187786500Y-117541166D01*
D11*
X175080952Y-91224785D02*
X175247619Y-90867642D01*
X175366666Y-91224785D02*
X175366666Y-90474785D01*
X175176190Y-90474785D01*
X175128571Y-90510500D01*
X175104761Y-90546214D01*
X175080952Y-90617642D01*
X175080952Y-90724785D01*
X175104761Y-90796214D01*
X175128571Y-90831928D01*
X175176190Y-90867642D01*
X175366666Y-90867642D01*
X174771428Y-90474785D02*
X174676190Y-90474785D01*
X174628571Y-90510500D01*
X174580952Y-90581928D01*
X174557142Y-90724785D01*
X174557142Y-90974785D01*
X174580952Y-91117642D01*
X174628571Y-91189071D01*
X174676190Y-91224785D01*
X174771428Y-91224785D01*
X174819047Y-91189071D01*
X174866666Y-91117642D01*
X174890476Y-90974785D01*
X174890476Y-90724785D01*
X174866666Y-90581928D01*
X174819047Y-90510500D01*
X174771428Y-90474785D01*
X174390476Y-90474785D02*
X174271428Y-91224785D01*
X174176190Y-90689071D01*
X174080952Y-91224785D01*
X173961904Y-90474785D01*
X173509523Y-91224785D02*
X173795238Y-91224785D01*
X173652380Y-91224785D02*
X173652380Y-90474785D01*
X173700000Y-90581928D01*
X173747619Y-90653357D01*
X173795238Y-90689071D01*
X190247619Y-93629857D02*
X190271428Y-93665571D01*
X190342857Y-93701285D01*
X190390476Y-93701285D01*
X190461904Y-93665571D01*
X190509523Y-93594142D01*
X190533333Y-93522714D01*
X190557142Y-93379857D01*
X190557142Y-93272714D01*
X190533333Y-93129857D01*
X190509523Y-93058428D01*
X190461904Y-92987000D01*
X190390476Y-92951285D01*
X190342857Y-92951285D01*
X190271428Y-92987000D01*
X190247619Y-93022714D01*
X189938095Y-92951285D02*
X189842857Y-92951285D01*
X189795238Y-92987000D01*
X189747619Y-93058428D01*
X189723809Y-93201285D01*
X189723809Y-93451285D01*
X189747619Y-93594142D01*
X189795238Y-93665571D01*
X189842857Y-93701285D01*
X189938095Y-93701285D01*
X189985714Y-93665571D01*
X190033333Y-93594142D01*
X190057142Y-93451285D01*
X190057142Y-93201285D01*
X190033333Y-93058428D01*
X189985714Y-92987000D01*
X189938095Y-92951285D01*
X189271428Y-93701285D02*
X189509523Y-93701285D01*
X189509523Y-92951285D01*
X188890476Y-93201285D02*
X188890476Y-93701285D01*
X189009523Y-92915571D02*
X189128571Y-93451285D01*
X188819047Y-93451285D01*
X175080952Y-93828285D02*
X175247619Y-93471142D01*
X175366666Y-93828285D02*
X175366666Y-93078285D01*
X175176190Y-93078285D01*
X175128571Y-93114000D01*
X175104761Y-93149714D01*
X175080952Y-93221142D01*
X175080952Y-93328285D01*
X175104761Y-93399714D01*
X175128571Y-93435428D01*
X175176190Y-93471142D01*
X175366666Y-93471142D01*
X174771428Y-93078285D02*
X174676190Y-93078285D01*
X174628571Y-93114000D01*
X174580952Y-93185428D01*
X174557142Y-93328285D01*
X174557142Y-93578285D01*
X174580952Y-93721142D01*
X174628571Y-93792571D01*
X174676190Y-93828285D01*
X174771428Y-93828285D01*
X174819047Y-93792571D01*
X174866666Y-93721142D01*
X174890476Y-93578285D01*
X174890476Y-93328285D01*
X174866666Y-93185428D01*
X174819047Y-93114000D01*
X174771428Y-93078285D01*
X174390476Y-93078285D02*
X174271428Y-93828285D01*
X174176190Y-93292571D01*
X174080952Y-93828285D01*
X173961904Y-93078285D01*
X173795238Y-93149714D02*
X173771428Y-93114000D01*
X173723809Y-93078285D01*
X173604761Y-93078285D01*
X173557142Y-93114000D01*
X173533333Y-93149714D01*
X173509523Y-93221142D01*
X173509523Y-93292571D01*
X173533333Y-93399714D01*
X173819047Y-93828285D01*
X173509523Y-93828285D01*
X190297619Y-96267857D02*
X190321428Y-96303571D01*
X190392857Y-96339285D01*
X190440476Y-96339285D01*
X190511904Y-96303571D01*
X190559523Y-96232142D01*
X190583333Y-96160714D01*
X190607142Y-96017857D01*
X190607142Y-95910714D01*
X190583333Y-95767857D01*
X190559523Y-95696428D01*
X190511904Y-95625000D01*
X190440476Y-95589285D01*
X190392857Y-95589285D01*
X190321428Y-95625000D01*
X190297619Y-95660714D01*
X189988095Y-95589285D02*
X189892857Y-95589285D01*
X189845238Y-95625000D01*
X189797619Y-95696428D01*
X189773809Y-95839285D01*
X189773809Y-96089285D01*
X189797619Y-96232142D01*
X189845238Y-96303571D01*
X189892857Y-96339285D01*
X189988095Y-96339285D01*
X190035714Y-96303571D01*
X190083333Y-96232142D01*
X190107142Y-96089285D01*
X190107142Y-95839285D01*
X190083333Y-95696428D01*
X190035714Y-95625000D01*
X189988095Y-95589285D01*
X189321428Y-96339285D02*
X189559523Y-96339285D01*
X189559523Y-95589285D01*
X188916666Y-95589285D02*
X189154761Y-95589285D01*
X189178571Y-95946428D01*
X189154761Y-95910714D01*
X189107142Y-95875000D01*
X188988095Y-95875000D01*
X188940476Y-95910714D01*
X188916666Y-95946428D01*
X188892857Y-96017857D01*
X188892857Y-96196428D01*
X188916666Y-96267857D01*
X188940476Y-96303571D01*
X188988095Y-96339285D01*
X189107142Y-96339285D01*
X189154761Y-96303571D01*
X189178571Y-96267857D01*
X175080952Y-96339285D02*
X175247619Y-95982142D01*
X175366666Y-96339285D02*
X175366666Y-95589285D01*
X175176190Y-95589285D01*
X175128571Y-95625000D01*
X175104761Y-95660714D01*
X175080952Y-95732142D01*
X175080952Y-95839285D01*
X175104761Y-95910714D01*
X175128571Y-95946428D01*
X175176190Y-95982142D01*
X175366666Y-95982142D01*
X174771428Y-95589285D02*
X174676190Y-95589285D01*
X174628571Y-95625000D01*
X174580952Y-95696428D01*
X174557142Y-95839285D01*
X174557142Y-96089285D01*
X174580952Y-96232142D01*
X174628571Y-96303571D01*
X174676190Y-96339285D01*
X174771428Y-96339285D01*
X174819047Y-96303571D01*
X174866666Y-96232142D01*
X174890476Y-96089285D01*
X174890476Y-95839285D01*
X174866666Y-95696428D01*
X174819047Y-95625000D01*
X174771428Y-95589285D01*
X174390476Y-95589285D02*
X174271428Y-96339285D01*
X174176190Y-95803571D01*
X174080952Y-96339285D01*
X173961904Y-95589285D01*
X173819047Y-95589285D02*
X173509523Y-95589285D01*
X173676190Y-95875000D01*
X173604761Y-95875000D01*
X173557142Y-95910714D01*
X173533333Y-95946428D01*
X173509523Y-96017857D01*
X173509523Y-96196428D01*
X173533333Y-96267857D01*
X173557142Y-96303571D01*
X173604761Y-96339285D01*
X173747619Y-96339285D01*
X173795238Y-96303571D01*
X173819047Y-96267857D01*
X190460880Y-98324928D02*
X190389452Y-98360642D01*
X190365642Y-98396357D01*
X190341833Y-98467785D01*
X190341833Y-98574928D01*
X190365642Y-98646357D01*
X190389452Y-98682071D01*
X190437071Y-98717785D01*
X190627547Y-98717785D01*
X190627547Y-97967785D01*
X190460880Y-97967785D01*
X190413261Y-98003500D01*
X190389452Y-98039214D01*
X190365642Y-98110642D01*
X190365642Y-98182071D01*
X190389452Y-98253500D01*
X190413261Y-98289214D01*
X190460880Y-98324928D01*
X190627547Y-98324928D01*
X190151357Y-98039214D02*
X190127547Y-98003500D01*
X190079928Y-97967785D01*
X189960880Y-97967785D01*
X189913261Y-98003500D01*
X189889452Y-98039214D01*
X189865642Y-98110642D01*
X189865642Y-98182071D01*
X189889452Y-98289214D01*
X190175166Y-98717785D01*
X189865642Y-98717785D01*
X175331952Y-98844785D02*
X175498619Y-98487642D01*
X175617666Y-98844785D02*
X175617666Y-98094785D01*
X175427190Y-98094785D01*
X175379571Y-98130500D01*
X175355761Y-98166214D01*
X175331952Y-98237642D01*
X175331952Y-98344785D01*
X175355761Y-98416214D01*
X175379571Y-98451928D01*
X175427190Y-98487642D01*
X175617666Y-98487642D01*
X175022428Y-98094785D02*
X174927190Y-98094785D01*
X174879571Y-98130500D01*
X174831952Y-98201928D01*
X174808142Y-98344785D01*
X174808142Y-98594785D01*
X174831952Y-98737642D01*
X174879571Y-98809071D01*
X174927190Y-98844785D01*
X175022428Y-98844785D01*
X175070047Y-98809071D01*
X175117666Y-98737642D01*
X175141476Y-98594785D01*
X175141476Y-98344785D01*
X175117666Y-98201928D01*
X175070047Y-98130500D01*
X175022428Y-98094785D01*
X174641476Y-98094785D02*
X174522428Y-98844785D01*
X174427190Y-98309071D01*
X174331952Y-98844785D01*
X174212904Y-98094785D01*
X173808142Y-98344785D02*
X173808142Y-98844785D01*
X173927190Y-98059071D02*
X174046238Y-98594785D01*
X173736714Y-98594785D01*
X174903380Y-100991928D02*
X174831952Y-101027642D01*
X174808142Y-101063357D01*
X174784333Y-101134785D01*
X174784333Y-101241928D01*
X174808142Y-101313357D01*
X174831952Y-101349071D01*
X174879571Y-101384785D01*
X175070047Y-101384785D01*
X175070047Y-100634785D01*
X174903380Y-100634785D01*
X174855761Y-100670500D01*
X174831952Y-100706214D01*
X174808142Y-100777642D01*
X174808142Y-100849071D01*
X174831952Y-100920500D01*
X174855761Y-100956214D01*
X174903380Y-100991928D01*
X175070047Y-100991928D01*
X174331952Y-100634785D02*
X174570047Y-100634785D01*
X174593857Y-100991928D01*
X174570047Y-100956214D01*
X174522428Y-100920500D01*
X174403380Y-100920500D01*
X174355761Y-100956214D01*
X174331952Y-100991928D01*
X174308142Y-101063357D01*
X174308142Y-101241928D01*
X174331952Y-101313357D01*
X174355761Y-101349071D01*
X174403380Y-101384785D01*
X174522428Y-101384785D01*
X174570047Y-101349071D01*
X174593857Y-101313357D01*
X190397380Y-100928428D02*
X190325952Y-100964142D01*
X190302142Y-100999857D01*
X190278333Y-101071285D01*
X190278333Y-101178428D01*
X190302142Y-101249857D01*
X190325952Y-101285571D01*
X190373571Y-101321285D01*
X190564047Y-101321285D01*
X190564047Y-100571285D01*
X190397380Y-100571285D01*
X190349761Y-100607000D01*
X190325952Y-100642714D01*
X190302142Y-100714142D01*
X190302142Y-100785571D01*
X190325952Y-100857000D01*
X190349761Y-100892714D01*
X190397380Y-100928428D01*
X190564047Y-100928428D01*
X189849761Y-100571285D02*
X189945000Y-100571285D01*
X189992619Y-100607000D01*
X190016428Y-100642714D01*
X190064047Y-100749857D01*
X190087857Y-100892714D01*
X190087857Y-101178428D01*
X190064047Y-101249857D01*
X190040238Y-101285571D01*
X189992619Y-101321285D01*
X189897380Y-101321285D01*
X189849761Y-101285571D01*
X189825952Y-101249857D01*
X189802142Y-101178428D01*
X189802142Y-100999857D01*
X189825952Y-100928428D01*
X189849761Y-100892714D01*
X189897380Y-100857000D01*
X189992619Y-100857000D01*
X190040238Y-100892714D01*
X190064047Y-100928428D01*
X190087857Y-100999857D01*
X190297619Y-83567857D02*
X190321428Y-83603571D01*
X190392857Y-83639285D01*
X190440476Y-83639285D01*
X190511904Y-83603571D01*
X190559523Y-83532142D01*
X190583333Y-83460714D01*
X190607142Y-83317857D01*
X190607142Y-83210714D01*
X190583333Y-83067857D01*
X190559523Y-82996428D01*
X190511904Y-82925000D01*
X190440476Y-82889285D01*
X190392857Y-82889285D01*
X190321428Y-82925000D01*
X190297619Y-82960714D01*
X189988095Y-82889285D02*
X189892857Y-82889285D01*
X189845238Y-82925000D01*
X189797619Y-82996428D01*
X189773809Y-83139285D01*
X189773809Y-83389285D01*
X189797619Y-83532142D01*
X189845238Y-83603571D01*
X189892857Y-83639285D01*
X189988095Y-83639285D01*
X190035714Y-83603571D01*
X190083333Y-83532142D01*
X190107142Y-83389285D01*
X190107142Y-83139285D01*
X190083333Y-82996428D01*
X190035714Y-82925000D01*
X189988095Y-82889285D01*
X189321428Y-83639285D02*
X189559523Y-83639285D01*
X189559523Y-82889285D01*
X189059523Y-82889285D02*
X189011904Y-82889285D01*
X188964285Y-82925000D01*
X188940476Y-82960714D01*
X188916666Y-83032142D01*
X188892857Y-83175000D01*
X188892857Y-83353571D01*
X188916666Y-83496428D01*
X188940476Y-83567857D01*
X188964285Y-83603571D01*
X189011904Y-83639285D01*
X189059523Y-83639285D01*
X189107142Y-83603571D01*
X189130952Y-83567857D01*
X189154761Y-83496428D01*
X189178571Y-83353571D01*
X189178571Y-83175000D01*
X189154761Y-83032142D01*
X189130952Y-82960714D01*
X189107142Y-82925000D01*
X189059523Y-82889285D01*
X175308142Y-83569071D02*
X175236714Y-83604785D01*
X175117666Y-83604785D01*
X175070047Y-83569071D01*
X175046238Y-83533357D01*
X175022428Y-83461928D01*
X175022428Y-83390500D01*
X175046238Y-83319071D01*
X175070047Y-83283357D01*
X175117666Y-83247642D01*
X175212904Y-83211928D01*
X175260523Y-83176214D01*
X175284333Y-83140500D01*
X175308142Y-83069071D01*
X175308142Y-82997642D01*
X175284333Y-82926214D01*
X175260523Y-82890500D01*
X175212904Y-82854785D01*
X175093857Y-82854785D01*
X175022428Y-82890500D01*
X174808142Y-83604785D02*
X174808142Y-82854785D01*
X174689095Y-82854785D01*
X174617666Y-82890500D01*
X174570047Y-82961928D01*
X174546238Y-83033357D01*
X174522428Y-83176214D01*
X174522428Y-83283357D01*
X174546238Y-83426214D01*
X174570047Y-83497642D01*
X174617666Y-83569071D01*
X174689095Y-83604785D01*
X174808142Y-83604785D01*
X174331952Y-83390500D02*
X174093857Y-83390500D01*
X174379571Y-83604785D02*
X174212904Y-82854785D01*
X174046238Y-83604785D01*
X190297619Y-86073357D02*
X190321428Y-86109071D01*
X190392857Y-86144785D01*
X190440476Y-86144785D01*
X190511904Y-86109071D01*
X190559523Y-86037642D01*
X190583333Y-85966214D01*
X190607142Y-85823357D01*
X190607142Y-85716214D01*
X190583333Y-85573357D01*
X190559523Y-85501928D01*
X190511904Y-85430500D01*
X190440476Y-85394785D01*
X190392857Y-85394785D01*
X190321428Y-85430500D01*
X190297619Y-85466214D01*
X189988095Y-85394785D02*
X189892857Y-85394785D01*
X189845238Y-85430500D01*
X189797619Y-85501928D01*
X189773809Y-85644785D01*
X189773809Y-85894785D01*
X189797619Y-86037642D01*
X189845238Y-86109071D01*
X189892857Y-86144785D01*
X189988095Y-86144785D01*
X190035714Y-86109071D01*
X190083333Y-86037642D01*
X190107142Y-85894785D01*
X190107142Y-85644785D01*
X190083333Y-85501928D01*
X190035714Y-85430500D01*
X189988095Y-85394785D01*
X189321428Y-86144785D02*
X189559523Y-86144785D01*
X189559523Y-85394785D01*
X188892857Y-86144785D02*
X189178571Y-86144785D01*
X189035714Y-86144785D02*
X189035714Y-85394785D01*
X189083333Y-85501928D01*
X189130952Y-85573357D01*
X189178571Y-85609071D01*
X175296238Y-86109071D02*
X175224809Y-86144785D01*
X175105761Y-86144785D01*
X175058142Y-86109071D01*
X175034333Y-86073357D01*
X175010523Y-86001928D01*
X175010523Y-85930500D01*
X175034333Y-85859071D01*
X175058142Y-85823357D01*
X175105761Y-85787642D01*
X175201000Y-85751928D01*
X175248619Y-85716214D01*
X175272428Y-85680500D01*
X175296238Y-85609071D01*
X175296238Y-85537642D01*
X175272428Y-85466214D01*
X175248619Y-85430500D01*
X175201000Y-85394785D01*
X175081952Y-85394785D01*
X175010523Y-85430500D01*
X174510523Y-86073357D02*
X174534333Y-86109071D01*
X174605761Y-86144785D01*
X174653380Y-86144785D01*
X174724809Y-86109071D01*
X174772428Y-86037642D01*
X174796238Y-85966214D01*
X174820047Y-85823357D01*
X174820047Y-85716214D01*
X174796238Y-85573357D01*
X174772428Y-85501928D01*
X174724809Y-85430500D01*
X174653380Y-85394785D01*
X174605761Y-85394785D01*
X174534333Y-85430500D01*
X174510523Y-85466214D01*
X174058142Y-86144785D02*
X174296238Y-86144785D01*
X174296238Y-85394785D01*
X190297619Y-88617857D02*
X190321428Y-88653571D01*
X190392857Y-88689285D01*
X190440476Y-88689285D01*
X190511904Y-88653571D01*
X190559523Y-88582142D01*
X190583333Y-88510714D01*
X190607142Y-88367857D01*
X190607142Y-88260714D01*
X190583333Y-88117857D01*
X190559523Y-88046428D01*
X190511904Y-87975000D01*
X190440476Y-87939285D01*
X190392857Y-87939285D01*
X190321428Y-87975000D01*
X190297619Y-88010714D01*
X189988095Y-87939285D02*
X189892857Y-87939285D01*
X189845238Y-87975000D01*
X189797619Y-88046428D01*
X189773809Y-88189285D01*
X189773809Y-88439285D01*
X189797619Y-88582142D01*
X189845238Y-88653571D01*
X189892857Y-88689285D01*
X189988095Y-88689285D01*
X190035714Y-88653571D01*
X190083333Y-88582142D01*
X190107142Y-88439285D01*
X190107142Y-88189285D01*
X190083333Y-88046428D01*
X190035714Y-87975000D01*
X189988095Y-87939285D01*
X189321428Y-88689285D02*
X189559523Y-88689285D01*
X189559523Y-87939285D01*
X189178571Y-88010714D02*
X189154761Y-87975000D01*
X189107142Y-87939285D01*
X188988095Y-87939285D01*
X188940476Y-87975000D01*
X188916666Y-88010714D01*
X188892857Y-88082142D01*
X188892857Y-88153571D01*
X188916666Y-88260714D01*
X189202380Y-88689285D01*
X188892857Y-88689285D01*
X175080952Y-88621285D02*
X175247619Y-88264142D01*
X175366666Y-88621285D02*
X175366666Y-87871285D01*
X175176190Y-87871285D01*
X175128571Y-87907000D01*
X175104761Y-87942714D01*
X175080952Y-88014142D01*
X175080952Y-88121285D01*
X175104761Y-88192714D01*
X175128571Y-88228428D01*
X175176190Y-88264142D01*
X175366666Y-88264142D01*
X174771428Y-87871285D02*
X174676190Y-87871285D01*
X174628571Y-87907000D01*
X174580952Y-87978428D01*
X174557142Y-88121285D01*
X174557142Y-88371285D01*
X174580952Y-88514142D01*
X174628571Y-88585571D01*
X174676190Y-88621285D01*
X174771428Y-88621285D01*
X174819047Y-88585571D01*
X174866666Y-88514142D01*
X174890476Y-88371285D01*
X174890476Y-88121285D01*
X174866666Y-87978428D01*
X174819047Y-87907000D01*
X174771428Y-87871285D01*
X174390476Y-87871285D02*
X174271428Y-88621285D01*
X174176190Y-88085571D01*
X174080952Y-88621285D01*
X173961904Y-87871285D01*
X173676190Y-87871285D02*
X173628571Y-87871285D01*
X173580952Y-87907000D01*
X173557142Y-87942714D01*
X173533333Y-88014142D01*
X173509523Y-88157000D01*
X173509523Y-88335571D01*
X173533333Y-88478428D01*
X173557142Y-88549857D01*
X173580952Y-88585571D01*
X173628571Y-88621285D01*
X173676190Y-88621285D01*
X173723809Y-88585571D01*
X173747619Y-88549857D01*
X173771428Y-88478428D01*
X173795238Y-88335571D01*
X173795238Y-88157000D01*
X173771428Y-88014142D01*
X173747619Y-87942714D01*
X173723809Y-87907000D01*
X173676190Y-87871285D01*
X190297619Y-91117857D02*
X190321428Y-91153571D01*
X190392857Y-91189285D01*
X190440476Y-91189285D01*
X190511904Y-91153571D01*
X190559523Y-91082142D01*
X190583333Y-91010714D01*
X190607142Y-90867857D01*
X190607142Y-90760714D01*
X190583333Y-90617857D01*
X190559523Y-90546428D01*
X190511904Y-90475000D01*
X190440476Y-90439285D01*
X190392857Y-90439285D01*
X190321428Y-90475000D01*
X190297619Y-90510714D01*
X189988095Y-90439285D02*
X189892857Y-90439285D01*
X189845238Y-90475000D01*
X189797619Y-90546428D01*
X189773809Y-90689285D01*
X189773809Y-90939285D01*
X189797619Y-91082142D01*
X189845238Y-91153571D01*
X189892857Y-91189285D01*
X189988095Y-91189285D01*
X190035714Y-91153571D01*
X190083333Y-91082142D01*
X190107142Y-90939285D01*
X190107142Y-90689285D01*
X190083333Y-90546428D01*
X190035714Y-90475000D01*
X189988095Y-90439285D01*
X189321428Y-91189285D02*
X189559523Y-91189285D01*
X189559523Y-90439285D01*
X189202380Y-90439285D02*
X188892857Y-90439285D01*
X189059523Y-90725000D01*
X188988095Y-90725000D01*
X188940476Y-90760714D01*
X188916666Y-90796428D01*
X188892857Y-90867857D01*
X188892857Y-91046428D01*
X188916666Y-91117857D01*
X188940476Y-91153571D01*
X188988095Y-91189285D01*
X189130952Y-91189285D01*
X189178571Y-91153571D01*
X189202380Y-91117857D01*
X175081952Y-80350500D02*
X175129571Y-80314785D01*
X175201000Y-80314785D01*
X175272428Y-80350500D01*
X175320047Y-80421928D01*
X175343857Y-80493357D01*
X175367666Y-80636214D01*
X175367666Y-80743357D01*
X175343857Y-80886214D01*
X175320047Y-80957642D01*
X175272428Y-81029071D01*
X175201000Y-81064785D01*
X175153380Y-81064785D01*
X175081952Y-81029071D01*
X175058142Y-80993357D01*
X175058142Y-80743357D01*
X175153380Y-80743357D01*
X174843857Y-81064785D02*
X174843857Y-80314785D01*
X174558142Y-81064785D01*
X174558142Y-80314785D01*
X174320047Y-81064785D02*
X174320047Y-80314785D01*
X174201000Y-80314785D01*
X174129571Y-80350500D01*
X174081952Y-80421928D01*
X174058142Y-80493357D01*
X174034333Y-80636214D01*
X174034333Y-80743357D01*
X174058142Y-80886214D01*
X174081952Y-80957642D01*
X174129571Y-81029071D01*
X174201000Y-81064785D01*
X174320047Y-81064785D01*
X190544166Y-80314785D02*
X190377500Y-81064785D01*
X190210833Y-80314785D01*
X189758452Y-80993357D02*
X189782261Y-81029071D01*
X189853690Y-81064785D01*
X189901309Y-81064785D01*
X189972738Y-81029071D01*
X190020357Y-80957642D01*
X190044166Y-80886214D01*
X190067976Y-80743357D01*
X190067976Y-80636214D01*
X190044166Y-80493357D01*
X190020357Y-80421928D01*
X189972738Y-80350500D01*
X189901309Y-80314785D01*
X189853690Y-80314785D01*
X189782261Y-80350500D01*
X189758452Y-80386214D01*
X189258452Y-80993357D02*
X189282261Y-81029071D01*
X189353690Y-81064785D01*
X189401309Y-81064785D01*
X189472738Y-81029071D01*
X189520357Y-80957642D01*
X189544166Y-80886214D01*
X189567976Y-80743357D01*
X189567976Y-80636214D01*
X189544166Y-80493357D01*
X189520357Y-80421928D01*
X189472738Y-80350500D01*
X189401309Y-80314785D01*
X189353690Y-80314785D01*
X189282261Y-80350500D01*
X189258452Y-80386214D01*
X175081952Y-77810500D02*
X175129571Y-77774785D01*
X175201000Y-77774785D01*
X175272428Y-77810500D01*
X175320047Y-77881928D01*
X175343857Y-77953357D01*
X175367666Y-78096214D01*
X175367666Y-78203357D01*
X175343857Y-78346214D01*
X175320047Y-78417642D01*
X175272428Y-78489071D01*
X175201000Y-78524785D01*
X175153380Y-78524785D01*
X175081952Y-78489071D01*
X175058142Y-78453357D01*
X175058142Y-78203357D01*
X175153380Y-78203357D01*
X174843857Y-78524785D02*
X174843857Y-77774785D01*
X174558142Y-78524785D01*
X174558142Y-77774785D01*
X174320047Y-78524785D02*
X174320047Y-77774785D01*
X174201000Y-77774785D01*
X174129571Y-77810500D01*
X174081952Y-77881928D01*
X174058142Y-77953357D01*
X174034333Y-78096214D01*
X174034333Y-78203357D01*
X174058142Y-78346214D01*
X174081952Y-78417642D01*
X174129571Y-78489071D01*
X174201000Y-78524785D01*
X174320047Y-78524785D01*
X190214809Y-78524785D02*
X190381476Y-78167642D01*
X190500523Y-78524785D02*
X190500523Y-77774785D01*
X190310047Y-77774785D01*
X190262428Y-77810500D01*
X190238619Y-77846214D01*
X190214809Y-77917642D01*
X190214809Y-78024785D01*
X190238619Y-78096214D01*
X190262428Y-78131928D01*
X190310047Y-78167642D01*
X190500523Y-78167642D01*
X190024333Y-78489071D02*
X189952904Y-78524785D01*
X189833857Y-78524785D01*
X189786238Y-78489071D01*
X189762428Y-78453357D01*
X189738619Y-78381928D01*
X189738619Y-78310500D01*
X189762428Y-78239071D01*
X189786238Y-78203357D01*
X189833857Y-78167642D01*
X189929095Y-78131928D01*
X189976714Y-78096214D01*
X190000523Y-78060500D01*
X190024333Y-77989071D01*
X190024333Y-77917642D01*
X190000523Y-77846214D01*
X189976714Y-77810500D01*
X189929095Y-77774785D01*
X189810047Y-77774785D01*
X189738619Y-77810500D01*
X189595761Y-77774785D02*
X189310047Y-77774785D01*
X189452904Y-78524785D02*
X189452904Y-77774785D01*
X175300000Y-76089285D02*
X175300000Y-75339285D01*
X175180952Y-75339285D01*
X175109523Y-75375000D01*
X175061904Y-75446428D01*
X175038095Y-75517857D01*
X175014285Y-75660714D01*
X175014285Y-75767857D01*
X175038095Y-75910714D01*
X175061904Y-75982142D01*
X175109523Y-76053571D01*
X175180952Y-76089285D01*
X175300000Y-76089285D01*
X174823809Y-75875000D02*
X174585714Y-75875000D01*
X174871428Y-76089285D02*
X174704761Y-75339285D01*
X174538095Y-76089285D01*
X174442857Y-75339285D02*
X174157142Y-75339285D01*
X174300000Y-76089285D02*
X174300000Y-75339285D01*
X174014285Y-75875000D02*
X173776190Y-75875000D01*
X174061904Y-76089285D02*
X173895238Y-75339285D01*
X173728571Y-76089285D01*
X190258452Y-75207000D02*
X190306071Y-75171285D01*
X190377500Y-75171285D01*
X190448928Y-75207000D01*
X190496547Y-75278428D01*
X190520357Y-75349857D01*
X190544166Y-75492714D01*
X190544166Y-75599857D01*
X190520357Y-75742714D01*
X190496547Y-75814142D01*
X190448928Y-75885571D01*
X190377500Y-75921285D01*
X190329880Y-75921285D01*
X190258452Y-75885571D01*
X190234642Y-75849857D01*
X190234642Y-75599857D01*
X190329880Y-75599857D01*
X190020357Y-75921285D02*
X190020357Y-75171285D01*
X189734642Y-75921285D01*
X189734642Y-75171285D01*
X189496547Y-75921285D02*
X189496547Y-75171285D01*
X189377500Y-75171285D01*
X189306071Y-75207000D01*
X189258452Y-75278428D01*
X189234642Y-75349857D01*
X189210833Y-75492714D01*
X189210833Y-75599857D01*
X189234642Y-75742714D01*
X189258452Y-75814142D01*
X189306071Y-75885571D01*
X189377500Y-75921285D01*
X189496547Y-75921285D01*
X175022428Y-73444785D02*
X175260523Y-73444785D01*
X175260523Y-72694785D01*
X174855761Y-73051928D02*
X174689095Y-73051928D01*
X174617666Y-73444785D02*
X174855761Y-73444785D01*
X174855761Y-72694785D01*
X174617666Y-72694785D01*
X174403380Y-73444785D02*
X174403380Y-72694785D01*
X174284333Y-72694785D01*
X174212904Y-72730500D01*
X174165285Y-72801928D01*
X174141476Y-72873357D01*
X174117666Y-73016214D01*
X174117666Y-73123357D01*
X174141476Y-73266214D01*
X174165285Y-73337642D01*
X174212904Y-73409071D01*
X174284333Y-73444785D01*
X174403380Y-73444785D01*
X190286238Y-73444785D02*
X190452904Y-73087642D01*
X190571952Y-73444785D02*
X190571952Y-72694785D01*
X190381476Y-72694785D01*
X190333857Y-72730500D01*
X190310047Y-72766214D01*
X190286238Y-72837642D01*
X190286238Y-72944785D01*
X190310047Y-73016214D01*
X190333857Y-73051928D01*
X190381476Y-73087642D01*
X190571952Y-73087642D01*
X190095761Y-73230500D02*
X189857666Y-73230500D01*
X190143380Y-73444785D02*
X189976714Y-72694785D01*
X189810047Y-73444785D01*
X189691000Y-72694785D02*
X189571952Y-73444785D01*
X189476714Y-72909071D01*
X189381476Y-73444785D01*
X189262428Y-72694785D01*
D10*
X187135466Y-108431195D02*
X187406400Y-108044147D01*
X187599923Y-108431195D02*
X187599923Y-107618395D01*
X187290285Y-107618395D01*
X187212876Y-107657100D01*
X187174171Y-107695804D01*
X187135466Y-107773214D01*
X187135466Y-107889328D01*
X187174171Y-107966738D01*
X187212876Y-108005442D01*
X187290285Y-108044147D01*
X187599923Y-108044147D01*
X186361371Y-108431195D02*
X186825828Y-108431195D01*
X186593600Y-108431195D02*
X186593600Y-107618395D01*
X186671009Y-107734509D01*
X186748419Y-107811919D01*
X186825828Y-107850623D01*
X187135466Y-110731195D02*
X187406400Y-110344147D01*
X187599923Y-110731195D02*
X187599923Y-109918395D01*
X187290285Y-109918395D01*
X187212876Y-109957100D01*
X187174171Y-109995804D01*
X187135466Y-110073214D01*
X187135466Y-110189328D01*
X187174171Y-110266738D01*
X187212876Y-110305442D01*
X187290285Y-110344147D01*
X187599923Y-110344147D01*
X186825828Y-109995804D02*
X186787123Y-109957100D01*
X186709714Y-109918395D01*
X186516190Y-109918395D01*
X186438780Y-109957100D01*
X186400076Y-109995804D01*
X186361371Y-110073214D01*
X186361371Y-110150623D01*
X186400076Y-110266738D01*
X186864533Y-110731195D01*
X186361371Y-110731195D01*
X183399923Y-108467695D02*
X183399923Y-107654895D01*
X183090285Y-107654895D01*
X183012876Y-107693600D01*
X182974171Y-107732304D01*
X182935466Y-107809714D01*
X182935466Y-107925828D01*
X182974171Y-108003238D01*
X183012876Y-108041942D01*
X183090285Y-108080647D01*
X183399923Y-108080647D01*
X182161371Y-108467695D02*
X182625828Y-108467695D01*
X182393600Y-108467695D02*
X182393600Y-107654895D01*
X182471009Y-107771009D01*
X182548419Y-107848419D01*
X182625828Y-107887123D01*
X183399923Y-110667695D02*
X183399923Y-109854895D01*
X183090285Y-109854895D01*
X183012876Y-109893600D01*
X182974171Y-109932304D01*
X182935466Y-110009714D01*
X182935466Y-110125828D01*
X182974171Y-110203238D01*
X183012876Y-110241942D01*
X183090285Y-110280647D01*
X183399923Y-110280647D01*
X182625828Y-109932304D02*
X182587123Y-109893600D01*
X182509714Y-109854895D01*
X182316190Y-109854895D01*
X182238780Y-109893600D01*
X182200076Y-109932304D01*
X182161371Y-110009714D01*
X182161371Y-110087123D01*
X182200076Y-110203238D01*
X182664533Y-110667695D01*
X182161371Y-110667695D01*
X193352380Y-105634904D02*
X192876190Y-105301571D01*
X193352380Y-105063476D02*
X192352380Y-105063476D01*
X192352380Y-105444428D01*
X192400000Y-105539666D01*
X192447619Y-105587285D01*
X192542857Y-105634904D01*
X192685714Y-105634904D01*
X192780952Y-105587285D01*
X192828571Y-105539666D01*
X192876190Y-105444428D01*
X192876190Y-105063476D01*
X193304761Y-106444428D02*
X193352380Y-106349190D01*
X193352380Y-106158714D01*
X193304761Y-106063476D01*
X193209523Y-106015857D01*
X192828571Y-106015857D01*
X192733333Y-106063476D01*
X192685714Y-106158714D01*
X192685714Y-106349190D01*
X192733333Y-106444428D01*
X192828571Y-106492047D01*
X192923809Y-106492047D01*
X193019047Y-106015857D01*
X193304761Y-106873000D02*
X193352380Y-106968238D01*
X193352380Y-107158714D01*
X193304761Y-107253952D01*
X193209523Y-107301571D01*
X193161904Y-107301571D01*
X193066666Y-107253952D01*
X193019047Y-107158714D01*
X193019047Y-107015857D01*
X192971428Y-106920619D01*
X192876190Y-106873000D01*
X192828571Y-106873000D01*
X192733333Y-106920619D01*
X192685714Y-107015857D01*
X192685714Y-107158714D01*
X192733333Y-107253952D01*
X193304761Y-108111095D02*
X193352380Y-108015857D01*
X193352380Y-107825380D01*
X193304761Y-107730142D01*
X193209523Y-107682523D01*
X192828571Y-107682523D01*
X192733333Y-107730142D01*
X192685714Y-107825380D01*
X192685714Y-108015857D01*
X192733333Y-108111095D01*
X192828571Y-108158714D01*
X192923809Y-108158714D01*
X193019047Y-107682523D01*
X192685714Y-108444428D02*
X192685714Y-108825380D01*
X192352380Y-108587285D02*
X193209523Y-108587285D01*
X193304761Y-108634904D01*
X193352380Y-108730142D01*
X193352380Y-108825380D01*
M02*
