M48
; DRILL file {KiCad (5.1.0)-1} date 5/5/2019 2:02:08 PM
; FORMAT={-:-/ absolute / inch / decimal}
; #@! TF.CreationDate,2019-05-05T14:02:08-05:00
; #@! TF.GenerationSoftware,Kicad,Pcbnew,(5.1.0)-1
; #@! TF.FileFunction,NonPlated,1,2,NPTH
FMAT,2
INCH
T1C0.0039
T2C0.0472
T3C0.0669
T4C0.0748
T5C0.1181
T6C0.1575
%
G90
G05
T1
X6.9102Y-5.4511
X7.0608Y-5.1903
T2
X7.3307Y-4.5256
X7.3307Y-4.5945
X7.6063Y-4.5256
X7.6063Y-4.5945
T3
X2.5559Y-2.2884
X2.9559Y-2.2884
X3.3039Y-3.7844
X3.7039Y-3.7844
X5.548Y-3.5974
X5.948Y-3.5974
X6.2961Y-2.9429
X6.6961Y-2.9429
X5.548Y-2.8494
X5.948Y-2.8494
X3.3039Y-4.5325
X3.7039Y-4.5325
X5.548Y-2.1014
X5.948Y-2.1014
X4.8Y-4.252
X5.2Y-4.252
X3.3039Y-2.2884
X3.7039Y-2.2884
X4.052Y-3.5974
X4.452Y-3.5974
X6.0076Y-5.1746
X6.394Y-5.2781
X6.2961Y-3.6909
X6.6961Y-3.6909
X6.9735Y-5.5447
X7.1735Y-5.1983
X4.052Y-2.8494
X4.452Y-2.8494
X6.2961Y-2.1949
X6.6961Y-2.1949
X5.548Y-4.3455
X5.948Y-4.3455
X4.052Y-2.1014
X4.452Y-2.1014
X2.5559Y-4.5325
X2.9559Y-4.5325
X2.5559Y-3.0364
X2.9559Y-3.0364
X2.5559Y-3.7844
X2.9559Y-3.7844
X6.2961Y-4.439
X6.6961Y-4.439
X4.8Y-3.5039
X5.2Y-3.5039
X4.052Y-4.3455
X4.452Y-4.3455
X4.8Y-2.7559
X5.2Y-2.7559
X3.3039Y-3.0364
X3.7039Y-3.0364
X4.8Y-2.0079
X5.2Y-2.0079
X5.174Y-5.1181
X5.574Y-5.1181
T4
X4.0354Y-3.5974
X4.4685Y-3.5974
X5.9916Y-5.1703
X6.4099Y-5.2824
X6.2795Y-3.6909
X6.7126Y-3.6909
X6.9652Y-5.559
X7.1818Y-5.184
X4.0354Y-2.8494
X4.4685Y-2.8494
X6.2795Y-2.1949
X6.7126Y-2.1949
X5.5315Y-4.3455
X5.9646Y-4.3455
X4.0354Y-2.1014
X4.4685Y-2.1014
X2.5394Y-4.5325
X2.9724Y-4.5325
X2.5394Y-3.0364
X2.9724Y-3.0364
X2.5394Y-3.7844
X2.9724Y-3.7844
X6.2795Y-4.439
X6.7126Y-4.439
X4.7835Y-3.5039
X5.2165Y-3.5039
X4.0354Y-4.3455
X4.4685Y-4.3455
X4.7835Y-2.7559
X5.2165Y-2.7559
X3.2874Y-3.0364
X3.7205Y-3.0364
X4.7835Y-2.0079
X5.2165Y-2.0079
X5.1575Y-5.1181
X5.5906Y-5.1181
X2.5394Y-2.2884
X2.9724Y-2.2884
X3.2874Y-3.7844
X3.7205Y-3.7844
X5.5315Y-3.5974
X5.9646Y-3.5974
X6.2795Y-2.9429
X6.7126Y-2.9429
X5.5315Y-2.8494
X5.9646Y-2.8494
X3.2874Y-4.5325
X3.7205Y-4.5325
X5.5315Y-2.1014
X5.9646Y-2.1014
X4.7835Y-4.252
X5.2165Y-4.252
X3.2874Y-2.2884
X3.7205Y-2.2884
T5
X2.5591Y-2.4341
X2.6059Y-2.1884
X2.6559Y-2.0884
X2.7559Y-2.5207
X2.8559Y-2.0884
X2.9059Y-2.1884
X2.9528Y-2.4341
X3.3071Y-3.9301
X3.3539Y-3.6844
X3.4039Y-3.5844
X3.5039Y-4.0167
X3.6039Y-3.5844
X3.6539Y-3.6844
X3.7008Y-3.9301
X5.5512Y-3.7431
X5.598Y-3.4974
X5.648Y-3.3974
X5.748Y-3.8297
X5.848Y-3.3974
X5.898Y-3.4974
X5.9449Y-3.7431
X6.2992Y-3.0886
X6.3461Y-2.8429
X6.3961Y-2.7429
X6.4961Y-3.1752
X6.5961Y-2.7429
X6.6461Y-2.8429
X6.6929Y-3.0886
X5.5512Y-2.9951
X5.598Y-2.7494
X5.648Y-2.6494
X5.748Y-3.0817
X5.848Y-2.6494
X5.898Y-2.7494
X5.9449Y-2.9951
X3.3071Y-4.6781
X3.3539Y-4.4325
X3.4039Y-4.3325
X3.5039Y-4.7648
X3.6039Y-4.3325
X3.6539Y-4.4325
X3.7008Y-4.6781
X5.5512Y-2.247
X5.598Y-2.0014
X5.648Y-1.9014
X5.748Y-2.3337
X5.848Y-1.9014
X5.898Y-2.0014
X5.9449Y-2.247
X4.8031Y-4.3976
X4.85Y-4.152
X4.9Y-4.052
X5.0Y-4.4843
X5.1Y-4.052
X5.15Y-4.152
X5.1969Y-4.3976
X3.3071Y-2.4341
X3.3539Y-2.1884
X3.4039Y-2.0884
X3.5039Y-2.5207
X3.6039Y-2.0884
X3.6539Y-2.1884
X3.7008Y-2.4341
X4.0551Y-3.7431
X4.102Y-3.4974
X4.152Y-3.3974
X4.252Y-3.8297
X4.352Y-3.3974
X4.402Y-3.4974
X4.4488Y-3.7431
X5.9729Y-5.3161
X6.0818Y-5.091
X6.1407Y-5.4507
X6.156Y-5.0073
X6.3491Y-5.0591
X6.3532Y-5.418
X6.3716Y-5.1686
X6.2992Y-3.8366
X6.3461Y-3.5909
X6.3961Y-3.4909
X6.4961Y-3.9232
X6.5961Y-3.4909
X6.6461Y-3.5909
X6.6929Y-3.8366
X6.8503Y-5.3581
X6.9119Y-5.4514
X6.9503Y-5.1849
X7.0619Y-5.1916
X7.0619Y-5.1916
X7.1012Y-5.6148
X7.2747Y-5.4876
X7.2981Y-5.2739
X4.0551Y-2.9951
X4.102Y-2.7494
X4.152Y-2.6494
X4.252Y-3.0817
X4.352Y-2.6494
X4.402Y-2.7494
X4.4488Y-2.9951
X6.2992Y-2.3406
X6.3461Y-2.0949
X6.3961Y-1.9949
X6.4961Y-2.4272
X6.5961Y-1.9949
X6.6461Y-2.0949
X6.6929Y-2.3406
X5.5512Y-4.4911
X5.598Y-4.2455
X5.648Y-4.1455
X5.748Y-4.5778
X5.848Y-4.1455
X5.898Y-4.2455
X5.9449Y-4.4911
X4.0551Y-2.247
X4.102Y-2.0014
X4.152Y-1.9014
X4.252Y-2.3337
X4.352Y-1.9014
X4.402Y-2.0014
X4.4488Y-2.247
X2.5591Y-4.6781
X2.6059Y-4.4325
X2.6559Y-4.3325
X2.7559Y-4.7648
X2.8559Y-4.3325
X2.9059Y-4.4325
X2.9528Y-4.6781
X2.5591Y-3.1821
X2.6059Y-2.9364
X2.6559Y-2.8364
X2.7559Y-3.2687
X2.8559Y-2.8364
X2.9059Y-2.9364
X2.9528Y-3.1821
X2.5591Y-3.9301
X2.6059Y-3.6844
X2.6559Y-3.5844
X2.7559Y-4.0167
X2.8559Y-3.5844
X2.9059Y-3.6844
X2.9528Y-3.9301
X6.2992Y-4.5846
X6.3461Y-4.339
X6.3961Y-4.239
X6.4961Y-4.6713
X6.5961Y-4.239
X6.6461Y-4.339
X6.6929Y-4.5846
X4.8031Y-3.6496
X4.85Y-3.4039
X4.9Y-3.3039
X5.0Y-3.7362
X5.1Y-3.3039
X5.15Y-3.4039
X5.1969Y-3.6496
X4.0551Y-4.4911
X4.102Y-4.2455
X4.152Y-4.1455
X4.252Y-4.5778
X4.352Y-4.1455
X4.402Y-4.2455
X4.4488Y-4.4911
X4.8031Y-2.9016
X4.85Y-2.6559
X4.9Y-2.5559
X5.0Y-2.9882
X5.1Y-2.5559
X5.15Y-2.6559
X5.1969Y-2.9016
X3.3071Y-3.1821
X3.3539Y-2.9364
X3.4039Y-2.8364
X3.5039Y-3.2687
X3.6039Y-2.8364
X3.6539Y-2.9364
X3.7008Y-3.1821
X4.8031Y-2.1535
X4.85Y-1.9079
X4.9Y-1.8079
X5.0Y-2.2402
X5.1Y-1.8079
X5.15Y-1.9079
X5.1969Y-2.1535
X5.1772Y-5.2638
X5.224Y-5.0181
X5.274Y-4.9181
X5.374Y-5.3504
X5.474Y-4.9181
X5.524Y-5.0181
X5.5709Y-5.2638
T6
X6.2008Y-5.2264
X6.4961Y-3.6909
X7.0735Y-5.3715
X4.252Y-2.8494
X6.4961Y-2.1949
X5.748Y-4.3455
X4.252Y-2.1014
X2.7559Y-4.5325
X2.7559Y-3.0364
X2.7559Y-3.7844
X6.4961Y-4.439
X5.0Y-3.5039
X4.252Y-4.3455
X5.0Y-2.7559
X3.5039Y-3.0364
X5.0Y-2.0079
X5.374Y-5.1181
X2.7559Y-2.2884
X3.5039Y-3.7844
X5.748Y-3.5974
X6.4961Y-2.9429
X5.748Y-2.8494
X3.5039Y-4.5325
X5.748Y-2.1014
X5.0Y-4.252
X3.5039Y-2.2884
X4.252Y-3.5974
T0
M30
