G04 #@! TF.GenerationSoftware,KiCad,Pcbnew,(5.1.0)-1*
G04 #@! TF.CreationDate,2019-05-05T14:00:57-05:00*
G04 #@! TF.ProjectId,corne-chocolate,636f726e-652d-4636-986f-636f6c617465,2.1*
G04 #@! TF.SameCoordinates,Original*
G04 #@! TF.FileFunction,Soldermask,Bot*
G04 #@! TF.FilePolarity,Negative*
%FSLAX46Y46*%
G04 Gerber Fmt 4.6, Leading zero omitted, Abs format (unit mm)*
G04 Created by KiCad (PCBNEW (5.1.0)-1) date 2019-05-05 14:00:57*
%MOMM*%
%LPD*%
G04 APERTURE LIST*
%ADD10R,1.797000X1.797000*%
%ADD11C,1.797000*%
%ADD12C,4.400000*%
%ADD13C,1.900000*%
%ADD14C,0.100000*%
%ADD15C,3.400000*%
%ADD16C,2.100000*%
%ADD17C,2.300000*%
%ADD18C,0.500000*%
%ADD19R,2.400000X2.400000*%
%ADD20R,2.300000X2.400000*%
%ADD21C,2.400000*%
%ADD22C,5.400000*%
%ADD23C,1.600000*%
%ADD24O,2.900000X2.100000*%
%ADD25C,1.924000*%
%ADD26R,1.543000X1.035000*%
%ADD27R,1.924000X1.924000*%
G04 APERTURE END LIST*
D10*
X66938900Y-67411600D03*
D11*
X72938900Y-67411600D03*
D10*
X123746000Y-98247200D03*
D11*
X129746000Y-98247200D03*
D10*
X148363600Y-124750000D03*
D11*
X148363600Y-130750000D03*
D10*
X161744400Y-64973200D03*
D11*
X167744400Y-64973200D03*
D10*
X142745200Y-62636400D03*
D11*
X148745200Y-62636400D03*
D10*
X123746000Y-60248800D03*
D11*
X129746000Y-60248800D03*
D10*
X104797600Y-62636400D03*
D11*
X110797600Y-62636400D03*
D10*
X85773000Y-67360800D03*
D11*
X91773000Y-67360800D03*
D10*
X142745200Y-64516000D03*
D11*
X148745200Y-64516000D03*
D10*
X66926200Y-69265800D03*
D11*
X72926200Y-69265800D03*
D10*
X85773000Y-69227700D03*
D11*
X91773000Y-69227700D03*
D10*
X104800400Y-64516000D03*
D11*
X110800400Y-64516000D03*
D10*
X123746000Y-62128400D03*
D11*
X129746000Y-62128400D03*
D10*
X161744400Y-66852800D03*
D11*
X167744400Y-66852800D03*
D10*
X66745600Y-105359200D03*
D11*
X72745600Y-105359200D03*
D10*
X85747600Y-105359200D03*
D11*
X91747600Y-105359200D03*
D10*
X104696000Y-100634800D03*
D11*
X110696000Y-100634800D03*
D10*
X142694400Y-100634800D03*
D11*
X148694400Y-100634800D03*
D10*
X161693600Y-103022400D03*
D11*
X167693600Y-103022400D03*
D10*
X66748400Y-107238800D03*
D11*
X72748400Y-107238800D03*
D10*
X85747600Y-107238800D03*
D11*
X91747600Y-107238800D03*
D10*
X104696000Y-102514400D03*
D11*
X110696000Y-102514400D03*
D10*
X123746000Y-100126800D03*
D11*
X129746000Y-100126800D03*
D10*
X161693600Y-104902000D03*
D11*
X167693600Y-104902000D03*
D10*
X126898400Y-124708400D03*
D11*
X126898400Y-130708400D03*
D10*
X146151600Y-124750000D03*
D11*
X146151600Y-130750000D03*
D10*
X142694400Y-102514400D03*
D11*
X148694400Y-102514400D03*
D12*
X192250000Y-124250000D03*
X177750000Y-115750000D03*
D13*
X178017491Y-129132960D03*
D14*
G36*
X177453261Y-127710236D02*
G01*
X179531721Y-128910236D01*
X178581721Y-130555684D01*
X176503261Y-129355684D01*
X177453261Y-127710236D01*
X177453261Y-127710236D01*
G37*
D15*
X175562195Y-138465657D03*
D16*
X177126900Y-140835509D03*
X182206900Y-132036691D03*
D17*
X182416900Y-131672960D03*
X176916900Y-141199240D03*
D12*
X179666900Y-136436100D03*
D15*
X176537491Y-131696395D03*
D13*
X174067195Y-141055073D03*
D14*
G36*
X173502965Y-139632349D02*
G01*
X175581425Y-140832349D01*
X174631425Y-142477797D01*
X172552965Y-141277797D01*
X173502965Y-139632349D01*
X173502965Y-139632349D01*
G37*
D18*
X175520054Y-138458647D03*
D15*
X184776450Y-139386100D03*
X180371194Y-142616227D03*
D13*
X186276450Y-136788024D03*
D14*
G36*
X185712220Y-135365300D02*
G01*
X187790680Y-136565300D01*
X186840680Y-138210748D01*
X184762220Y-137010748D01*
X185712220Y-135365300D01*
X185712220Y-135365300D01*
G37*
D13*
X178871194Y-145214303D03*
D14*
G36*
X178306964Y-143791579D02*
G01*
X180385424Y-144991579D01*
X179435424Y-146637027D01*
X177356964Y-145437027D01*
X178306964Y-143791579D01*
X178306964Y-143791579D01*
G37*
D15*
X185371194Y-133955973D03*
D18*
X179345054Y-131833553D03*
D15*
X173997491Y-136095805D03*
X179372195Y-131866543D03*
X179372195Y-131866543D03*
D19*
X151600000Y-67295000D03*
D15*
X142190000Y-69835000D03*
D16*
X140920000Y-72375000D03*
X151080000Y-72375000D03*
D17*
X151500000Y-72375000D03*
X140500000Y-72375000D03*
D12*
X146000000Y-72375000D03*
D15*
X148540000Y-67295000D03*
D19*
X139100000Y-69835000D03*
D15*
X146000000Y-78275000D03*
X141000000Y-76075000D03*
D20*
X148800000Y-78275000D03*
D19*
X137900000Y-76075000D03*
D15*
X151000000Y-76075000D03*
X143460000Y-67295000D03*
X149810000Y-69835000D03*
D19*
X132600000Y-64920000D03*
D15*
X123190000Y-67460000D03*
D16*
X121920000Y-70000000D03*
X132080000Y-70000000D03*
D17*
X132500000Y-70000000D03*
X121500000Y-70000000D03*
D12*
X127000000Y-70000000D03*
D15*
X129540000Y-64920000D03*
D19*
X120100000Y-67460000D03*
D15*
X127000000Y-75900000D03*
X122000000Y-73700000D03*
D20*
X129800000Y-75900000D03*
D19*
X118900000Y-73700000D03*
D15*
X132000000Y-73700000D03*
X124460000Y-64920000D03*
X130810000Y-67460000D03*
D19*
X170600000Y-50670000D03*
D15*
X161190000Y-53210000D03*
D16*
X159920000Y-55750000D03*
X170080000Y-55750000D03*
D17*
X170500000Y-55750000D03*
X159500000Y-55750000D03*
D12*
X165000000Y-55750000D03*
D15*
X167540000Y-50670000D03*
D19*
X158100000Y-53210000D03*
D15*
X165000000Y-61650000D03*
X160000000Y-59450000D03*
D20*
X167800000Y-61650000D03*
D19*
X156900000Y-59450000D03*
D15*
X170000000Y-59450000D03*
X162460000Y-50670000D03*
X168810000Y-53210000D03*
D19*
X151600000Y-48295000D03*
D15*
X142190000Y-50835000D03*
D16*
X140920000Y-53375000D03*
X151080000Y-53375000D03*
D17*
X151500000Y-53375000D03*
X140500000Y-53375000D03*
D12*
X146000000Y-53375000D03*
D15*
X148540000Y-48295000D03*
D19*
X139100000Y-50835000D03*
D15*
X146000000Y-59275000D03*
X141000000Y-57075000D03*
D20*
X148800000Y-59275000D03*
D19*
X137900000Y-57075000D03*
D15*
X151000000Y-57075000D03*
X143460000Y-48295000D03*
X149810000Y-50835000D03*
D19*
X132600000Y-45920000D03*
D15*
X123190000Y-48460000D03*
D16*
X121920000Y-51000000D03*
X132080000Y-51000000D03*
D17*
X132500000Y-51000000D03*
X121500000Y-51000000D03*
D12*
X127000000Y-51000000D03*
D15*
X129540000Y-45920000D03*
D19*
X120100000Y-48460000D03*
D15*
X127000000Y-56900000D03*
X122000000Y-54700000D03*
D20*
X129800000Y-56900000D03*
D19*
X118900000Y-54700000D03*
D15*
X132000000Y-54700000D03*
X124460000Y-45920000D03*
X130810000Y-48460000D03*
D19*
X113600000Y-48295000D03*
D15*
X104190000Y-50835000D03*
D16*
X102920000Y-53375000D03*
X113080000Y-53375000D03*
D17*
X113500000Y-53375000D03*
X102500000Y-53375000D03*
D12*
X108000000Y-53375000D03*
D15*
X110540000Y-48295000D03*
D19*
X101100000Y-50835000D03*
D15*
X108000000Y-59275000D03*
X103000000Y-57075000D03*
D20*
X110800000Y-59275000D03*
D19*
X99900000Y-57075000D03*
D15*
X113000000Y-57075000D03*
X105460000Y-48295000D03*
X111810000Y-50835000D03*
D19*
X94600000Y-53045000D03*
D15*
X85190000Y-55585000D03*
D16*
X83920000Y-58125000D03*
X94080000Y-58125000D03*
D17*
X94500000Y-58125000D03*
X83500000Y-58125000D03*
D12*
X89000000Y-58125000D03*
D15*
X91540000Y-53045000D03*
D19*
X82100000Y-55585000D03*
D15*
X89000000Y-64025000D03*
X84000000Y-61825000D03*
D20*
X91800000Y-64025000D03*
D19*
X80900000Y-61825000D03*
D15*
X94000000Y-61825000D03*
X86460000Y-53045000D03*
X92810000Y-55585000D03*
D19*
X75600000Y-53045000D03*
D15*
X66190000Y-55585000D03*
D16*
X64920000Y-58125000D03*
X75080000Y-58125000D03*
D17*
X75500000Y-58125000D03*
X64500000Y-58125000D03*
D12*
X70000000Y-58125000D03*
D15*
X72540000Y-53045000D03*
D19*
X63100000Y-55585000D03*
D15*
X70000000Y-64025000D03*
X65000000Y-61825000D03*
D20*
X72800000Y-64025000D03*
D19*
X61900000Y-61825000D03*
D15*
X75000000Y-61825000D03*
X67460000Y-53045000D03*
X73810000Y-55585000D03*
D19*
X75600000Y-72045000D03*
D15*
X66190000Y-74585000D03*
D16*
X64920000Y-77125000D03*
X75080000Y-77125000D03*
D17*
X75500000Y-77125000D03*
X64500000Y-77125000D03*
D12*
X70000000Y-77125000D03*
D15*
X72540000Y-72045000D03*
D19*
X63100000Y-74585000D03*
D15*
X70000000Y-83025000D03*
X65000000Y-80825000D03*
D20*
X72800000Y-83025000D03*
D19*
X61900000Y-80825000D03*
D15*
X75000000Y-80825000D03*
X67460000Y-72045000D03*
X73810000Y-74585000D03*
D21*
X164223985Y-129292483D03*
D14*
G36*
X165693679Y-128443955D02*
G01*
X165072513Y-130762177D01*
X162754291Y-130141011D01*
X163375457Y-127822789D01*
X165693679Y-128443955D01*
X165693679Y-128443955D01*
G37*
D15*
X154477223Y-129310448D03*
D16*
X152593097Y-131435199D03*
X162406903Y-134064801D03*
D17*
X162812592Y-134173505D03*
X152187408Y-131326495D03*
D12*
X157500000Y-132750000D03*
D15*
X161268252Y-128500497D03*
D21*
X151492512Y-128510697D03*
D14*
G36*
X152962206Y-127662169D02*
G01*
X152341040Y-129980391D01*
X150022818Y-129359225D01*
X150643984Y-127041003D01*
X152962206Y-127662169D01*
X152962206Y-127662169D01*
G37*
D15*
X155972968Y-138448962D03*
X151712740Y-135029830D03*
D17*
X158677560Y-139173656D03*
D14*
G36*
X160098958Y-138312187D02*
G01*
X159477792Y-140630409D01*
X157256162Y-140035125D01*
X157877328Y-137716903D01*
X160098958Y-138312187D01*
X160098958Y-138312187D01*
G37*
D21*
X148718370Y-134227491D03*
D14*
G36*
X150188064Y-133378963D02*
G01*
X149566898Y-135697185D01*
X147248676Y-135076019D01*
X147869842Y-132757797D01*
X150188064Y-133378963D01*
X150188064Y-133378963D01*
G37*
D15*
X161371999Y-137618021D03*
X156361349Y-127185696D03*
X161837578Y-131282649D03*
D19*
X151600000Y-86295000D03*
D15*
X142190000Y-88835000D03*
D16*
X140920000Y-91375000D03*
X151080000Y-91375000D03*
D17*
X151500000Y-91375000D03*
X140500000Y-91375000D03*
D12*
X146000000Y-91375000D03*
D15*
X148540000Y-86295000D03*
D19*
X139100000Y-88835000D03*
D15*
X146000000Y-97275000D03*
X141000000Y-95075000D03*
D20*
X148800000Y-97275000D03*
D19*
X137900000Y-95075000D03*
D15*
X151000000Y-95075000D03*
X143460000Y-86295000D03*
X149810000Y-88835000D03*
D19*
X170600000Y-107670000D03*
D15*
X161190000Y-110210000D03*
D16*
X159920000Y-112750000D03*
X170080000Y-112750000D03*
D17*
X170500000Y-112750000D03*
X159500000Y-112750000D03*
D12*
X165000000Y-112750000D03*
D15*
X167540000Y-107670000D03*
D19*
X158100000Y-110210000D03*
D15*
X165000000Y-118650000D03*
X160000000Y-116450000D03*
D20*
X167800000Y-118650000D03*
D19*
X156900000Y-116450000D03*
D15*
X170000000Y-116450000D03*
X162460000Y-107670000D03*
X168810000Y-110210000D03*
D19*
X170600000Y-88670000D03*
D15*
X161190000Y-91210000D03*
D16*
X159920000Y-93750000D03*
X170080000Y-93750000D03*
D17*
X170500000Y-93750000D03*
X159500000Y-93750000D03*
D12*
X165000000Y-93750000D03*
D15*
X167540000Y-88670000D03*
D19*
X158100000Y-91210000D03*
D15*
X165000000Y-99650000D03*
X160000000Y-97450000D03*
D20*
X167800000Y-99650000D03*
D19*
X156900000Y-97450000D03*
D15*
X170000000Y-97450000D03*
X162460000Y-88670000D03*
X168810000Y-91210000D03*
D19*
X170600000Y-69670000D03*
D15*
X161190000Y-72210000D03*
D16*
X159920000Y-74750000D03*
X170080000Y-74750000D03*
D17*
X170500000Y-74750000D03*
X159500000Y-74750000D03*
D12*
X165000000Y-74750000D03*
D15*
X167540000Y-69670000D03*
D19*
X158100000Y-72210000D03*
D15*
X165000000Y-80650000D03*
X160000000Y-78450000D03*
D20*
X167800000Y-80650000D03*
D19*
X156900000Y-78450000D03*
D15*
X170000000Y-78450000D03*
X162460000Y-69670000D03*
X168810000Y-72210000D03*
D19*
X113600000Y-105295000D03*
D15*
X104190000Y-107835000D03*
D16*
X102920000Y-110375000D03*
X113080000Y-110375000D03*
D17*
X113500000Y-110375000D03*
X102500000Y-110375000D03*
D12*
X108000000Y-110375000D03*
D15*
X110540000Y-105295000D03*
D19*
X101100000Y-107835000D03*
D15*
X108000000Y-116275000D03*
X103000000Y-114075000D03*
D20*
X110800000Y-116275000D03*
D19*
X99900000Y-114075000D03*
D15*
X113000000Y-114075000D03*
X105460000Y-105295000D03*
X111810000Y-107835000D03*
D19*
X132600000Y-83920000D03*
D15*
X123190000Y-86460000D03*
D16*
X121920000Y-89000000D03*
X132080000Y-89000000D03*
D17*
X132500000Y-89000000D03*
X121500000Y-89000000D03*
D12*
X127000000Y-89000000D03*
D15*
X129540000Y-83920000D03*
D19*
X120100000Y-86460000D03*
D15*
X127000000Y-94900000D03*
X122000000Y-92700000D03*
D20*
X129800000Y-94900000D03*
D19*
X118900000Y-92700000D03*
D15*
X132000000Y-92700000D03*
X124460000Y-83920000D03*
X130810000Y-86460000D03*
D19*
X113600000Y-67295000D03*
D15*
X104190000Y-69835000D03*
D16*
X102920000Y-72375000D03*
X113080000Y-72375000D03*
D17*
X113500000Y-72375000D03*
X102500000Y-72375000D03*
D12*
X108000000Y-72375000D03*
D15*
X110540000Y-67295000D03*
D19*
X101100000Y-69835000D03*
D15*
X108000000Y-78275000D03*
X103000000Y-76075000D03*
D20*
X110800000Y-78275000D03*
D19*
X99900000Y-76075000D03*
D15*
X113000000Y-76075000D03*
X105460000Y-67295000D03*
X111810000Y-69835000D03*
D19*
X94600000Y-110045000D03*
D15*
X85190000Y-112585000D03*
D16*
X83920000Y-115125000D03*
X94080000Y-115125000D03*
D17*
X94500000Y-115125000D03*
X83500000Y-115125000D03*
D12*
X89000000Y-115125000D03*
D15*
X91540000Y-110045000D03*
D19*
X82100000Y-112585000D03*
D15*
X89000000Y-121025000D03*
X84000000Y-118825000D03*
D20*
X91800000Y-121025000D03*
D19*
X80900000Y-118825000D03*
D15*
X94000000Y-118825000D03*
X86460000Y-110045000D03*
X92810000Y-112585000D03*
D19*
X94600000Y-72045000D03*
D15*
X85190000Y-74585000D03*
D16*
X83920000Y-77125000D03*
X94080000Y-77125000D03*
D17*
X94500000Y-77125000D03*
X83500000Y-77125000D03*
D12*
X89000000Y-77125000D03*
D15*
X91540000Y-72045000D03*
D19*
X82100000Y-74585000D03*
D15*
X89000000Y-83025000D03*
X84000000Y-80825000D03*
D20*
X91800000Y-83025000D03*
D19*
X80900000Y-80825000D03*
D15*
X94000000Y-80825000D03*
X86460000Y-72045000D03*
X92810000Y-74585000D03*
D19*
X151600000Y-105295000D03*
D15*
X142190000Y-107835000D03*
D16*
X140920000Y-110375000D03*
X151080000Y-110375000D03*
D17*
X151500000Y-110375000D03*
X140500000Y-110375000D03*
D12*
X146000000Y-110375000D03*
D15*
X148540000Y-105295000D03*
D19*
X139100000Y-107835000D03*
D15*
X146000000Y-116275000D03*
X141000000Y-114075000D03*
D20*
X148800000Y-116275000D03*
D19*
X137900000Y-114075000D03*
D15*
X151000000Y-114075000D03*
X143460000Y-105295000D03*
X149810000Y-107835000D03*
D19*
X132600000Y-102920000D03*
D15*
X123190000Y-105460000D03*
D16*
X121920000Y-108000000D03*
X132080000Y-108000000D03*
D17*
X132500000Y-108000000D03*
X121500000Y-108000000D03*
D12*
X127000000Y-108000000D03*
D15*
X129540000Y-102920000D03*
D19*
X120100000Y-105460000D03*
D15*
X127000000Y-113900000D03*
X122000000Y-111700000D03*
D20*
X129800000Y-113900000D03*
D19*
X118900000Y-111700000D03*
D15*
X132000000Y-111700000D03*
X124460000Y-102920000D03*
X130810000Y-105460000D03*
D19*
X142100000Y-124920000D03*
D15*
X132690000Y-127460000D03*
D16*
X131420000Y-130000000D03*
X141580000Y-130000000D03*
D17*
X142000000Y-130000000D03*
X131000000Y-130000000D03*
D12*
X136500000Y-130000000D03*
D15*
X139040000Y-124920000D03*
D19*
X129600000Y-127460000D03*
D15*
X136500000Y-135900000D03*
X131500000Y-133700000D03*
D20*
X139300000Y-135900000D03*
D19*
X128400000Y-133700000D03*
D15*
X141500000Y-133700000D03*
X133960000Y-124920000D03*
X140310000Y-127460000D03*
D19*
X75600000Y-110045000D03*
D15*
X66190000Y-112585000D03*
D16*
X64920000Y-115125000D03*
X75080000Y-115125000D03*
D17*
X75500000Y-115125000D03*
X64500000Y-115125000D03*
D12*
X70000000Y-115125000D03*
D15*
X72540000Y-110045000D03*
D19*
X63100000Y-112585000D03*
D15*
X70000000Y-121025000D03*
X65000000Y-118825000D03*
D20*
X72800000Y-121025000D03*
D19*
X61900000Y-118825000D03*
D15*
X75000000Y-118825000D03*
X67460000Y-110045000D03*
X73810000Y-112585000D03*
D19*
X113600000Y-86295000D03*
D15*
X104190000Y-88835000D03*
D16*
X102920000Y-91375000D03*
X113080000Y-91375000D03*
D17*
X113500000Y-91375000D03*
X102500000Y-91375000D03*
D12*
X108000000Y-91375000D03*
D15*
X110540000Y-86295000D03*
D19*
X101100000Y-88835000D03*
D15*
X108000000Y-97275000D03*
X103000000Y-95075000D03*
D20*
X110800000Y-97275000D03*
D19*
X99900000Y-95075000D03*
D15*
X113000000Y-95075000D03*
X105460000Y-86295000D03*
X111810000Y-88835000D03*
D19*
X94600000Y-91045000D03*
D15*
X85190000Y-93585000D03*
D16*
X83920000Y-96125000D03*
X94080000Y-96125000D03*
D17*
X94500000Y-96125000D03*
X83500000Y-96125000D03*
D12*
X89000000Y-96125000D03*
D15*
X91540000Y-91045000D03*
D19*
X82100000Y-93585000D03*
D15*
X89000000Y-102025000D03*
X84000000Y-99825000D03*
D20*
X91800000Y-102025000D03*
D19*
X80900000Y-99825000D03*
D15*
X94000000Y-99825000D03*
X86460000Y-91045000D03*
X92810000Y-93585000D03*
D19*
X75600000Y-91045000D03*
D15*
X66190000Y-93585000D03*
D16*
X64920000Y-96125000D03*
X75080000Y-96125000D03*
D17*
X75500000Y-96125000D03*
X64500000Y-96125000D03*
D12*
X70000000Y-96125000D03*
D15*
X72540000Y-91045000D03*
D19*
X63100000Y-93585000D03*
D15*
X70000000Y-102025000D03*
X65000000Y-99825000D03*
D20*
X72800000Y-102025000D03*
D19*
X61900000Y-99825000D03*
D15*
X75000000Y-99825000D03*
X67460000Y-91045000D03*
X73810000Y-93585000D03*
D22*
X155500000Y-102108000D03*
X155500000Y-63892000D03*
X79500000Y-67642000D03*
D23*
X186200000Y-114950000D03*
X193200000Y-114950000D03*
D24*
X184400000Y-112850000D03*
X182900000Y-117050000D03*
X191400000Y-112850000D03*
X188400000Y-112850000D03*
D23*
X193200000Y-116700000D03*
X186200000Y-116700000D03*
D24*
X191400000Y-118800000D03*
X188400000Y-118800000D03*
X184400000Y-118800000D03*
X182900000Y-114600000D03*
D25*
X192100000Y-73042000D03*
X192100000Y-75582000D03*
X192100000Y-78122000D03*
X192100000Y-80662000D03*
X192100000Y-83202000D03*
X192100000Y-85742000D03*
X192100000Y-88282000D03*
X192100000Y-90822000D03*
X192100000Y-93362000D03*
X192100000Y-95902000D03*
X192100000Y-98442000D03*
X192100000Y-100982000D03*
X176860000Y-100982000D03*
X176860000Y-98442000D03*
X176860000Y-95902000D03*
X176860000Y-93362000D03*
X176860000Y-90822000D03*
X176860000Y-88282000D03*
X176860000Y-85742000D03*
X176860000Y-83202000D03*
X176860000Y-80662000D03*
X176860000Y-78122000D03*
X176860000Y-75582000D03*
X176860000Y-73042000D03*
X193406400Y-71772000D03*
X193406400Y-74312000D03*
X193406400Y-76852000D03*
X193406400Y-79392000D03*
X193406400Y-81932000D03*
X193406400Y-84472000D03*
X193406400Y-87012000D03*
X193406400Y-89552000D03*
X193406400Y-92092000D03*
X193406400Y-94632000D03*
X193406400Y-97172000D03*
X193406400Y-99712000D03*
X178186400Y-99712000D03*
X178186400Y-97172000D03*
X178186400Y-94632000D03*
X178186400Y-92092000D03*
X178186400Y-89552000D03*
X178186400Y-87012000D03*
X178186400Y-84472000D03*
X178186400Y-81932000D03*
X178186400Y-79392000D03*
X178186400Y-76852000D03*
X178186400Y-74312000D03*
X178186400Y-71772000D03*
D11*
X189540000Y-108000000D03*
X184460000Y-108000000D03*
X189540000Y-110300000D03*
X184460000Y-110300000D03*
D26*
X188875000Y-100749620D03*
X188875000Y-101750380D03*
X186375000Y-100749620D03*
X186375000Y-101750380D03*
X183875000Y-100749620D03*
X183875000Y-101750380D03*
X181375000Y-100749620D03*
X181375000Y-101750380D03*
D27*
X174000000Y-102820000D03*
X174000000Y-105360000D03*
X174000000Y-107900000D03*
D11*
X181300000Y-105300000D03*
X183840000Y-105300000D03*
X186380000Y-105300000D03*
X188920000Y-105300000D03*
D22*
X79500000Y-105500000D03*
X122850000Y-122750000D03*
X169250000Y-130500000D03*
D11*
X181000000Y-108000000D03*
X181000000Y-110300000D03*
D21*
X192900000Y-103750000D03*
X192900000Y-110250000D03*
M02*
