M48
; DRILL file {KiCad (5.1.0)-1} date 5/5/2019 2:02:08 PM
; FORMAT={-:-/ absolute / inch / decimal}
; #@! TF.CreationDate,2019-05-05T14:02:08-05:00
; #@! TF.GenerationSoftware,Kicad,Pcbnew,(5.1.0)-1
; #@! TF.FileFunction,Plated,1,2,PTH
FMAT,2
INCH
T1C0.0157
T2C0.0320
T3C0.0394
T4C0.0512
T5C0.0866
T6C0.1614
%
G90
G05
T1
X2.434Y-1.982
X2.5816Y-3.8464
X2.5857Y-3.1023
X2.589Y-2.351
X2.59Y-4.596
X2.748Y-3.922
X2.75Y-2.436
X2.754Y-3.18
X2.756Y-4.668
X3.08Y-3.612
X3.08Y-4.36
X3.098Y-2.188
X3.106Y-2.884
X3.154Y-2.1
X3.3316Y-4.5964
X3.3327Y-3.8493
X3.3794Y-3.0866
X3.3898Y-2.3502
X3.496Y-4.664
X3.504Y-3.18
X3.506Y-2.434
X3.506Y-3.92
X3.816Y-2.862
X3.818Y-4.358
X3.832Y-3.612
X3.856Y-2.176
X3.866Y-2.076
X3.986Y-3.168
X4.038Y-1.818
X4.0802Y-4.4098
X4.0822Y-3.6638
X4.09Y-2.914
X4.0903Y-2.1637
X4.24Y-2.244
X4.242Y-3.732
X4.256Y-2.994
X4.258Y-4.478
X4.508Y-3.13
X4.56Y-2.658
X4.572Y-4.178
X4.586Y-3.422
X4.596Y-1.988
X4.618Y-3.204
X4.6296Y-1.768
X4.648Y-3.082
X4.674Y-1.79
X4.738Y-3.076
X4.8279Y-3.5681
X4.828Y-2.82
X4.841Y-2.075
X4.842Y-4.318
X4.998Y-2.896
X4.998Y-4.388
X5.0Y-2.158
X5.002Y-3.648
X5.2139Y-5.1821
X5.314Y-2.578
X5.328Y-4.082
X5.334Y-3.33
X5.354Y-1.89
X5.368Y-5.25
X5.4002Y-1.7978
X5.422Y-3.326
X5.428Y-3.254
X5.438Y-3.108
X5.556Y-3.146
X5.5732Y-3.6588
X5.5752Y-2.1648
X5.5792Y-4.4128
X5.5873Y-2.9127
X5.626Y-3.254
X5.68Y-4.95
X5.74Y-4.48
X5.742Y-2.246
X5.746Y-2.992
X5.748Y-3.736
X5.93Y-3.408
X6.003Y-5.237
X6.054Y-3.312
X6.068Y-3.422
X6.074Y-4.174
X6.106Y-1.974
X6.108Y-2.702
X6.14Y-3.178
X6.141Y-1.923
X6.17Y-1.864
X6.172Y-5.362
X6.19Y-3.404
X6.222Y-3.368
X6.226Y-3.232
X6.234Y-3.322
X6.242Y-1.904
X6.3255Y-4.5045
X6.3325Y-3.0035
X6.3385Y-3.7575
X6.3789Y-2.2451
X6.488Y-3.826
X6.49Y-2.342
X6.492Y-4.572
X6.5Y-3.084
X6.55Y-5.084
X6.662Y-3.424
X6.714Y-3.964
X6.724Y-4.158
X6.734Y-3.294
X6.734Y-3.33
X6.738Y-3.918
X6.784Y-2.254
X6.7865Y-3.4235
X6.796Y-4.71
X6.806Y-2.016
X6.818Y-3.932
X6.826Y-2.772
X6.8282Y-3.2207
X6.8282Y-3.6142
X6.84Y-3.006
X6.8504Y-4.4016
X6.874Y-3.346
X6.8748Y-3.3032
X6.876Y-3.989
X6.9083Y-3.8303
X6.9173Y-4.148
X6.955Y-4.248
X7.02Y-4.104
X7.0335Y-4.2765
X7.0542Y-5.5262
X7.063Y-4.4016
X7.0669Y-2.8757
X7.074Y-5.032
X7.089Y-2.9772
X7.1614Y-4.2008
X7.1683Y-3.4757
X7.1732Y-4.3898
X7.184Y-5.444
X7.1843Y-3.9055
X7.252Y-3.2323
X7.265Y-2.8917
X7.2717Y-3.9331
X7.2795Y-3.374
X7.2799Y-3.0079
X7.2835Y-3.2795
X7.2874Y-3.9646
X7.311Y-3.2244
X7.311Y-3.9071
X7.315Y-2.8228
X7.3685Y-2.922
X7.378Y-3.4252
X7.4134Y-3.7913
X7.4157Y-2.9772
X7.4213Y-3.4921
X7.4291Y-3.6929
X7.437Y-3.2953
X7.4394Y-3.6008
X7.4488Y-3.6575
X7.4488Y-3.7638
X7.4488Y-3.8583
X7.4528Y-3.3583
X7.4528Y-3.4606
X7.4528Y-3.563
X7.4787Y-3.1248
X7.4941Y-3.078
X7.5079Y-3.8976
X7.5079Y-3.9528
T2
X4.8719Y-3.868
X5.1081Y-3.868
X3.3759Y-4.148
X3.6121Y-4.148
X5.6199Y-2.466
X5.8561Y-2.466
X2.6349Y-2.727
X2.8711Y-2.727
X3.3759Y-4.222
X3.6121Y-4.222
X7.2622Y-4.3425
X7.4622Y-4.3425
X5.6179Y-4.036
X5.8541Y-4.036
X4.126Y-2.54
X4.3622Y-2.54
X4.1259Y-2.466
X4.3621Y-2.466
X5.754Y-4.9114
X5.754Y-5.1476
X2.6278Y-4.148
X2.864Y-4.148
X6.3679Y-2.558
X6.6041Y-2.558
X7.126Y-4.3425
X5.6179Y-3.962
X5.8541Y-3.962
X5.6199Y-2.54
X5.8561Y-2.54
X2.6279Y-4.222
X2.8641Y-4.222
X7.2622Y-4.252
X7.4622Y-4.252
X4.996Y-4.9098
X4.996Y-5.146
X3.3769Y-2.7255
X3.6131Y-2.7255
X4.8719Y-3.942
X5.1081Y-3.942
X6.3679Y-2.632
X6.6041Y-2.632
X5.8411Y-4.9114
X5.8411Y-5.1476
X7.126Y-4.252
X4.1219Y-3.962
X4.3581Y-3.962
X3.3769Y-2.652
X3.6131Y-2.652
X6.3659Y-4.056
X6.6021Y-4.056
X6.963Y-2.8757
X6.963Y-2.9757
X6.963Y-3.0757
X6.963Y-3.1757
X6.963Y-3.2757
X6.963Y-3.3757
X6.963Y-3.4757
X6.963Y-3.5757
X6.963Y-3.6757
X6.963Y-3.7757
X6.963Y-3.8757
X6.963Y-3.9757
X7.0152Y-2.8257
X7.0152Y-2.9257
X7.0152Y-3.0257
X7.0152Y-3.1257
X7.0152Y-3.2257
X7.0152Y-3.3257
X7.0152Y-3.4257
X7.0152Y-3.5257
X7.0152Y-3.6257
X7.0152Y-3.7257
X7.0152Y-3.8257
X7.0152Y-3.9257
X7.563Y-2.8757
X7.563Y-2.9757
X7.563Y-3.0757
X7.563Y-3.1757
X7.563Y-3.2757
X7.563Y-3.3757
X7.563Y-3.4757
X7.563Y-3.5757
X7.563Y-3.6757
X7.563Y-3.7757
X7.563Y-3.8757
X7.563Y-3.9757
X7.6144Y-2.8257
X7.6144Y-2.9257
X7.6144Y-3.0257
X7.6144Y-3.1257
X7.6144Y-3.2257
X7.6144Y-3.3257
X7.6144Y-3.4257
X7.6144Y-3.5257
X7.6144Y-3.6257
X7.6144Y-3.7257
X7.6144Y-3.8257
X7.6144Y-3.9257
X6.3659Y-4.13
X6.6021Y-4.13
X2.6354Y-2.654
X2.8716Y-2.654
X4.1219Y-4.036
X4.3581Y-4.036
X4.8719Y-2.372
X5.1081Y-2.372
X7.1378Y-4.1457
X7.2378Y-4.1457
X7.3378Y-4.1457
X7.4378Y-4.1457
X4.8719Y-2.446
X5.1081Y-2.446
T4
X7.5945Y-4.0846
X7.5945Y-4.3406
T5
X7.5689Y-4.8917
X6.998Y-4.5571
T6
X4.8366Y-4.8327
X6.122Y-2.5154
X3.1299Y-4.1535
X6.122Y-4.02
X3.1299Y-2.6631
X6.6634Y-5.1378
T3
G00X7.2106Y-4.5118
M15
G01X7.1909Y-4.5118
M16
G05
G00X7.2106Y-4.6083
M15
G01X7.1909Y-4.6083
M16
G05
G00X7.2697Y-4.4429
M15
G01X7.25Y-4.4429
M16
G05
G00X7.2697Y-4.6772
M15
G01X7.25Y-4.6772
M16
G05
G00X7.4272Y-4.4429
M15
G01X7.4075Y-4.4429
M16
G05
G00X7.4272Y-4.6772
M15
G01X7.4075Y-4.6772
M16
G05
G00X7.5453Y-4.4429
M15
G01X7.5256Y-4.4429
M16
G05
G00X7.5453Y-4.6772
M15
G01X7.5256Y-4.6772
M16
G05
T0
M30
