G04 #@! TF.GenerationSoftware,KiCad,Pcbnew,(5.1.0)-1*
G04 #@! TF.CreationDate,2019-05-05T14:00:57-05:00*
G04 #@! TF.ProjectId,corne-chocolate,636f726e-652d-4636-986f-636f6c617465,2.1*
G04 #@! TF.SameCoordinates,Original*
G04 #@! TF.FileFunction,Profile,NP*
%FSLAX46Y46*%
G04 Gerber Fmt 4.6, Leading zero omitted, Abs format (unit mm)*
G04 Created by KiCad (PCBNEW (5.1.0)-1) date 2019-05-05 14:00:57*
%MOMM*%
%LPD*%
G04 APERTURE LIST*
%ADD10C,0.150000*%
G04 APERTURE END LIST*
D10*
X60941000Y-124250000D02*
X61500000Y-124250000D01*
X60941000Y-48950000D02*
X61500000Y-48950000D01*
X78500000Y-124250000D02*
X80500000Y-124250000D01*
X78500000Y-48950000D02*
X80500000Y-48950000D01*
X174361000Y-48260000D02*
X174371000Y-66250000D01*
X60441200Y-49450000D02*
X60441200Y-68500000D01*
X136000000Y-43700000D02*
X136000000Y-42450000D01*
X155000000Y-46200000D02*
X155000000Y-44700000D01*
X117500000Y-44200000D02*
X99500000Y-44200000D01*
X99000000Y-44700000D02*
X99000000Y-48450000D01*
X154500000Y-44200000D02*
X136500000Y-44200000D01*
X118000000Y-42450000D02*
X118000000Y-43700000D01*
X98500000Y-48950000D02*
X80500000Y-48950000D01*
X135500000Y-41950000D02*
X118500000Y-41950000D01*
X173871000Y-46700000D02*
X155500000Y-46700000D01*
X155000000Y-44700000D02*
G75*
G03X154500000Y-44200000I-500000J0D01*
G01*
X155000000Y-46200000D02*
G75*
G03X155500000Y-46700000I500000J0D01*
G01*
X174371000Y-47200000D02*
G75*
G03X173871000Y-46700000I-500000J0D01*
G01*
X60941000Y-48950000D02*
G75*
G03X60441000Y-49450000I0J-500000D01*
G01*
X174371000Y-47200000D02*
X174361000Y-48260000D01*
X78500000Y-48950000D02*
X61500000Y-48950000D01*
X118500000Y-41950000D02*
G75*
G03X118000000Y-42450000I0J-500000D01*
G01*
X117500000Y-44200000D02*
G75*
G03X118000000Y-43700000I0J500000D01*
G01*
X98500000Y-48950000D02*
G75*
G03X99000000Y-48450000I0J500000D01*
G01*
X136000000Y-43700000D02*
G75*
G03X136500000Y-44200000I500000J0D01*
G01*
X136000000Y-42450000D02*
G75*
G03X135500000Y-41950000I-500000J0D01*
G01*
X99500000Y-44200000D02*
G75*
G03X99000000Y-44700000I0J-500000D01*
G01*
X194750001Y-127975000D02*
G75*
G02X194522764Y-128847696I-1702236J-22697D01*
G01*
X181283356Y-151792841D02*
G75*
G02X179400000Y-152175000I-1139106J781884D01*
G01*
X164420556Y-143770344D02*
G75*
G02X165075000Y-143900000I-333152J-3398096D01*
G01*
X181283356Y-151792841D02*
X194525000Y-128850000D01*
X165075000Y-143900000D02*
X179400000Y-152175000D01*
X127750000Y-139000000D02*
X164420556Y-143770344D01*
X127396447Y-138853553D02*
G75*
G03X127750000Y-139000000I353553J353553D01*
G01*
X116853553Y-124396447D02*
X127396447Y-138853553D01*
X174371000Y-66250000D02*
X174371000Y-67500000D01*
X174371000Y-67500000D02*
G75*
G03X174871000Y-68000000I500000J0D01*
G01*
X194250000Y-68000000D02*
X174871000Y-68000000D01*
X116853553Y-124396447D02*
G75*
G03X116500000Y-124250000I-353553J-353553D01*
G01*
X60441000Y-123750000D02*
G75*
G03X60941000Y-124250000I500000J0D01*
G01*
X194750000Y-68500000D02*
G75*
G03X194250000Y-68000000I-500000J0D01*
G01*
X194750000Y-68500000D02*
X194750000Y-127975000D01*
X116500000Y-124250000D02*
X80500000Y-124250000D01*
X61500000Y-124250000D02*
X78500000Y-124250000D01*
X60441200Y-68500000D02*
X60441200Y-123750000D01*
M02*
