G04 #@! TF.GenerationSoftware,KiCad,Pcbnew,(5.1.0)-1*
G04 #@! TF.CreationDate,2019-05-05T14:00:57-05:00*
G04 #@! TF.ProjectId,corne-chocolate,636f726e-652d-4636-986f-636f6c617465,2.1*
G04 #@! TF.SameCoordinates,Original*
G04 #@! TF.FileFunction,Soldermask,Top*
G04 #@! TF.FilePolarity,Negative*
%FSLAX46Y46*%
G04 Gerber Fmt 4.6, Leading zero omitted, Abs format (unit mm)*
G04 Created by KiCad (PCBNEW (5.1.0)-1) date 2019-05-05 14:00:57*
%MOMM*%
%LPD*%
G04 APERTURE LIST*
%ADD10R,1.797000X1.797000*%
%ADD11C,1.797000*%
%ADD12C,4.400000*%
%ADD13R,0.800000X0.800000*%
%ADD14R,1.000000X1.543000*%
%ADD15C,3.400000*%
%ADD16C,2.100000*%
%ADD17C,2.300000*%
%ADD18C,0.500000*%
%ADD19C,1.900000*%
%ADD20C,0.100000*%
%ADD21R,2.400000X2.400000*%
%ADD22R,2.200000X2.400000*%
%ADD23C,2.400000*%
%ADD24C,2.200000*%
%ADD25C,5.400000*%
%ADD26C,1.600000*%
%ADD27O,2.900000X2.100000*%
%ADD28C,1.924000*%
%ADD29R,1.543000X1.035000*%
%ADD30R,1.924000X1.924000*%
G04 APERTURE END LIST*
D10*
X66938900Y-67411600D03*
D11*
X72938900Y-67411600D03*
D10*
X123746000Y-98247200D03*
D11*
X129746000Y-98247200D03*
D10*
X148363600Y-124750000D03*
D11*
X148363600Y-130750000D03*
D10*
X161744400Y-64973200D03*
D11*
X167744400Y-64973200D03*
D10*
X142745200Y-62636400D03*
D11*
X148745200Y-62636400D03*
D10*
X123746000Y-60248800D03*
D11*
X129746000Y-60248800D03*
D10*
X104797600Y-62636400D03*
D11*
X110797600Y-62636400D03*
D10*
X85773000Y-67360800D03*
D11*
X91773000Y-67360800D03*
D10*
X142745200Y-64516000D03*
D11*
X148745200Y-64516000D03*
D10*
X66926200Y-69265800D03*
D11*
X72926200Y-69265800D03*
D10*
X85773000Y-69227700D03*
D11*
X91773000Y-69227700D03*
D10*
X104800400Y-64516000D03*
D11*
X110800400Y-64516000D03*
D10*
X123746000Y-62128400D03*
D11*
X129746000Y-62128400D03*
D10*
X161744400Y-66852800D03*
D11*
X167744400Y-66852800D03*
D10*
X66745600Y-105359200D03*
D11*
X72745600Y-105359200D03*
D10*
X85747600Y-105359200D03*
D11*
X91747600Y-105359200D03*
D10*
X104696000Y-100634800D03*
D11*
X110696000Y-100634800D03*
D10*
X142694400Y-100634800D03*
D11*
X148694400Y-100634800D03*
D10*
X161693600Y-103022400D03*
D11*
X167693600Y-103022400D03*
D10*
X66748400Y-107238800D03*
D11*
X72748400Y-107238800D03*
D10*
X85747600Y-107238800D03*
D11*
X91747600Y-107238800D03*
D10*
X104696000Y-102514400D03*
D11*
X110696000Y-102514400D03*
D10*
X123746000Y-100126800D03*
D11*
X129746000Y-100126800D03*
D10*
X161693600Y-104902000D03*
D11*
X167693600Y-104902000D03*
D10*
X126898400Y-124708400D03*
D11*
X126898400Y-130708400D03*
D10*
X146151600Y-124750000D03*
D11*
X146151600Y-130750000D03*
D10*
X142694400Y-102514400D03*
D11*
X148694400Y-102514400D03*
D12*
X192250000Y-124250000D03*
X177750000Y-115750000D03*
D13*
X181100000Y-112800000D03*
D14*
X180600000Y-112800000D03*
X181600000Y-112800000D03*
D15*
X175562195Y-138465657D03*
D16*
X177126900Y-140835509D03*
X182206900Y-132036691D03*
D17*
X182416900Y-131672960D03*
X176916900Y-141199240D03*
D12*
X179666900Y-136436100D03*
D15*
X176537491Y-131696395D03*
D18*
X175520054Y-138458647D03*
D15*
X184776450Y-139386100D03*
X180371194Y-142616227D03*
D19*
X186871194Y-131357897D03*
D20*
G36*
X186306964Y-129935173D02*
G01*
X188385424Y-131135173D01*
X187435424Y-132780621D01*
X185356964Y-131580621D01*
X186306964Y-129935173D01*
X186306964Y-129935173D01*
G37*
D19*
X183276450Y-141984176D03*
D20*
G36*
X182712220Y-140561452D02*
G01*
X184790680Y-141761452D01*
X183840680Y-143406900D01*
X181762220Y-142206900D01*
X182712220Y-140561452D01*
X182712220Y-140561452D01*
G37*
D15*
X185371194Y-133955973D03*
D18*
X179345054Y-131833553D03*
D19*
X180867195Y-129277127D03*
D20*
G36*
X180302965Y-127854403D02*
G01*
X182381425Y-129054403D01*
X181431425Y-130699851D01*
X179352965Y-129499851D01*
X180302965Y-127854403D01*
X180302965Y-127854403D01*
G37*
D15*
X173997491Y-136095805D03*
X179372195Y-131866543D03*
D19*
X172517491Y-138659240D03*
D20*
G36*
X171953261Y-137236516D02*
G01*
X174031721Y-138436516D01*
X173081721Y-140081964D01*
X171003261Y-138881964D01*
X171953261Y-137236516D01*
X171953261Y-137236516D01*
G37*
D15*
X179372195Y-131866543D03*
X142190000Y-69835000D03*
D16*
X140920000Y-72375000D03*
X151080000Y-72375000D03*
D17*
X151500000Y-72375000D03*
X140500000Y-72375000D03*
D12*
X146000000Y-72375000D03*
D15*
X148540000Y-67295000D03*
X146000000Y-78275000D03*
X141000000Y-76075000D03*
D21*
X154100000Y-76075000D03*
D22*
X143200000Y-78275000D03*
D15*
X151000000Y-76075000D03*
D21*
X152900000Y-69835000D03*
D15*
X143460000Y-67295000D03*
X149810000Y-69835000D03*
D21*
X140400000Y-67295000D03*
D15*
X123190000Y-67460000D03*
D16*
X121920000Y-70000000D03*
X132080000Y-70000000D03*
D17*
X132500000Y-70000000D03*
X121500000Y-70000000D03*
D12*
X127000000Y-70000000D03*
D15*
X129540000Y-64920000D03*
X127000000Y-75900000D03*
X122000000Y-73700000D03*
D21*
X135100000Y-73700000D03*
D22*
X124200000Y-75900000D03*
D15*
X132000000Y-73700000D03*
D21*
X133900000Y-67460000D03*
D15*
X124460000Y-64920000D03*
X130810000Y-67460000D03*
D21*
X121400000Y-64920000D03*
D15*
X161190000Y-53210000D03*
D16*
X159920000Y-55750000D03*
X170080000Y-55750000D03*
D17*
X170500000Y-55750000D03*
X159500000Y-55750000D03*
D12*
X165000000Y-55750000D03*
D15*
X167540000Y-50670000D03*
X165000000Y-61650000D03*
X160000000Y-59450000D03*
D21*
X173100000Y-59450000D03*
D22*
X162200000Y-61650000D03*
D15*
X170000000Y-59450000D03*
D21*
X171900000Y-53210000D03*
D15*
X162460000Y-50670000D03*
X168810000Y-53210000D03*
D21*
X159400000Y-50670000D03*
D15*
X142190000Y-50835000D03*
D16*
X140920000Y-53375000D03*
X151080000Y-53375000D03*
D17*
X151500000Y-53375000D03*
X140500000Y-53375000D03*
D12*
X146000000Y-53375000D03*
D15*
X148540000Y-48295000D03*
X146000000Y-59275000D03*
X141000000Y-57075000D03*
D21*
X154100000Y-57075000D03*
D22*
X143200000Y-59275000D03*
D15*
X151000000Y-57075000D03*
D21*
X152900000Y-50835000D03*
D15*
X143460000Y-48295000D03*
X149810000Y-50835000D03*
D21*
X140400000Y-48295000D03*
D15*
X123190000Y-48460000D03*
D16*
X121920000Y-51000000D03*
X132080000Y-51000000D03*
D17*
X132500000Y-51000000D03*
X121500000Y-51000000D03*
D12*
X127000000Y-51000000D03*
D15*
X129540000Y-45920000D03*
X127000000Y-56900000D03*
X122000000Y-54700000D03*
D21*
X135100000Y-54700000D03*
D22*
X124200000Y-56900000D03*
D15*
X132000000Y-54700000D03*
D21*
X133900000Y-48460000D03*
D15*
X124460000Y-45920000D03*
X130810000Y-48460000D03*
D21*
X121400000Y-45920000D03*
D15*
X104190000Y-50835000D03*
D16*
X102920000Y-53375000D03*
X113080000Y-53375000D03*
D17*
X113500000Y-53375000D03*
X102500000Y-53375000D03*
D12*
X108000000Y-53375000D03*
D15*
X110540000Y-48295000D03*
X108000000Y-59275000D03*
X103000000Y-57075000D03*
D21*
X116100000Y-57075000D03*
D22*
X105200000Y-59275000D03*
D15*
X113000000Y-57075000D03*
D21*
X114900000Y-50835000D03*
D15*
X105460000Y-48295000D03*
X111810000Y-50835000D03*
D21*
X102400000Y-48295000D03*
D15*
X85190000Y-55585000D03*
D16*
X83920000Y-58125000D03*
X94080000Y-58125000D03*
D17*
X94500000Y-58125000D03*
X83500000Y-58125000D03*
D12*
X89000000Y-58125000D03*
D15*
X91540000Y-53045000D03*
X89000000Y-64025000D03*
X84000000Y-61825000D03*
D21*
X97100000Y-61825000D03*
D22*
X86200000Y-64025000D03*
D15*
X94000000Y-61825000D03*
D21*
X95900000Y-55585000D03*
D15*
X86460000Y-53045000D03*
X92810000Y-55585000D03*
D21*
X83400000Y-53045000D03*
D15*
X66190000Y-55585000D03*
D16*
X64920000Y-58125000D03*
X75080000Y-58125000D03*
D17*
X75500000Y-58125000D03*
X64500000Y-58125000D03*
D12*
X70000000Y-58125000D03*
D15*
X72540000Y-53045000D03*
X70000000Y-64025000D03*
X65000000Y-61825000D03*
D21*
X78100000Y-61825000D03*
D22*
X67200000Y-64025000D03*
D15*
X75000000Y-61825000D03*
D21*
X76900000Y-55585000D03*
D15*
X67460000Y-53045000D03*
X73810000Y-55585000D03*
D21*
X64400000Y-53045000D03*
D15*
X66190000Y-74585000D03*
D16*
X64920000Y-77125000D03*
X75080000Y-77125000D03*
D17*
X75500000Y-77125000D03*
X64500000Y-77125000D03*
D12*
X70000000Y-77125000D03*
D15*
X72540000Y-72045000D03*
X70000000Y-83025000D03*
X65000000Y-80825000D03*
D21*
X78100000Y-80825000D03*
D22*
X67200000Y-83025000D03*
D15*
X75000000Y-80825000D03*
D21*
X76900000Y-74585000D03*
D15*
X67460000Y-72045000D03*
X73810000Y-74585000D03*
D21*
X64400000Y-72045000D03*
D15*
X154477223Y-129310448D03*
D16*
X152593097Y-131435199D03*
X162406903Y-134064801D03*
D17*
X162812592Y-134173505D03*
X152187408Y-131326495D03*
D12*
X157500000Y-132750000D03*
D15*
X161268252Y-128500497D03*
X155972968Y-138448962D03*
X151712740Y-135029830D03*
D23*
X164366369Y-138420360D03*
D20*
G36*
X165836063Y-137571832D02*
G01*
X165214897Y-139890054D01*
X162896675Y-139268888D01*
X163517841Y-136950666D01*
X165836063Y-137571832D01*
X165836063Y-137571832D01*
G37*
D24*
X153268375Y-137724269D03*
D20*
G36*
X154641476Y-136849859D02*
G01*
X154020311Y-139168081D01*
X151895274Y-138598679D01*
X152516439Y-136280457D01*
X154641476Y-136849859D01*
X154641476Y-136849859D01*
G37*
D15*
X161371999Y-137618021D03*
D23*
X164822289Y-132082400D03*
D20*
G36*
X166291983Y-131233872D02*
G01*
X165670817Y-133552094D01*
X163352595Y-132930928D01*
X163973761Y-130612706D01*
X166291983Y-131233872D01*
X166291983Y-131233872D01*
G37*
D15*
X156361349Y-127185696D03*
X161837578Y-131282649D03*
D23*
X153405616Y-126393710D03*
D20*
G36*
X154875310Y-125545182D02*
G01*
X154254144Y-127863404D01*
X151935922Y-127242238D01*
X152557088Y-124924016D01*
X154875310Y-125545182D01*
X154875310Y-125545182D01*
G37*
D15*
X142190000Y-88835000D03*
D16*
X140920000Y-91375000D03*
X151080000Y-91375000D03*
D17*
X151500000Y-91375000D03*
X140500000Y-91375000D03*
D12*
X146000000Y-91375000D03*
D15*
X148540000Y-86295000D03*
X146000000Y-97275000D03*
X141000000Y-95075000D03*
D21*
X154100000Y-95075000D03*
D22*
X143200000Y-97275000D03*
D15*
X151000000Y-95075000D03*
D21*
X152900000Y-88835000D03*
D15*
X143460000Y-86295000D03*
X149810000Y-88835000D03*
D21*
X140400000Y-86295000D03*
D15*
X161190000Y-110210000D03*
D16*
X159920000Y-112750000D03*
X170080000Y-112750000D03*
D17*
X170500000Y-112750000D03*
X159500000Y-112750000D03*
D12*
X165000000Y-112750000D03*
D15*
X167540000Y-107670000D03*
X165000000Y-118650000D03*
X160000000Y-116450000D03*
D21*
X173100000Y-116450000D03*
D22*
X162200000Y-118650000D03*
D15*
X170000000Y-116450000D03*
D21*
X171900000Y-110210000D03*
D15*
X162460000Y-107670000D03*
X168810000Y-110210000D03*
D21*
X159400000Y-107670000D03*
D15*
X161190000Y-91210000D03*
D16*
X159920000Y-93750000D03*
X170080000Y-93750000D03*
D17*
X170500000Y-93750000D03*
X159500000Y-93750000D03*
D12*
X165000000Y-93750000D03*
D15*
X167540000Y-88670000D03*
X165000000Y-99650000D03*
X160000000Y-97450000D03*
D21*
X173100000Y-97450000D03*
D22*
X162200000Y-99650000D03*
D15*
X170000000Y-97450000D03*
D21*
X171900000Y-91210000D03*
D15*
X162460000Y-88670000D03*
X168810000Y-91210000D03*
D21*
X159400000Y-88670000D03*
D15*
X161190000Y-72210000D03*
D16*
X159920000Y-74750000D03*
X170080000Y-74750000D03*
D17*
X170500000Y-74750000D03*
X159500000Y-74750000D03*
D12*
X165000000Y-74750000D03*
D15*
X167540000Y-69670000D03*
X165000000Y-80650000D03*
X160000000Y-78450000D03*
D21*
X173100000Y-78450000D03*
D22*
X162200000Y-80650000D03*
D15*
X170000000Y-78450000D03*
D21*
X171900000Y-72210000D03*
D15*
X162460000Y-69670000D03*
X168810000Y-72210000D03*
D21*
X159400000Y-69670000D03*
D15*
X104190000Y-107835000D03*
D16*
X102920000Y-110375000D03*
X113080000Y-110375000D03*
D17*
X113500000Y-110375000D03*
X102500000Y-110375000D03*
D12*
X108000000Y-110375000D03*
D15*
X110540000Y-105295000D03*
X108000000Y-116275000D03*
X103000000Y-114075000D03*
D21*
X116100000Y-114075000D03*
D22*
X105200000Y-116275000D03*
D15*
X113000000Y-114075000D03*
D21*
X114900000Y-107835000D03*
D15*
X105460000Y-105295000D03*
X111810000Y-107835000D03*
D21*
X102400000Y-105295000D03*
D15*
X123190000Y-86460000D03*
D16*
X121920000Y-89000000D03*
X132080000Y-89000000D03*
D17*
X132500000Y-89000000D03*
X121500000Y-89000000D03*
D12*
X127000000Y-89000000D03*
D15*
X129540000Y-83920000D03*
X127000000Y-94900000D03*
X122000000Y-92700000D03*
D21*
X135100000Y-92700000D03*
D22*
X124200000Y-94900000D03*
D15*
X132000000Y-92700000D03*
D21*
X133900000Y-86460000D03*
D15*
X124460000Y-83920000D03*
X130810000Y-86460000D03*
D21*
X121400000Y-83920000D03*
D15*
X104190000Y-69835000D03*
D16*
X102920000Y-72375000D03*
X113080000Y-72375000D03*
D17*
X113500000Y-72375000D03*
X102500000Y-72375000D03*
D12*
X108000000Y-72375000D03*
D15*
X110540000Y-67295000D03*
X108000000Y-78275000D03*
X103000000Y-76075000D03*
D21*
X116100000Y-76075000D03*
D22*
X105200000Y-78275000D03*
D15*
X113000000Y-76075000D03*
D21*
X114900000Y-69835000D03*
D15*
X105460000Y-67295000D03*
X111810000Y-69835000D03*
D21*
X102400000Y-67295000D03*
D15*
X85190000Y-112585000D03*
D16*
X83920000Y-115125000D03*
X94080000Y-115125000D03*
D17*
X94500000Y-115125000D03*
X83500000Y-115125000D03*
D12*
X89000000Y-115125000D03*
D15*
X91540000Y-110045000D03*
X89000000Y-121025000D03*
X84000000Y-118825000D03*
D21*
X97100000Y-118825000D03*
D22*
X86200000Y-121025000D03*
D15*
X94000000Y-118825000D03*
D21*
X95900000Y-112585000D03*
D15*
X86460000Y-110045000D03*
X92810000Y-112585000D03*
D21*
X83400000Y-110045000D03*
D15*
X85190000Y-74585000D03*
D16*
X83920000Y-77125000D03*
X94080000Y-77125000D03*
D17*
X94500000Y-77125000D03*
X83500000Y-77125000D03*
D12*
X89000000Y-77125000D03*
D15*
X91540000Y-72045000D03*
X89000000Y-83025000D03*
X84000000Y-80825000D03*
D21*
X97100000Y-80825000D03*
D22*
X86200000Y-83025000D03*
D15*
X94000000Y-80825000D03*
D21*
X95900000Y-74585000D03*
D15*
X86460000Y-72045000D03*
X92810000Y-74585000D03*
D21*
X83400000Y-72045000D03*
D15*
X142190000Y-107835000D03*
D16*
X140920000Y-110375000D03*
X151080000Y-110375000D03*
D17*
X151500000Y-110375000D03*
X140500000Y-110375000D03*
D12*
X146000000Y-110375000D03*
D15*
X148540000Y-105295000D03*
X146000000Y-116275000D03*
X141000000Y-114075000D03*
D21*
X154100000Y-114075000D03*
D22*
X143200000Y-116275000D03*
D15*
X151000000Y-114075000D03*
D21*
X152900000Y-107835000D03*
D15*
X143460000Y-105295000D03*
X149810000Y-107835000D03*
D21*
X140400000Y-105295000D03*
D15*
X123190000Y-105460000D03*
D16*
X121920000Y-108000000D03*
X132080000Y-108000000D03*
D17*
X132500000Y-108000000D03*
X121500000Y-108000000D03*
D12*
X127000000Y-108000000D03*
D15*
X129540000Y-102920000D03*
X127000000Y-113900000D03*
X122000000Y-111700000D03*
D21*
X135100000Y-111700000D03*
D22*
X124200000Y-113900000D03*
D15*
X132000000Y-111700000D03*
D21*
X133900000Y-105460000D03*
D15*
X124460000Y-102920000D03*
X130810000Y-105460000D03*
D21*
X121400000Y-102920000D03*
D15*
X132690000Y-127460000D03*
D16*
X131420000Y-130000000D03*
X141580000Y-130000000D03*
D17*
X142000000Y-130000000D03*
X131000000Y-130000000D03*
D12*
X136500000Y-130000000D03*
D15*
X139040000Y-124920000D03*
X136500000Y-135900000D03*
X131500000Y-133700000D03*
D21*
X144600000Y-133700000D03*
D22*
X133700000Y-135900000D03*
D15*
X141500000Y-133700000D03*
D21*
X143400000Y-127460000D03*
D15*
X133960000Y-124920000D03*
X140310000Y-127460000D03*
D21*
X130900000Y-124920000D03*
D15*
X66190000Y-112585000D03*
D16*
X64920000Y-115125000D03*
X75080000Y-115125000D03*
D17*
X75500000Y-115125000D03*
X64500000Y-115125000D03*
D12*
X70000000Y-115125000D03*
D15*
X72540000Y-110045000D03*
X70000000Y-121025000D03*
X65000000Y-118825000D03*
D21*
X78100000Y-118825000D03*
D22*
X67200000Y-121025000D03*
D15*
X75000000Y-118825000D03*
D21*
X76900000Y-112585000D03*
D15*
X67460000Y-110045000D03*
X73810000Y-112585000D03*
D21*
X64400000Y-110045000D03*
D15*
X104190000Y-88835000D03*
D16*
X102920000Y-91375000D03*
X113080000Y-91375000D03*
D17*
X113500000Y-91375000D03*
X102500000Y-91375000D03*
D12*
X108000000Y-91375000D03*
D15*
X110540000Y-86295000D03*
X108000000Y-97275000D03*
X103000000Y-95075000D03*
D21*
X116100000Y-95075000D03*
D22*
X105200000Y-97275000D03*
D15*
X113000000Y-95075000D03*
D21*
X114900000Y-88835000D03*
D15*
X105460000Y-86295000D03*
X111810000Y-88835000D03*
D21*
X102400000Y-86295000D03*
D15*
X85190000Y-93585000D03*
D16*
X83920000Y-96125000D03*
X94080000Y-96125000D03*
D17*
X94500000Y-96125000D03*
X83500000Y-96125000D03*
D12*
X89000000Y-96125000D03*
D15*
X91540000Y-91045000D03*
X89000000Y-102025000D03*
X84000000Y-99825000D03*
D21*
X97100000Y-99825000D03*
D22*
X86200000Y-102025000D03*
D15*
X94000000Y-99825000D03*
D21*
X95900000Y-93585000D03*
D15*
X86460000Y-91045000D03*
X92810000Y-93585000D03*
D21*
X83400000Y-91045000D03*
D15*
X66190000Y-93585000D03*
D16*
X64920000Y-96125000D03*
X75080000Y-96125000D03*
D17*
X75500000Y-96125000D03*
X64500000Y-96125000D03*
D12*
X70000000Y-96125000D03*
D15*
X72540000Y-91045000D03*
X70000000Y-102025000D03*
X65000000Y-99825000D03*
D21*
X78100000Y-99825000D03*
D22*
X67200000Y-102025000D03*
D15*
X75000000Y-99825000D03*
D21*
X76900000Y-93585000D03*
D15*
X67460000Y-91045000D03*
X73810000Y-93585000D03*
D21*
X64400000Y-91045000D03*
D25*
X155500000Y-102108000D03*
X155500000Y-63892000D03*
X79500000Y-67642000D03*
D26*
X186200000Y-114950000D03*
X193200000Y-114950000D03*
D27*
X184400000Y-112850000D03*
X182900000Y-117050000D03*
X191400000Y-112850000D03*
X188400000Y-112850000D03*
D26*
X193200000Y-116700000D03*
X186200000Y-116700000D03*
D27*
X191400000Y-118800000D03*
X188400000Y-118800000D03*
X184400000Y-118800000D03*
X182900000Y-114600000D03*
D28*
X192100000Y-73042000D03*
X192100000Y-75582000D03*
X192100000Y-78122000D03*
X192100000Y-80662000D03*
X192100000Y-83202000D03*
X192100000Y-85742000D03*
X192100000Y-88282000D03*
X192100000Y-90822000D03*
X192100000Y-93362000D03*
X192100000Y-95902000D03*
X192100000Y-98442000D03*
X192100000Y-100982000D03*
X176860000Y-100982000D03*
X176860000Y-98442000D03*
X176860000Y-95902000D03*
X176860000Y-93362000D03*
X176860000Y-90822000D03*
X176860000Y-88282000D03*
X176860000Y-85742000D03*
X176860000Y-83202000D03*
X176860000Y-80662000D03*
X176860000Y-78122000D03*
X176860000Y-75582000D03*
X176860000Y-73042000D03*
X193406400Y-71772000D03*
X193406400Y-74312000D03*
X193406400Y-76852000D03*
X193406400Y-79392000D03*
X193406400Y-81932000D03*
X193406400Y-84472000D03*
X193406400Y-87012000D03*
X193406400Y-89552000D03*
X193406400Y-92092000D03*
X193406400Y-94632000D03*
X193406400Y-97172000D03*
X193406400Y-99712000D03*
X178186400Y-99712000D03*
X178186400Y-97172000D03*
X178186400Y-94632000D03*
X178186400Y-92092000D03*
X178186400Y-89552000D03*
X178186400Y-87012000D03*
X178186400Y-84472000D03*
X178186400Y-81932000D03*
X178186400Y-79392000D03*
X178186400Y-76852000D03*
X178186400Y-74312000D03*
X178186400Y-71772000D03*
D11*
X189540000Y-108000000D03*
X184460000Y-108000000D03*
X189540000Y-110300000D03*
X184460000Y-110300000D03*
D29*
X188875000Y-100749620D03*
X188875000Y-101750380D03*
X186375000Y-100749620D03*
X186375000Y-101750380D03*
X183875000Y-100749620D03*
X183875000Y-101750380D03*
X181375000Y-100749620D03*
X181375000Y-101750380D03*
D30*
X174000000Y-102820000D03*
X174000000Y-105360000D03*
X174000000Y-107900000D03*
D11*
X181300000Y-105300000D03*
X183840000Y-105300000D03*
X186380000Y-105300000D03*
X188920000Y-105300000D03*
D25*
X79500000Y-105500000D03*
X122850000Y-122750000D03*
X169250000Y-130500000D03*
D11*
X181000000Y-108000000D03*
X181000000Y-110300000D03*
D23*
X192900000Y-103750000D03*
X192900000Y-110250000D03*
M02*
